<svg aria-hidden="true" style="width:0;height:0;position:absolute;overflow:hidden" xmlns="http://www.w3.org/2000/svg"><defs><symbol id="icon-instagram" viewBox="0 0 32 32"><path d="M15.996 10.664c-2.938 0-5.335 2.398-5.335 5.336s2.398 5.336 5.335 5.336c2.938 0 5.335-2.398 5.335-5.336s-2.398-5.336-5.335-5.336zM31.998 16c0-2.21.02-4.399-.104-6.604-.124-2.562-.708-4.835-2.582-6.709C27.435.81 25.165.229 22.603.105c-2.209-.124-4.399-.104-6.604-.104-2.21 0-4.399-.02-6.604.104C6.833.229 4.56.813 2.687 2.687.81 4.564.229 6.834.105 9.396-.019 11.605.001 13.795.001 16s-.02 4.399.104 6.605c.124 2.562.708 4.835 2.582 6.709 1.877 1.877 4.147 2.458 6.708 2.582 2.209.124 4.399.104 6.604.104 2.209 0 4.399.02 6.604-.104 2.562-.124 4.835-.708 6.709-2.582 1.877-1.877 2.458-4.147 2.582-6.709.128-2.206.104-4.395.104-6.605zm-16.002 8.209c-4.543 0-8.209-3.666-8.209-8.21s3.666-8.21 8.209-8.21c4.543 0 8.209 3.666 8.209 8.21s-3.666 8.21-8.209 8.21zm8.545-14.837c-1.061 0-1.917-.857-1.917-1.917s.857-1.917 1.917-1.917a1.915 1.915 0 0 1 1.772 2.651 1.909 1.909 0 0 1-1.038 1.038 1.906 1.906 0 0 1-.734.145z"/></symbol><symbol id="icon-Arrow-Down" viewBox="0 0 32 32"><path fill="#fff" style="fill:var(--color1,#fff)" d="m15.292 22.708-10-10A.991.991 0 0 1 4.999 12a1.01 1.01 0 0 1 .293-.708.991.991 0 0 1 .708-.293 1.01 1.01 0 0 1 .708.293L16 20.586l9.293-9.294a1 1 0 1 1 1.414 1.414l-10 10a.991.991 0 0 1-.708.293 1.01 1.01 0 0 1-.708-.293z"/></symbol><symbol id="icon-Arrow-Fill" viewBox="0 0 32 32"><path fill="#151206" style="fill:var(--color2,#151206)" d="M16 32C7.163 32 0 24.837 0 16S7.163 0 16 0s16 7.163 16 16-7.163 16-16 16z"/><path fill="gold" style="fill:var(--color3,gold)" d="m9.292 15.292 10-10A.991.991 0 0 1 20 4.999a1.006 1.006 0 0 1 .925.618 1.006 1.006 0 0 1-.217 1.091L11.414 16l9.294 9.293a1 1 0 1 1-1.414 1.414l-10-10a.991.991 0 0 1-.293-.708 1.01 1.01 0 0 1 .293-.708z"/></symbol><symbol id="icon-Arrow-Left" viewBox="0 0 32 32"><path fill="#fff" style="fill:var(--color1,#fff)" d="m9.292 15.292 10-10A.991.991 0 0 1 20 4.999a1.006 1.006 0 0 1 .925.618 1.006 1.006 0 0 1-.217 1.091L11.414 16l9.294 9.293a1 1 0 1 1-1.414 1.414l-10-10a.991.991 0 0 1-.293-.708 1.01 1.01 0 0 1 .293-.708z"/></symbol><symbol id="icon-Arrow-Right" viewBox="0 0 32 32"><path fill="#fff" style="fill:var(--color1,#fff)" d="m22.708 16.708-10 10a.991.991 0 0 1-.708.293 1.01 1.01 0 0 1-.708-.293.991.991 0 0 1-.293-.708 1.006 1.006 0 0 1 .293-.708l9.294-9.293-9.294-9.293a1 1 0 1 1 1.414-1.414l10 10a.991.991 0 0 1 .293.708 1.006 1.006 0 0 1-.293.708z"/></symbol><symbol id="icon-Arrow-Up" viewBox="0 0 32 32"><path fill="#fff" style="fill:var(--color1,#fff)" d="m16.708 9.292 10 10a.991.991 0 0 1 .293.708 1.006 1.006 0 0 1-.618.925 1.006 1.006 0 0 1-1.091-.217l-9.293-9.294-9.293 9.294a1 1 0 1 1-1.414-1.414l10-10A.991.991 0 0 1 16 9.001a1.006 1.006 0 0 1 .708.293z"/></symbol><symbol id="icon-burger" viewBox="0 0 32 32"><path fill="#fff" style="fill:var(--color1,#fff)" d="M4 5.334h24v2.667H4V5.334zm8 9.333h16v2.667H12v-2.667zm-8 9.334h24v2.667H4v-2.667z"/></symbol><symbol id="icon-Call-Fill" viewBox="0 0 32 32"><path fill="#fff" style="fill:var(--color1,#fff)" d="M16 0c8.837 0 16 7.163 16 16s-7.163 16-16 16S0 24.837 0 16 7.163 0 16 0z"/><path style="fill:var(--color4,#000)" d="M21.999 18.947v2.357a.668.668 0 0 1-.62.665c-.291.02-.529.031-.713.031C14.775 22 10 17.225 10 11.333c0-.184.01-.422.031-.713a.67.67 0 0 1 .665-.62h2.357c.083 0 .162.031.224.086s.1.132.108.214a9.283 9.283 0 0 0 .848 3.035.304.304 0 0 1-.098.378l-1.439 1.028a8.7 8.7 0 0 0 4.562 4.563l1.027-1.436a.305.305 0 0 1 .382-.099 9.251 9.251 0 0 0 3.033.846.33.33 0 0 1 .298.332z"/></symbol><symbol id="icon-Call" viewBox="0 0 32 32"><path d="M28 21.893v4.715a1.335 1.335 0 0 1-1.24 1.331c-.583.04-1.059.061-1.427.061C13.55 28 4 18.449 4 6.667c0-.368.02-.844.061-1.427A1.334 1.334 0 0 1 5.392 4h4.715a.67.67 0 0 1 .664.6c.031.307.059.551.085.736a18.53 18.53 0 0 0 1.611 5.335.607.607 0 0 1-.196.756l-2.877 2.056a17.395 17.395 0 0 0 9.125 9.125l2.053-2.872a.62.62 0 0 1 .764-.199 18.551 18.551 0 0 0 5.333 1.607c.185.027.429.055.733.085a.665.665 0 0 1 .597.664z"/></symbol><symbol id="icon-Clean" viewBox="0 0 32 32"><path fill="#fff" style="fill:var(--color1,#fff)" d="m25.333 0-1.926 6.836-3.852 2.012 3.852 2.011 1.926 6.032 1.926-6.033 3.852-2.011-3.852-2.01L25.333 0zM12.444 5.334l-.889 3.556-2.667.889 2.667.889.889 3.556.889-3.556L16 9.779l-2.667-.889-.889-3.556zM0 21.336a.887.887 0 0 1 .889-.889h2.667a.887.887 0 0 1 .889.889v9.775a.887.887 0 0 1-.889.889H.889A.887.887 0 0 1 0 31.111v-9.775zm10.404-.721c.829-.378 2.853 0 2.853 0l5.89 1.321s1.473.472 2.853.472.555 1.89-.369 2.55c-.923.66-1.595.624-1.595.624l-4.756-.058s4.142.756 5.707.85c.792.048 2.151-.51 3.671-1.134 1.48-.608 3.111-1.277 4.519-1.51 2.853-.471 3.314 2.078 2.393 3.022s-8.283 4.531-9.571 5.003c-1.01.37-2.23.247-3.607.108-.381-.038-.775-.078-1.179-.108-1.609-.122-2.837-.513-4.053-.9-1.305-.414-2.595-.824-4.322-.894-.58-.023-1.936.049-2.618.089v-7.878c1.179-.42 3.565-1.276 4.182-1.557z"/></symbol><symbol id="icon-Close" viewBox="0 0 32 32"><path fill="#fff" style="fill:var(--color1,#fff)" d="M25.708 24.293a.991.991 0 0 1 .293.708 1.006 1.006 0 0 1-.618.925 1.006 1.006 0 0 1-1.091-.217l-8.293-8.294-8.293 8.294a1 1 0 1 1-1.414-1.414l8.294-8.293-8.294-8.293a1 1 0 1 1 1.414-1.414l8.293 8.294 8.293-8.294a1 1 0 1 1 1.414 1.414l-8.294 8.293 8.294 8.293z"/></symbol><symbol id="icon-copy" viewBox="0 0 32 32"><path fill="#fff" style="fill:var(--color1,#fff)" d="M20.32 2.666h-5.192c-2.352 0-4.216 0-5.673.197-1.501.203-2.716.629-3.673 1.591-.959.961-1.384 2.181-1.585 3.688-.196 1.464-.196 3.335-.196 5.696v7.784a4.822 4.822 0 0 0 2.969 4.456c-.089-1.213-.089-2.913-.089-4.329v-6.68c0-1.708 0-3.181.157-4.36.169-1.264.551-2.475 1.529-3.457s2.185-1.365 3.444-1.536c1.173-.157 2.64-.157 4.343-.157h4.093c1.701 0 3.165 0 4.34.157a4.8 4.8 0 0 0-4.466-3.049z"/><path fill="#fff" style="fill:var(--color1,#fff)" d="M8.801 15.195c0-3.635 0-5.452 1.125-6.581 1.124-1.129 2.933-1.129 6.555-1.129h3.84c3.62 0 5.431 0 6.556 1.129 1.124 1.129 1.124 2.947 1.124 6.581v6.427c0 3.635 0 5.452-1.124 6.581-1.125 1.129-2.936 1.129-6.556 1.129h-3.84c-3.62 0-5.431 0-6.555-1.129-1.125-1.129-1.125-2.947-1.125-6.581v-6.427z"/></symbol><symbol id="icon-Default" viewBox="0 0 32 32"><path d="M28 16a.997.997 0 0 1-1 1H17v10a.997.997 0 0 1-1 1 .997.997 0 0 1-1-1V17H5a.997.997 0 0 1-1-1 .997.997 0 0 1 1-1h10V5a.997.997 0 0 1 1-1 .997.997 0 0 1 1 1v10h10a.997.997 0 0 1 1 1z"/></symbol><symbol id="icon-facebook" viewBox="0 0 32 32"><path d="M31.999 16.097c0-8.892-7.164-16.1-16-16.1C7.159-.001-.005 7.205-.005 16.099c0 8.034 5.852 14.694 13.5 15.902v-11.25h-4.06v-4.652h4.064v-3.55c0-4.034 2.39-6.262 6.044-6.262 1.752 0 3.582.314 3.582.314v3.96h-2.018c-1.986 0-2.606 1.242-2.606 2.516v3.02h4.436l-.708 4.652h-3.73v11.25c7.648-1.208 13.5-7.868 13.5-15.902z"/></symbol><symbol id="icon-Gamepad" viewBox="0 0 32 32"><path fill="#fc3" style="fill:var(--color5,#fc3)" d="m14.224 8.178-.669-.473a5.653 5.653 0 0 0-3.267-1.039h-.816c-.54 0-1.084.033-1.592.213-3.177 1.128-5.363 5.247-5.204 14.591.032 1.883.472 3.963 2.171 4.775a4.248 4.248 0 0 0 1.857.421 3.649 3.649 0 0 0 2.04-.583c.547-.357 1.027-.821 1.507-1.285.592-.573 1.184-1.147 1.899-1.517a5.473 5.473 0 0 1 2.52-.615h2.665c.877 0 1.741.211 2.52.613.715.372 1.307.945 1.9 1.519.48.464.96.928 1.504 1.285.52.341 1.193.583 2.041.583a4.276 4.276 0 0 0 1.857-.421c1.699-.812 2.139-2.893 2.171-4.775.159-9.344-2.027-13.463-5.204-14.589-.509-.181-1.056-.215-1.593-.215h-.816c-1.17 0-2.312.364-3.267 1.04l-.669.472a3.076 3.076 0 0 1-3.554 0zm8.111 3.821a.997.997 0 0 1 1 1 .997.997 0 0 1-1 1 .997.997 0 0 1-1-1 .997.997 0 0 1 1-1zm-12.334.334a.997.997 0 0 1 1 1v1h1a.997.997 0 0 1 1 1 .997.997 0 0 1-1 1h-1v1a.997.997 0 0 1-1 1 .997.997 0 0 1-1-1v-1h-1a.997.997 0 0 1-1-1 .997.997 0 0 1 1-1h1v-1a.997.997 0 0 1 1-1zm15.334 2.666a.997.997 0 0 1-1 1 .997.997 0 0 1-1-1 .997.997 0 0 1 1-1 .997.997 0 0 1 1 1zm-5 1a.997.997 0 0 0 1-1 .997.997 0 0 0-1-1 .997.997 0 0 0-1 1 .997.997 0 0 0 1 1zm3 1a.997.997 0 0 0-1-1 .997.997 0 0 0-1 1 .997.997 0 0 0 1 1 .997.997 0 0 0 1-1z"/></symbol><symbol id="icon-Hot" viewBox="0 0 32 32"><path fill="#ff290a" style="fill:var(--color6,#ff290a)" d="M22 10.668c0 2-.667 4.667-3.867 5.733.933-2.267 1.067-4.533.4-6.667-.933-2.8-4-4.933-6.133-6.133-.533-.4-1.467.133-1.333.933 0 1.467-.4 3.6-2.667 5.867-2.933 2.933-4.4 6-4.4 8.933 0 3.867 2.667 8.667 8 8.667-5.333-5.333-1.333-10-1.333-10 1.067 7.867 6.667 10 9.333 10 2.267 0 6.667-1.6 6.667-8.533 0-4.133-1.733-7.333-3.2-9.2-.4-.667-1.333-.267-1.467.4z"/></symbol><symbol id="icon-Arrow-fill-left" viewBox="0 0 32 32"><path fill="#151206" style="fill:var(--color2,#151206)" d="M16 0c8.837 0 16 7.163 16 16s-7.163 16-16 16S0 24.837 0 16 7.163 0 16 0z"/><path fill="gold" style="fill:var(--color3,gold)" d="m22.708 16.708-10 10a.991.991 0 0 1-.708.293 1.01 1.01 0 0 1-.708-.293.991.991 0 0 1-.293-.708 1.006 1.006 0 0 1 .293-.708l9.294-9.293-9.294-9.293a1 1 0 1 1 1.414-1.414l10 10a.991.991 0 0 1 .293.708 1.006 1.006 0 0 1-.293.708z"/></symbol><symbol id="icon-car" viewBox="0 0 32 32"><path fill="#fc3" style="fill:var(--color5,#fc3)" d="M30 14h-3.586L21 8.586A1.977 1.977 0 0 0 19.586 8H5.535a2.003 2.003 0 0 0-1.66.89L.167 14.445A1.016 1.016 0 0 0-.001 15v6a2 2 0 0 0 2 2h2.125a3.997 3.997 0 0 0 6.328 2.168A3.992 3.992 0 0 0 11.874 23h8.25a3.997 3.997 0 0 0 6.328 2.168A3.992 3.992 0 0 0 27.874 23h2.125a2 2 0 0 0 2-2v-5a2 2 0 0 0-2-2zM5.535 10h14.051l4 4H2.875l2.66-4zM8 24a1.997 1.997 0 0 1-1.848-1.235 2.006 2.006 0 0 1 .433-2.18 1.997 1.997 0 0 1 2.18-.433A2.003 2.003 0 0 1 10 22a2 2 0 0 1-2 2zm16 0a1.997 1.997 0 0 1-1.848-1.235 2.006 2.006 0 0 1 .433-2.18 1.997 1.997 0 0 1 2.18-.433A2.003 2.003 0 0 1 26 22a2 2 0 0 1-2 2z"/></symbol><symbol id="icon-share" viewBox="0 0 32 32"><path fill="#fff" style="fill:var(--color1,#fff)" d="M23.5 10.999H17v9.062a.997.997 0 0 1-1 1 .997.997 0 0 1-1-1v-9.063H8.5a3.504 3.504 0 0 0-3.5 3.5v12a3.504 3.504 0 0 0 3.5 3.5h15a3.504 3.504 0 0 0 3.5-3.5v-12a3.504 3.504 0 0 0-3.5-3.5zM17 5.414l3.293 3.293a1 1 0 0 0 1.414-1.414l-5-5a1.003 1.003 0 0 0-1.414 0l-5 5a1 1 0 0 0 1.414 1.414L15 5.414V11h2V5.414z"/></symbol><symbol id="icon-Spray" viewBox="0 0 32 32"><path fill="#fff" style="fill:var(--color1,#fff)" d="M5.813 1.938v5.813h7.75V1.938A1.936 1.936 0 0 0 11.625 0H7.75a1.936 1.936 0 0 0-1.938 1.938zm0 7.75A5.815 5.815 0 0 0 0 15.501v12.594a2.907 2.907 0 0 0 2.906 2.906h13.563a2.907 2.907 0 0 0 2.906-2.906V15.501a5.815 5.815 0 0 0-5.813-5.813h-7.75zM9.688 15.5a4.846 4.846 0 0 1 3.425 8.269 4.846 4.846 0 0 1-6.85 0 4.846 4.846 0 0 1 0-6.85A4.846 4.846 0 0 1 9.688 15.5zM23.25 2.906a.266.266 0 0 0-.133-.218l-1.804-.751-.751-1.804C20.526.06 20.429 0 20.344 0s-.182.061-.218.133l-.751 1.804-1.804.751c-.073.036-.133.133-.133.218s.061.182.133.218l1.804.751.751 1.804c.036.073.133.133.218.133s.182-.061.218-.133l.751-1.804 1.804-.751a.264.264 0 0 0 .133-.218zm4.626 2.773c.036.073.133.133.218.133s.182-.061.218-.133l.751-1.804 1.804-.751c.073-.036.133-.133.133-.218s-.061-.182-.133-.218l-1.804-.751-.751-1.804C28.276.06 28.179 0 28.094 0s-.182.061-.218.133l-.751 1.804-1.804.751c-.073.036-.133.133-.133.218s.061.182.133.218l1.804.751.751 1.804zm.436 6.079c-.036-.073-.133-.133-.218-.133s-.182.06-.218.133l-.751 1.804-1.804.751c-.073.036-.133.133-.133.218s.061.182.133.218l1.804.751.751 1.804c.036.073.133.133.218.133s.182-.061.218-.133l.751-1.804 1.804-.751c.073-.036.133-.133.133-.218s-.061-.182-.133-.218l-1.804-.751-.751-1.804zm-1.187-3.039a.266.266 0 0 0-.133-.218l-1.804-.751-.751-1.804c-.036-.073-.133-.133-.218-.133s-.182.061-.218.133L23.25 7.75l-1.804.751c-.073.036-.133.133-.133.218s.061.182.133.218l1.804.751.751 1.804c.036.073.133.133.218.133s.182-.06.218-.133l.751-1.804 1.804-.751a.264.264 0 0 0 .133-.218z"/></symbol><symbol id="icon-Star" viewBox="0 0 32 32"><path fill="gold" style="fill:var(--color3,gold)" d="M16 23.027 24.24 28l-2.187-9.373 7.28-6.307-9.587-.813-3.747-8.84-3.747 8.84-9.587.813 7.28 6.307L7.758 28l8.24-4.973z"/></symbol><symbol id="icon-stars" viewBox="0 0 32 32"><path fill="#fff" style="fill:var(--color1,#fff)" d="M0 20.031c1.08-.05 1.994-.469 2.741-1.257s1.13-1.727 1.13-2.816c0 1.09.366 2.028 1.113 2.816s1.661 1.207 2.741 1.257a3.896 3.896 0 0 0-2.741 1.257 3.931 3.931 0 0 0-1.113 2.816c0-1.09-.366-2.028-1.13-2.816C1.993 20.5 1.08 20.081 0 20.031zM3.871 7.962c2.093-.101 3.871-.922 5.333-2.464S11.397 2.129 11.397 0c0 2.129.731 3.956 2.193 5.498s3.24 2.347 5.35 2.464a7.658 7.658 0 0 0-3.805 1.19 8.027 8.027 0 0 0-2.741 2.9 7.935 7.935 0 0 0-.997 3.906c0-2.129-.731-3.973-2.193-5.515-1.462-1.559-3.24-2.38-5.333-2.481zm5.516 18.054c1.578-.067 2.924-.687 4.021-1.844s1.645-2.531 1.645-4.14c0 1.609.548 2.984 1.645 4.14s2.426 1.777 4.004 1.844c-1.578.067-2.908.687-4.004 1.844s-1.645 2.531-1.645 4.14c0-1.609-.548-2.984-1.645-4.14a5.797 5.797 0 0 0-4.021-1.844zm11.315-7.946c1.578-.067 2.908-.687 4.004-1.844s1.628-2.531 1.628-4.157c0 1.609.548 2.984 1.645 4.14s2.442 1.777 4.021 1.844c-1.578.067-2.924.687-4.021 1.844s-1.645 2.531-1.645 4.14c0-1.609-.548-2.984-1.628-4.14-1.097-1.14-2.426-1.76-4.004-1.827z"/></symbol><symbol id="icon-telega" viewBox="0 0 32 32"><path d="M32 16a15.997 15.997 0 0 1-16 16A16.003 16.003 0 0 1 0 16 16.003 16.003 0 0 1 16 0a16.003 16.003 0 0 1 16 16zm-15.426-4.188c-1.556.648-4.668 1.988-9.332 4.02-.756.3-1.154.596-1.19.884-.06.486.55.678 1.38.94l.35.11c.816.266 1.916.576 2.486.588.52.012 1.098-.2 1.736-.64 4.358-2.942 6.608-4.428 6.748-4.46.1-.024.24-.052.332.032.094.082.084.24.074.282-.06.258-2.454 2.482-3.692 3.634-.386.36-.66.614-.716.672-.123.126-.249.25-.376.372-.76.732-1.328 1.28.03 2.176.654.432 1.178.786 1.7 1.142.568.388 1.136.774 1.872 1.258.186.12.366.25.54.374.662.472 1.26.896 1.994.828.428-.04.87-.44 1.094-1.64.53-2.834 1.572-8.972 1.812-11.502.015-.21.006-.422-.026-.63a.674.674 0 0 0-.228-.434 1.047 1.047 0 0 0-.62-.186c-.6.01-1.526.332-5.968 2.18z"/></symbol></defs></svg>