<svg aria-hidden="true" style="width:0;height:0;position:absolute;overflow:hidden" xmlns="http://www.w3.org/2000/svg"><defs><symbol id="icon-5starts" viewBox="0 0 160 32"><path fill="gold" style="fill:var(--color1,gold)" d="M16 23.027 24.24 28l-2.187-9.373 7.28-6.307-9.587-.813-3.747-8.84-3.747 8.84-9.587.813 7.28 6.307L7.758 28l8.24-4.973zM48 23.027 56.24 28l-2.187-9.373 7.28-6.307-9.587-.813-3.747-8.84-3.747 8.84-9.587.813 7.28 6.307L39.758 28l8.24-4.973zM80 23.027 88.24 28l-2.187-9.373 7.28-6.307-9.587-.813-3.747-8.84-3.747 8.84-9.587.813 7.28 6.307L71.758 28l8.24-4.973zM112 23.027 120.24 28l-2.187-9.373 7.28-6.307-9.587-.813-3.747-8.84-3.747 8.84-9.587.813 7.28 6.307L103.758 28l8.24-4.973zM144 23.027 152.24 28l-2.187-9.373 7.28-6.307-9.587-.813-3.747-8.84-3.747 8.84-9.587.813 7.28 6.307L135.758 28l8.24-4.973z"/></symbol><symbol id="icon-Arrow-Down-Corner" viewBox="0 0 32 32"><path fill="#fc3" style="fill:var(--color1,#fc3)" d="M7.057 7.057a1.333 1.333 0 0 1 1.886 0L24 22.114V8.693a1.333 1.333 0 0 1 2.666 0v16.64c0 .736-.597 1.333-1.333 1.333H8.693a1.333 1.333 0 0 1 0-2.666h13.421L7.057 8.943a1.333 1.333 0 0 1 0-1.886z"/></symbol><symbol id="icon-car-jeep" viewBox="0 0 32 32"><path fill="#fc3" style="fill:var(--color1,#fc3)" d="M0 17.156c.189-.543.354-1.102.579-1.632.201-.47.579-.752 1.09-.897 1.299-.366 2.633-.474 3.968-.591.177-.016.354-.06.527-.044.74.068 1.335-.253 1.938-.623 1.363-.836 2.754-1.628 4.125-2.449a2.293 2.293 0 0 1 1.21-.338c5.705.008 11.414.004 17.12.004.434 0 .539.113.495.499-.036.326-.298.257-.547.298.623 1.749 1.074 3.51.901 5.42.575-.02.543.358.531.728-.008.374-.004.748 0 1.122.004.265-.125.402-.386.434-.515.064-1.029.133-1.544.197-.193.024-.35.068-.442.273a.495.495 0 0 1-.302.237c-.603.145-1.214.265-1.858.402-.008-.125-.016-.221-.016-.322 0-.748.004-1.496 0-2.243-.008-.953-.583-1.54-1.528-1.556a62.368 62.368 0 0 0-2.119 0c-1.061.016-1.725.675-1.745 1.737-.012.531-.004 1.061-.004 1.592v.35l-14.185.217v-.398c-.004-.708.012-1.415-.012-2.119-.024-.756-.599-1.343-1.355-1.363a37 37 0 0 0-2.493.004c-.828.028-1.488.7-1.52 1.528-.028.683-.012 1.371-.016 2.059v.438c-.326 0-.631.008-.937-.004-.084-.004-.213-.052-.245-.117-.157-.322-.531-.41-.708-.659-.217-.31-.31-.708-.454-1.069-.032-.101-.044-.205-.068-.306v-.808zm25.696-5.794h-3.397c-.478 0-.547.092-.382.531l.535 1.427c.193.519.426.696.973.692 2.191-.012 4.386-.032 6.578-.044.269 0 .326-.092.245-.338a44.893 44.893 0 0 1-.611-1.894c-.08-.277-.221-.382-.511-.378-1.146.012-2.288.004-3.43.004zm-7.535 0c-.591 0-1.186.004-1.777 0-.249-.004-.358.1-.354.354.008.728.008 1.455 0 2.183-.004.249.092.362.346.354 1.082-.028 2.163-.044 3.241-.08.527-.016.812-.338.78-.872-.032-.539-.092-1.078-.133-1.616-.016-.229-.129-.33-.362-.326-.579.008-1.162.004-1.741.004zm-7.583 2.795c1.411 0 2.782.004 4.157-.012.08 0 .221-.189.225-.298.028-.716.024-1.431.036-2.147.004-.237-.096-.346-.334-.342-.31.004-.623.024-.933-.004a2.583 2.583 0 0 0-1.837.511c-.466.338-.977.615-1.488.929.623.298.772.86.173 1.363z"/><path fill="#fc3" style="fill:var(--color1,#fc3)" d="M24.68 21.47c-1.343-.008-2.461-1.122-2.449-2.44.012-1.375 1.138-2.497 2.477-2.477a2.467 2.467 0 0 1 2.441 2.509c-.012 1.331-1.126 2.416-2.469 2.408zm1.576-2.243c-.249 0-.414-.012-.579.004-.068.008-.169.048-.193.105-.024.052.012.153.048.213.1.145.217.277.382.482.137-.318.225-.527.342-.804zm-.671 1.065c.008-.036.02-.072.028-.113-.193-.133-.434-.41-.571-.366-.285.088-.088.422-.121.651 0 .012.024.028.064.072.189-.076.394-.161.599-.245zm-.68-2.831c0 .265-.016.442.004.615.024.181.137.249.298.129.149-.109.289-.233.503-.406a40.6 40.6 0 0 0-.804-.338zm-1.765 1.766c.117.273.201.482.289.692.036.016.072.028.109.044.109-.137.225-.269.322-.414.04-.056.072-.153.052-.209-.024-.056-.117-.101-.185-.109-.165-.012-.33-.004-.587-.004zm.571-1.444c.185.165.31.289.446.39.056.04.153.076.205.056.056-.024.105-.121.109-.185.016-.169.004-.342.004-.583-.269.117-.478.205-.764.322zm-.567 1.017c.249 0 .434.02.611-.004.181-.024.249-.133.117-.298-.113-.145-.233-.281-.402-.49-.129.314-.213.523-.326.792zm2.786-.764c-.173.193-.29.322-.406.454-.129.153-.097.277.1.306.185.028.374.004.627.004-.117-.277-.201-.482-.322-.764zm-1.451 2.533c0-.245.016-.426-.004-.607-.02-.193-.133-.249-.294-.125-.145.113-.281.237-.478.406l.776.326zM5.11 21.47c-1.343 0-2.449-1.094-2.457-2.424-.004-1.371 1.102-2.493 2.461-2.489a2.472 2.472 0 0 1 2.457 2.493c-.004 1.327-1.118 2.42-2.461 2.42zm.213-4.004c0 .245-.012.422.004.591a.287.287 0 0 0 .125.181c.04.024.137-.012.181-.048.141-.113.269-.241.454-.414-.289-.117-.499-.201-.764-.31zm-1.198.313.466.414c.165.149.273.06.302-.109.028-.177.008-.362.008-.619l-.776.314zm-.571 1.448.342.804c.173-.213.293-.354.406-.503.121-.165.056-.273-.129-.298-.173-.02-.35-.004-.619-.004zm.623.96c.016.036.032.072.044.109l.675.265c0-.229.008-.394-.004-.559-.008-.072-.052-.185-.096-.193-.072-.016-.169.024-.237.068-.133.092-.253.205-.382.31zm2.493-.96c-.257 0-.43-.012-.603.004a.269.269 0 0 0-.177.125c-.02.044.016.133.056.185.105.145.225.281.338.422.036-.02.068-.04.105-.056l.281-.679zm-.668 1.065.036-.117-.615-.378c-.028.225-.06.446-.088.671 0 .012.024.028.064.072l.603-.249zM3.558 18.8c.257 0 .434.012.603-.004.185-.02.265-.125.133-.289-.117-.149-.249-.281-.422-.474a39.83 39.83 0 0 1-.314.768zm3.108 0c-.117-.269-.205-.482-.318-.744-.165.173-.281.285-.386.414-.044.056-.088.153-.072.205.02.056.117.113.185.117.173.02.346.008.591.008z"/></symbol><symbol id="icon-car-universal" viewBox="0 0 32 32"><path fill="#fc3" style="fill:var(--color1,#fc3)" d="M0 17.218c.311-1.159 1.163-1.737 2.25-1.995 1.535-.363 3.082-.662 4.625-1.006a2.95 2.95 0 0 0 .804-.295c1.595-.917 3.211-1.781 4.936-2.444 1.486-.569 3.029-.876 4.612-.994 3.477-.263 6.935-.008 10.384.444.832.109 1.515.501 2.003 1.191a85.8 85.8 0 0 1 1.401 2.06c.258.384.368.808.363 1.268-.004.469.004.937-.004 1.401-.004.158.02.267.182.347.303.153.392.424.376.755-.036.658-.311 1.058-.994 1.232-.994.25-1.967.59-2.997.905.323-1.216.097-2.266-.864-3.086-.646-.553-1.41-.735-2.242-.598-1.365.226-2.718 1.644-2.145 3.659H8.263c.485-2.169-1.175-3.558-2.613-3.558-.921 0-1.672.347-2.25 1.066-.469.582-.561.99-.525 2.5-.687-.153-1.373-.271-2.028-.473-.424-.129-.634-.513-.719-.945a13.224 13.224 0 0 1-.129-.565v-.872zm16.757-6.111c-.549.085-1.05.149-1.547.246-1.515.299-2.965.792-4.326 1.527-.275.149-.287.287-.105.525a.653.653 0 0 1 .133.392c-.008.202-.081.396-.133.626 1.862-.093 3.736-.186 5.626-.283l.351-3.033zm5.17-.016h-3.962v2.973c1.337-.065 2.641-.133 3.962-.198v-2.775zm1.018.048c.057.121.089.206.129.283.368.695.743 1.389 1.103 2.088.089.174.19.234.384.222.985-.057 1.971-.069 2.952-.158.376-.036.743-.222 1.095-.384.194-.089.254-.295.17-.509-.25-.63-.626-1.131-1.361-1.204-.876-.089-1.753-.178-2.633-.246-.598-.044-1.195-.061-1.838-.093zm.501 2.646c-.238-.452-.456-.86-.675-1.272-.016.004-.032.012-.048.016v1.296c.234-.012.456-.024.723-.04z"/><path fill="#fc3" style="fill:var(--color1,#fc3)" d="M3.3 19.265c.02-1.268 1.042-2.278 2.29-2.262a2.291 2.291 0 0 1 2.266 2.326c-.012 1.216-1.078 2.254-2.298 2.238-1.252-.02-2.278-1.062-2.258-2.302zm1.091.841c.04.012.081.02.117.032l.347-.565c-.21-.028-.424-.053-.634-.081-.008 0-.016.012-.057.048l.226.565zm2.629-.631c-.226 0-.38-.012-.533.004a.28.28 0 0 0-.186.117c-.024.04.02.129.053.182.093.133.198.263.347.46.133-.311.214-.509.319-.763zm-2.27-1.377c-.008.04-.02.077-.028.117l.561.343c.028-.202.052-.408.077-.61 0-.012-.024-.028-.061-.073-.174.069-.363.145-.549.222zm1.03-.25c0 .234-.012.388.004.541.02.19.117.271.283.125.129-.109.238-.242.388-.396-.238-.097-.424-.174-.674-.271zm-1.268.585-.125.028c-.073.198-.149.396-.254.679.303-.061.513-.101.723-.141-.117-.19-.23-.38-.343-.565zm2.197-.092c-.158.194-.263.319-.359.452-.109.153-.105.275.121.291.162.008.327 0 .545 0-.097-.234-.182-.436-.307-.743zm-1.337 2.378c0-.226.008-.38-.004-.533-.004-.061-.04-.145-.089-.17-.044-.024-.133.004-.186.036-.141.097-.275.206-.412.311.024.036.044.069.069.105.19.073.38.149.622.25zm1.038-.258c.02-.032.04-.069.057-.101-.133-.101-.263-.202-.4-.295-.053-.036-.133-.073-.182-.057s-.101.101-.105.158c-.016.162-.004.323-.004.549.246-.101.44-.178.634-.254zM25.326 21.41c-1.24.008-2.282-1.002-2.298-2.229a2.316 2.316 0 0 1 2.27-2.33c1.252-.016 2.278 1.014 2.29 2.302.012 1.224-1.014 2.246-2.262 2.258zm-.844-3.457c-.008.036-.02.073-.028.109l.557.351c.028-.21.061-.42.089-.63 0-.008-.012-.016-.044-.057l-.574.226zm-.606.993c.222 0 .384.016.545-.004.19-.02.254-.125.121-.291-.105-.133-.214-.267-.372-.464-.121.319-.198.513-.295.759zm2.307-.884c-.016-.036-.028-.073-.044-.113l-.626-.254c0 .214-.008.376.004.541.004.061.048.153.089.162.065.016.153-.012.21-.053.129-.081.246-.186.368-.283zm-2.024 1.975c.17-.182.291-.295.392-.424.113-.141.077-.254-.113-.271-.17-.016-.343-.004-.569-.004.101.238.182.436.291.699zm.889.513c.032-.02.069-.04.101-.061-.04-.21-.085-.42-.125-.626-.17.125-.343.246-.513.372-.012.008-.004.036-.008.093.178.073.363.145.545.222zm1.454-2.23c-.04-.008-.081-.02-.121-.028-.113.186-.226.376-.343.561.202.028.404.052.61.077.012 0 .024-.024.069-.073-.065-.166-.141-.351-.214-.537zm.262.97c-.299.052-.513.093-.723.129.121.174.242.347.368.521.008.012.036.008.093.016.073-.186.149-.384.263-.666zm-.634 1.03.024-.105c-.178-.121-.351-.246-.529-.368l-.105.626c0 .012.024.028.061.073l.549-.226z"/></symbol><symbol id="icon-car-coupe" viewBox="0 0 32 32"><path fill="#fc3" style="fill:var(--color1,#fc3)" d="M0 17.344c.125-.372.271-.74.376-1.116.093-.34.287-.586.61-.699.966-.34 1.928-.707 2.918-.97 1.051-.283 2.13-.461 3.193-.687.129-.028.263-.065.384-.121 1.706-.76 3.411-1.524 5.117-2.288 2.086-.934 4.284-1.176 6.544-1.083 2.789.117 5.424.845 7.971 1.936 1.095.469 2.239.748 3.419.913.744.105.845.234.845.99v.622c-.004.432.024.812.303 1.217.542.772.218 2.146-.542 2.696a.642.642 0 0 1-.251.117c-.784.15-1.568.295-2.397.449-.073-1.099-.521-1.964-1.475-2.522a2.768 2.768 0 0 0-1.985-.327c-.756.15-1.362.55-1.807 1.176s-.578 1.342-.505 2.13c-4.794.097-9.559.194-14.329.287.437-2.381-1.366-3.682-2.829-3.654-1.71.032-3.084 1.463-2.841 3.424-.76-.089-1.516-.15-2.191-.513-.17-.093-.251-.388-.331-.606-.089-.243-.133-.501-.194-.752-.004-.206-.004-.412-.004-.618zm17.813-6.221c-2.332.19-4.543.505-6.33 1.916.141.4.251.719.376 1.075 1.673-.048 3.395-.097 5.117-.154.061 0 .158-.077.17-.129.222-.877.437-1.754.667-2.708zm.448 2.733c.145 0 .259.004.368 0 1.265-.04 2.53-.085 3.795-.125.74-.024.744-.016.909-.732a.525.525 0 0 0-.053-.34 6.971 6.971 0 0 0-.493-.792.78.78 0 0 0-.376-.279c-1.144-.34-2.32-.449-3.504-.437-.081 0-.21.113-.234.198-.065.218-.081.449-.117.675-.101.598-.194 1.2-.295 1.831zm7.603-.162c.061-.412-.057-.651-.416-.837-.384-.198-.78-.384-1.176-.562-.327-.15-.659-.283-.99-.42.368.594.76 1.14 1.16 1.677.048.065.145.133.222.137.4.012.804.004 1.2.004z"/><path fill="#fc3" style="fill:var(--color1,#fc3)" d="M25.576 16.899c1.338-.008 2.433 1.099 2.425 2.445-.008 1.281-1.116 2.365-2.417 2.365a2.41 2.41 0 0 1-2.397-2.373 2.401 2.401 0 0 1 2.389-2.437zm-.957 1.197c.198.174.327.299.461.408.158.125.275.069.295-.117.02-.178.004-.36.004-.602-.263.109-.465.19-.76.311zm.763 2.728c0-.251.016-.433-.004-.614-.02-.178-.137-.218-.279-.113-.15.109-.283.238-.481.408.295.125.505.214.764.319zm1.403-2.514c-.158.202-.275.331-.372.477-.04.057-.069.15-.053.21.012.044.105.089.166.093.174.012.348.004.578.004-.105-.251-.19-.465-.319-.784zm.323 1.212c-.23 0-.392-.008-.558.004-.073.004-.17.044-.198.097-.024.053.016.15.057.21.097.145.214.279.368.477l.331-.788zm-2.651-1.139-.133.061-.247.651c.222 0 .388.012.55-.004a.298.298 0 0 0 .19-.105c.024-.04-.012-.133-.044-.186-.097-.145-.21-.279-.315-.416zm-.105 1.847c.178-.17.331-.291.445-.441.105-.141.049-.259-.141-.267-.174-.008-.348 0-.578 0 .093.243.174.449.275.707zm1.447-2.442c0 .238-.012.412.004.586.02.186.117.263.291.129.141-.109.279-.23.42-.344-.016-.036-.036-.069-.053-.105a42.883 42.883 0 0 1-.663-.267zm.655 2.769.036-.109c-.125-.105-.247-.218-.38-.311-.057-.04-.146-.073-.206-.057-.044.012-.093.101-.097.162-.012.17-.004.344-.004.582.251-.105.449-.186.651-.267zM3.172 19.276c.028-1.35 1.124-2.409 2.453-2.373a2.418 2.418 0 0 1 2.356 2.478c-.032 1.289-1.148 2.352-2.445 2.328-1.318-.024-2.389-1.124-2.365-2.433zm1.439-1.168c.19.166.319.307.473.4.057.032.255-.036.263-.081.028-.19.012-.392.012-.651l-.748.331zm-.558.986c.259 0 .437.012.61-.004.182-.02.226-.137.117-.279-.113-.146-.243-.271-.416-.457-.117.279-.202.477-.311.74zm.312 1.168c.178-.198.307-.319.416-.461s.073-.259-.113-.279c-.182-.02-.364-.004-.61-.004.105.259.19.465.307.744zm1.422-2.481c0 .247-.012.412.004.574.008.069.057.162.109.182s.15-.024.206-.065c.133-.097.259-.206.445-.36l-.764-.331zm.999.561c-.17.194-.291.319-.404.457-.129.158-.073.271.113.291.178.02.36.004.598.004-.105-.259-.19-.461-.307-.752zm.307 1.181c-.234 0-.408-.012-.578.004a.274.274 0 0 0-.182.113c-.02.04.016.133.053.182.105.137.226.267.388.457l.319-.756zm-2.474.994c.283.117.493.202.744.303 0-.243.012-.416-.004-.59-.016-.194-.129-.251-.287-.125-.133.109-.255.234-.453.412zm1.924-.004c-.194-.17-.315-.287-.445-.384-.057-.04-.146-.069-.21-.053-.044.012-.089.105-.093.162-.012.174-.004.348-.004.582.251-.101.453-.186.752-.307z"/></symbol><symbol id="icon-car-mini" viewBox="0 0 32 32"><path fill="#fc3" style="fill:var(--color1,#fc3)" d="M32.001 18.961c-.085.284-.175.568-.28.921-.645-2.078-1.965-3.109-4.096-2.756-1.591.264-2.432 1.445-2.699 3.528-5.257.085-10.522.166-15.791.252a3.441 3.441 0 0 0-3.268-3.877c-1.839-.057-3.775 1.587-3.442 3.97H.261c-.252-.93-.28-1.875.012-2.825.483-1.551 1.514-2.578 3.04-3.093 1.433-.483 2.781-1.137 4.12-1.831a234.655 234.655 0 0 1 6.215-3.089c1.303-.629 2.724-.869 4.149-1.047 2.249-.284 4.502-.227 6.755-.053 1.068.081 2.123.239 3.093.755 1.06.564 1.786 1.441 2.391 2.44.252.418.455.861.674 1.299.252.503.284 1.039.199 1.583-.077.471.008.889.231 1.315.321.613.576 1.258.861 1.888v.621zM20.858 9.986c-1.445-.028-2.854.02-4.246.28-1.729.321-3.28 1.088-4.814 1.904-.17.093-.459.735-.365.901.231.43.248.865.073 1.38 2.996-.223 5.943-.438 8.902-.658.154-1.287.3-2.533.451-3.808zm1.887 3.588c.926-.138 1.831-.252 2.724-.41.832-.146 1.344-.702 1.672-1.441.292-.654.13-1.007-.548-1.246-.873-.313-1.786-.378-2.695-.426-.516-.028-1.031-.004-1.567-.004.134 1.141.268 2.306.414 3.528z"/><path fill="#fc3" style="fill:var(--color1,#fc3)" d="M25.622 20.35c.073-1.534 1.303-2.712 2.777-2.651 1.563.065 2.744 1.336 2.663 2.862-.077 1.457-1.36 2.639-2.797 2.578-1.51-.061-2.712-1.327-2.643-2.789zm2.48-1.652c-.296.122-.536.219-.869.353.223.191.382.337.548.471.158.126.288.053.313-.118.028-.207.008-.422.008-.706zm.471-.009c0 .268-.012.455.004.641.008.077.057.183.114.211.061.028.175-.004.235-.049.158-.114.304-.248.52-.43a83.458 83.458 0 0 0-.873-.373zm-1.953 1.498c.264 0 .459.012.649-.008a.296.296 0 0 0 .203-.134c.024-.045-.02-.15-.061-.207-.122-.162-.256-.317-.382-.475-.037.016-.069.032-.106.049l-.304.775zm.361 1.34.451-.536c.126-.15.089-.296-.081-.329-.219-.041-.455-.008-.743-.008.13.309.231.54.373.873zm2.728-2.204c-.195.223-.333.365-.451.52-.041.057-.073.158-.053.215s.114.118.183.122c.199.016.402.004.674.004-.126-.296-.219-.532-.353-.861zm.349 1.331c-.272 0-.475-.008-.674.004-.065.004-.154.065-.179.122s.004.158.045.211c.126.158.272.3.463.511.13-.325.227-.56.345-.848zm-1.485 1.486.84-.349c-.207-.191-.349-.337-.507-.463-.053-.041-.158-.065-.215-.041s-.106.118-.11.187c-.02.195-.008.39-.008.666zm-.475-.008c0-.276.02-.491-.004-.702-.024-.195-.162-.227-.313-.118-.17.126-.329.268-.495.402l.061.11c.231.097.459.191.751.309zM5.818 17.695c1.547.049 2.716 1.279 2.679 2.817-.037 1.461-1.319 2.675-2.777 2.63-1.506-.045-2.704-1.299-2.663-2.777.041-1.514 1.287-2.716 2.76-2.671zm.186.998c0 .28-.008.475.004.67.004.065.061.158.118.183s.158.004.211-.037c.166-.13.317-.28.524-.467a56.18 56.18 0 0 0-.857-.349zm-1.331.362c.215.187.365.329.532.455.053.041.154.065.211.041s.118-.114.122-.179c.016-.203.004-.406.004-.674-.3.122-.544.219-.869.357zm2.525.381c-.037-.024-.073-.049-.11-.069-.138.166-.284.329-.418.499-.118.158-.057.288.122.313.207.028.422.008.702.008-.118-.3-.207-.528-.296-.751zm-3.142.747c.284 0 .479.012.674-.004.191-.012.26-.175.146-.321-.13-.17-.272-.337-.406-.507-.037.02-.069.041-.106.061-.093.235-.191.471-.309.771zm3.016 1.291.11-.049.296-.775c-.268 0-.455-.012-.637.004a.315.315 0 0 0-.207.126c-.028.049.008.154.049.211.126.171.26.325.39.483zm-2.667.037c.191-.215.333-.361.455-.524.041-.053.069-.154.045-.215-.024-.057-.114-.114-.179-.118-.199-.016-.402-.004-.678-.004.122.296.223.532.357.861zm.345.207.037.118c.231.093.467.187.755.3 0-.268.012-.471-.004-.674-.012-.191-.17-.26-.321-.142-.162.126-.313.264-.467.398zm2.009.113c.012-.041.024-.077.041-.118-.154-.134-.309-.272-.467-.398-.15-.118-.309-.053-.321.142-.012.203-.004.406-.004.674l.751-.3z"/></symbol><symbol id="icon-crown" viewBox="0 0 32 32"><path d="M5.2 26.8h21.6v2.7H5.2v-2.7zM28.15 6.55A1.353 1.353 0 0 0 26.8 7.9c0 .154.029.306.086.448.056.138.132.267.225.382l-5.72 4.57-4.733-8.296c.203-.115.374-.279.498-.477.127-.203.194-.438.193-.678a1.353 1.353 0 0 0-1.35-1.35 1.353 1.353 0 0 0-1.35 1.35c-.001.24.066.474.193.678.124.198.295.361.498.477L10.601 13.3 4.886 8.73c.094-.115.17-.244.225-.382a1.21 1.21 0 0 0 .086-.448 1.345 1.345 0 0 0-.834-1.247 1.352 1.352 0 0 0-1.471.292A1.347 1.347 0 0 0 2.6 8.416a1.345 1.345 0 0 0 1.247.833c.019-.001.037-.004.055-.009s.037-.011.055-.014l.62 7.437.62 7.436h21.6l.62-7.436.62-7.437c.018.003.037.007.054.014s.037.009.057.009a1.353 1.353 0 0 0 1.35-1.35 1.353 1.353 0 0 0-1.35-1.35z"/></symbol><symbol id="icon-instagram" viewBox="0 0 32 32"><path d="M15.996 10.664c-2.938 0-5.335 2.398-5.335 5.336s2.398 5.336 5.335 5.336c2.938 0 5.335-2.398 5.335-5.336s-2.398-5.336-5.335-5.336zM31.998 16c0-2.21.02-4.399-.104-6.604-.124-2.562-.708-4.835-2.582-6.709C27.435.81 25.165.229 22.603.105c-2.209-.124-4.399-.104-6.604-.104-2.21 0-4.399-.02-6.604.104C6.833.229 4.56.813 2.687 2.687.81 4.564.229 6.834.105 9.396-.019 11.605.001 13.795.001 16s-.02 4.399.104 6.605c.124 2.562.708 4.835 2.582 6.709 1.877 1.877 4.147 2.458 6.708 2.582 2.209.124 4.399.104 6.604.104 2.209 0 4.399.02 6.604-.104 2.562-.124 4.835-.708 6.709-2.582 1.877-1.877 2.458-4.147 2.582-6.709.128-2.206.104-4.395.104-6.605zm-16.002 8.209c-4.543 0-8.209-3.666-8.209-8.21s3.666-8.21 8.209-8.21c4.543 0 8.209 3.666 8.209 8.21s-3.666 8.21-8.209 8.21zm8.545-14.837c-1.061 0-1.917-.857-1.917-1.917s.857-1.917 1.917-1.917a1.915 1.915 0 0 1 1.772 2.651 1.909 1.909 0 0 1-1.038 1.038 1.906 1.906 0 0 1-.734.145z"/></symbol><symbol id="icon-Arrow-Down" viewBox="0 0 32 32"><path d="m15.292 22.708-10-10A.991.991 0 0 1 4.999 12a1.01 1.01 0 0 1 .293-.708.991.991 0 0 1 .708-.293 1.01 1.01 0 0 1 .708.293L16 20.586l9.293-9.294a1 1 0 1 1 1.414 1.414l-10 10a.991.991 0 0 1-.708.293 1.01 1.01 0 0 1-.708-.293z"/></symbol><symbol id="icon-download" viewBox="0 0 32 32"><path d="M1 19.8a.997.997 0 0 1 1 1v5a2 2 0 0 0 2 2h24a2 2 0 0 0 2-2v-5a.997.997 0 0 1 1-1 .997.997 0 0 1 1 1v5a4.003 4.003 0 0 1-4 4H4a4.003 4.003 0 0 1-4-4v-5a.997.997 0 0 1 1-1z"/><path d="M15.293 23.708a.991.991 0 0 0 .708.293 1.002 1.002 0 0 0 .708-.293l6-6a1 1 0 0 0-.708-1.709 1 1 0 0 0-.708.293l-4.292 4.294V3a.997.997 0 0 0-1-1 1 1 0 0 0-1 1v17.586l-4.292-4.294A1 1 0 0 0 9 17a1 1 0 0 0 .293.708l6 6z"/></symbol><symbol id="icon-Arrow-Fill" viewBox="0 0 32 32"><path fill="#151206" style="fill:var(--color3,#151206)" d="M16 32C7.163 32 0 24.837 0 16S7.163 0 16 0s16 7.163 16 16-7.163 16-16 16z"/><path fill="gold" style="fill:var(--color1,gold)" d="m9.292 15.292 10-10A.991.991 0 0 1 20 4.999a1.006 1.006 0 0 1 .925.618 1.006 1.006 0 0 1-.217 1.091L11.414 16l9.294 9.293a1 1 0 1 1-1.414 1.414l-10-10a.991.991 0 0 1-.293-.708 1.01 1.01 0 0 1 .293-.708z"/></symbol><symbol id="icon-Arrow-Left" viewBox="0 0 32 32"><path d="m9.292 15.292 10-10A.991.991 0 0 1 20 4.999a1.006 1.006 0 0 1 .925.618 1.006 1.006 0 0 1-.217 1.091L11.414 16l9.294 9.293a1 1 0 1 1-1.414 1.414l-10-10a.991.991 0 0 1-.293-.708 1.01 1.01 0 0 1 .293-.708z"/></symbol><symbol id="icon-Arrow-Right" viewBox="0 0 32 32"><path d="m22.708 16.708-10 10a.991.991 0 0 1-.708.293 1.01 1.01 0 0 1-.708-.293.991.991 0 0 1-.293-.708 1.006 1.006 0 0 1 .293-.708l9.294-9.293-9.294-9.293a1 1 0 1 1 1.414-1.414l10 10a.991.991 0 0 1 .293.708 1.006 1.006 0 0 1-.293.708z"/></symbol><symbol id="icon-Arrow-Up" viewBox="0 0 32 32"><path d="m16.708 9.292 10 10a.991.991 0 0 1 .293.708 1.006 1.006 0 0 1-.618.925 1.006 1.006 0 0 1-1.091-.217l-9.293-9.294-9.293 9.294a1 1 0 1 1-1.414-1.414l10-10A.991.991 0 0 1 16 9.001a1.006 1.006 0 0 1 .708.293z"/></symbol><symbol id="icon-burger" viewBox="0 0 32 32"><path fill="#fff" style="fill:var(--color2,#fff)" d="M4 5.334h24v2.667H4V5.334zm8 9.333h16v2.667H12v-2.667zm-8 9.334h24v2.667H4v-2.667z"/></symbol><symbol id="icon-Call-Fill" viewBox="0 0 32 32"><path fill="#fff" style="fill:var(--color2,#fff)" d="M16 0c8.837 0 16 7.163 16 16s-7.163 16-16 16S0 24.837 0 16 7.163 0 16 0z"/><path style="fill:var(--color4,#000)" d="M21.999 18.947v2.357a.668.668 0 0 1-.62.665c-.291.02-.529.031-.713.031C14.775 22 10 17.225 10 11.333c0-.184.01-.422.031-.713a.67.67 0 0 1 .665-.62h2.357c.083 0 .162.031.224.086s.1.132.108.214a9.283 9.283 0 0 0 .848 3.035.304.304 0 0 1-.098.378l-1.439 1.028a8.7 8.7 0 0 0 4.562 4.563l1.027-1.436a.305.305 0 0 1 .382-.099 9.251 9.251 0 0 0 3.033.846.33.33 0 0 1 .298.332z"/></symbol><symbol id="icon-Call" viewBox="0 0 32 32"><path d="M28 21.893v4.715a1.335 1.335 0 0 1-1.24 1.331c-.583.04-1.059.061-1.427.061C13.55 28 4 18.449 4 6.667c0-.368.02-.844.061-1.427A1.334 1.334 0 0 1 5.392 4h4.715a.67.67 0 0 1 .664.6c.031.307.059.551.085.736a18.53 18.53 0 0 0 1.611 5.335.607.607 0 0 1-.196.756l-2.877 2.056a17.395 17.395 0 0 0 9.125 9.125l2.053-2.872a.62.62 0 0 1 .764-.199 18.551 18.551 0 0 0 5.333 1.607c.185.027.429.055.733.085a.665.665 0 0 1 .597.664z"/></symbol><symbol id="icon-Clean" viewBox="0 0 32 32"><path d="m25.333 0-1.926 6.836-3.852 2.012 3.852 2.011 1.926 6.032 1.926-6.033 3.852-2.011-3.852-2.01L25.333 0zM12.444 5.334l-.889 3.556-2.667.889 2.667.889.889 3.556.889-3.556L16 9.779l-2.667-.889-.889-3.556zM0 21.336a.887.887 0 0 1 .889-.889h2.667a.887.887 0 0 1 .889.889v9.775a.887.887 0 0 1-.889.889H.889A.887.887 0 0 1 0 31.111v-9.775zm10.404-.721c.829-.378 2.853 0 2.853 0l5.89 1.321s1.473.472 2.853.472.555 1.89-.369 2.55c-.923.66-1.595.624-1.595.624l-4.756-.058s4.142.756 5.707.85c.792.048 2.151-.51 3.671-1.134 1.48-.608 3.111-1.277 4.519-1.51 2.853-.471 3.314 2.078 2.393 3.022s-8.283 4.531-9.571 5.003c-1.01.37-2.23.247-3.607.108-.381-.038-.775-.078-1.179-.108-1.609-.122-2.837-.513-4.053-.9-1.305-.414-2.595-.824-4.322-.894-.58-.023-1.936.049-2.618.089v-7.878c1.179-.42 3.565-1.276 4.182-1.557z"/></symbol><symbol id="icon-Close" viewBox="0 0 32 32"><path fill="#fff" style="fill:var(--color2,#fff)" d="M25.708 24.293a.991.991 0 0 1 .293.708 1.006 1.006 0 0 1-.618.925 1.006 1.006 0 0 1-1.091-.217l-8.293-8.294-8.293 8.294a1 1 0 1 1-1.414-1.414l8.294-8.293-8.294-8.293a1 1 0 1 1 1.414-1.414l8.293 8.294 8.293-8.294a1 1 0 1 1 1.414 1.414l-8.294 8.293 8.294 8.293z"/></symbol><symbol id="icon-copy" viewBox="0 0 32 32"><path fill="#fff" style="fill:var(--color2,#fff)" d="M20.32 2.666h-5.192c-2.352 0-4.216 0-5.673.197-1.501.203-2.716.629-3.673 1.591-.959.961-1.384 2.181-1.585 3.688-.196 1.464-.196 3.335-.196 5.696v7.784a4.822 4.822 0 0 0 2.969 4.456c-.089-1.213-.089-2.913-.089-4.329v-6.68c0-1.708 0-3.181.157-4.36.169-1.264.551-2.475 1.529-3.457s2.185-1.365 3.444-1.536c1.173-.157 2.64-.157 4.343-.157h4.093c1.701 0 3.165 0 4.34.157a4.8 4.8 0 0 0-4.466-3.049z"/><path fill="#fff" style="fill:var(--color2,#fff)" d="M8.801 15.195c0-3.635 0-5.452 1.125-6.581 1.124-1.129 2.933-1.129 6.555-1.129h3.84c3.62 0 5.431 0 6.556 1.129 1.124 1.129 1.124 2.947 1.124 6.581v6.427c0 3.635 0 5.452-1.124 6.581-1.125 1.129-2.936 1.129-6.556 1.129h-3.84c-3.62 0-5.431 0-6.555-1.129-1.125-1.129-1.125-2.947-1.125-6.581v-6.427z"/></symbol><symbol id="icon-Default" viewBox="0 0 32 32"><path d="M28 16a.997.997 0 0 1-1 1H17v10a.997.997 0 0 1-1 1 .997.997 0 0 1-1-1V17H5a.997.997 0 0 1-1-1 .997.997 0 0 1 1-1h10V5a.997.997 0 0 1 1-1 .997.997 0 0 1 1 1v10h10a.997.997 0 0 1 1 1z"/></symbol><symbol id="icon-crown" viewBox="0 0 32 32"><path d="M5.2 26.8h21.6v2.7H5.2v-2.7zM28.15 6.55A1.353 1.353 0 0 0 26.8 7.9c0 .154.029.306.086.448.056.138.132.267.225.382l-5.72 4.57-4.733-8.296c.203-.115.374-.279.498-.477.127-.203.194-.438.193-.678a1.353 1.353 0 0 0-1.35-1.35 1.353 1.353 0 0 0-1.35 1.35c-.001.24.066.474.193.678.124.198.295.361.498.477L10.601 13.3 4.886 8.73c.094-.115.17-.244.225-.382a1.21 1.21 0 0 0 .086-.448 1.345 1.345 0 0 0-.834-1.247 1.352 1.352 0 0 0-1.471.292A1.347 1.347 0 0 0 2.6 8.416a1.345 1.345 0 0 0 1.247.833c.019-.001.037-.004.055-.009s.037-.011.055-.014l.62 7.437.62 7.436h21.6l.62-7.436.62-7.437c.018.003.037.007.054.014s.037.009.057.009a1.353 1.353 0 0 0 1.35-1.35 1.353 1.353 0 0 0-1.35-1.35z"/></symbol><symbol id="icon-facebook" viewBox="0 0 32 32"><path d="M31.999 16.097c0-8.892-7.164-16.1-16-16.1C7.159-.001-.005 7.205-.005 16.099c0 8.034 5.852 14.694 13.5 15.902v-11.25h-4.06v-4.652h4.064v-3.55c0-4.034 2.39-6.262 6.044-6.262 1.752 0 3.582.314 3.582.314v3.96h-2.018c-1.986 0-2.606 1.242-2.606 2.516v3.02h4.436l-.708 4.652h-3.73v11.25c7.648-1.208 13.5-7.868 13.5-15.902z"/></symbol><symbol id="icon-Gamepad" viewBox="0 0 32 32"><path d="m14.224 8.178-.669-.473a5.653 5.653 0 0 0-3.267-1.039h-.816c-.54 0-1.084.033-1.592.213-3.177 1.128-5.363 5.247-5.204 14.591.032 1.883.472 3.963 2.171 4.775a4.248 4.248 0 0 0 1.857.421 3.649 3.649 0 0 0 2.04-.583c.547-.357 1.027-.821 1.507-1.285.592-.573 1.184-1.147 1.899-1.517a5.473 5.473 0 0 1 2.52-.615h2.665c.877 0 1.741.211 2.52.613.715.372 1.307.945 1.9 1.519.48.464.96.928 1.504 1.285.52.341 1.193.583 2.041.583a4.276 4.276 0 0 0 1.857-.421c1.699-.812 2.139-2.893 2.171-4.775.159-9.344-2.027-13.463-5.204-14.589-.509-.181-1.056-.215-1.593-.215h-.816c-1.17 0-2.312.364-3.267 1.04l-.669.472a3.076 3.076 0 0 1-3.554 0zm8.111 3.821a.997.997 0 0 1 1 1 .997.997 0 0 1-1 1 .997.997 0 0 1-1-1 .997.997 0 0 1 1-1zm-12.334.334a.997.997 0 0 1 1 1v1h1a.997.997 0 0 1 1 1 .997.997 0 0 1-1 1h-1v1a.997.997 0 0 1-1 1 .997.997 0 0 1-1-1v-1h-1a.997.997 0 0 1-1-1 .997.997 0 0 1 1-1h1v-1a.997.997 0 0 1 1-1zm15.334 2.666a.997.997 0 0 1-1 1 .997.997 0 0 1-1-1 .997.997 0 0 1 1-1 .997.997 0 0 1 1 1zm-5 1a.997.997 0 0 0 1-1 .997.997 0 0 0-1-1 .997.997 0 0 0-1 1 .997.997 0 0 0 1 1zm3 1a.997.997 0 0 0-1-1 .997.997 0 0 0-1 1 .997.997 0 0 0 1 1 .997.997 0 0 0 1-1z"/></symbol><symbol id="icon-Hot" viewBox="0 0 32 32"><path d="M22 10.668c0 2-.667 4.667-3.867 5.733.933-2.267 1.067-4.533.4-6.667-.933-2.8-4-4.933-6.133-6.133-.533-.4-1.467.133-1.333.933 0 1.467-.4 3.6-2.667 5.867-2.933 2.933-4.4 6-4.4 8.933 0 3.867 2.667 8.667 8 8.667-5.333-5.333-1.333-10-1.333-10 1.067 7.867 6.667 10 9.333 10 2.267 0 6.667-1.6 6.667-8.533 0-4.133-1.733-7.333-3.2-9.2-.4-.667-1.333-.267-1.467.4z"/></symbol><symbol id="icon-Arrow-fill-left" viewBox="0 0 32 32"><path fill="#151206" style="fill:var(--color3,#151206)" d="M16 0c8.837 0 16 7.163 16 16s-7.163 16-16 16S0 24.837 0 16 7.163 0 16 0z"/><path fill="gold" style="fill:var(--color1,gold)" d="m22.708 16.708-10 10a.991.991 0 0 1-.708.293 1.01 1.01 0 0 1-.708-.293.991.991 0 0 1-.293-.708 1.006 1.006 0 0 1 .293-.708l9.294-9.293-9.294-9.293a1 1 0 1 1 1.414-1.414l10 10a.991.991 0 0 1 .293.708 1.006 1.006 0 0 1-.293.708z"/></symbol><symbol id="icon-car" viewBox="0 0 32 32"><path d="M30 14h-3.586L21 8.586A1.977 1.977 0 0 0 19.586 8H5.535a2.003 2.003 0 0 0-1.66.89L.167 14.445A1.016 1.016 0 0 0-.001 15v6a2 2 0 0 0 2 2h2.125a3.997 3.997 0 0 0 6.328 2.168A3.992 3.992 0 0 0 11.874 23h8.25a3.997 3.997 0 0 0 6.328 2.168A3.992 3.992 0 0 0 27.874 23h2.125a2 2 0 0 0 2-2v-5a2 2 0 0 0-2-2zM5.535 10h14.051l4 4H2.875l2.66-4zM8 24a1.997 1.997 0 0 1-1.848-1.235 2.006 2.006 0 0 1 .433-2.18 1.997 1.997 0 0 1 2.18-.433A2.003 2.003 0 0 1 10 22a2 2 0 0 1-2 2zm16 0a1.997 1.997 0 0 1-1.848-1.235 2.006 2.006 0 0 1 .433-2.18 1.997 1.997 0 0 1 2.18-.433A2.003 2.003 0 0 1 26 22a2 2 0 0 1-2 2z"/></symbol><symbol id="icon-share" viewBox="0 0 32 32"><path fill="#fff" style="fill:var(--color2,#fff)" d="M23.5 10.999H17v9.062a.997.997 0 0 1-1 1 .997.997 0 0 1-1-1v-9.063H8.5a3.504 3.504 0 0 0-3.5 3.5v12a3.504 3.504 0 0 0 3.5 3.5h15a3.504 3.504 0 0 0 3.5-3.5v-12a3.504 3.504 0 0 0-3.5-3.5zM17 5.414l3.293 3.293a1 1 0 0 0 1.414-1.414l-5-5a1.003 1.003 0 0 0-1.414 0l-5 5a1 1 0 0 0 1.414 1.414L15 5.414V11h2V5.414z"/></symbol><symbol id="icon-Spray" viewBox="0 0 32 32"><path d="M5.813 1.938v5.813h7.75V1.938A1.936 1.936 0 0 0 11.625 0H7.75a1.936 1.936 0 0 0-1.938 1.938zm0 7.75A5.815 5.815 0 0 0 0 15.501v12.594a2.907 2.907 0 0 0 2.906 2.906h13.563a2.907 2.907 0 0 0 2.906-2.906V15.501a5.815 5.815 0 0 0-5.813-5.813h-7.75zM9.688 15.5a4.846 4.846 0 0 1 3.425 8.269 4.846 4.846 0 0 1-6.85 0 4.846 4.846 0 0 1 0-6.85A4.846 4.846 0 0 1 9.688 15.5zM23.25 2.906a.266.266 0 0 0-.133-.218l-1.804-.751-.751-1.804C20.526.06 20.429 0 20.344 0s-.182.061-.218.133l-.751 1.804-1.804.751c-.073.036-.133.133-.133.218s.061.182.133.218l1.804.751.751 1.804c.036.073.133.133.218.133s.182-.061.218-.133l.751-1.804 1.804-.751a.264.264 0 0 0 .133-.218zm4.626 2.773c.036.073.133.133.218.133s.182-.061.218-.133l.751-1.804 1.804-.751c.073-.036.133-.133.133-.218s-.061-.182-.133-.218l-1.804-.751-.751-1.804C28.276.06 28.179 0 28.094 0s-.182.061-.218.133l-.751 1.804-1.804.751c-.073.036-.133.133-.133.218s.061.182.133.218l1.804.751.751 1.804zm.436 6.079c-.036-.073-.133-.133-.218-.133s-.182.06-.218.133l-.751 1.804-1.804.751c-.073.036-.133.133-.133.218s.061.182.133.218l1.804.751.751 1.804c.036.073.133.133.218.133s.182-.061.218-.133l.751-1.804 1.804-.751c.073-.036.133-.133.133-.218s-.061-.182-.133-.218l-1.804-.751-.751-1.804zm-1.187-3.039a.266.266 0 0 0-.133-.218l-1.804-.751-.751-1.804c-.036-.073-.133-.133-.218-.133s-.182.061-.218.133L23.25 7.75l-1.804.751c-.073.036-.133.133-.133.218s.061.182.133.218l1.804.751.751 1.804c.036.073.133.133.218.133s.182-.06.218-.133l.751-1.804 1.804-.751a.264.264 0 0 0 .133-.218z"/></symbol><symbol id="icon-Star" viewBox="0 0 32 32"><path fill="gold" style="fill:var(--color1,gold)" d="M16 23.027 24.24 28l-2.187-9.373 7.28-6.307-9.587-.813-3.747-8.84-3.747 8.84-9.587.813 7.28 6.307L7.758 28l8.24-4.973z"/></symbol><symbol id="icon-stars" viewBox="0 0 32 32"><path d="M0 20.031c1.08-.05 1.994-.469 2.741-1.257s1.13-1.727 1.13-2.816c0 1.09.366 2.028 1.113 2.816s1.661 1.207 2.741 1.257a3.896 3.896 0 0 0-2.741 1.257 3.931 3.931 0 0 0-1.113 2.816c0-1.09-.366-2.028-1.13-2.816C1.993 20.5 1.08 20.081 0 20.031zM3.871 7.962c2.093-.101 3.871-.922 5.333-2.464S11.397 2.129 11.397 0c0 2.129.731 3.956 2.193 5.498s3.24 2.347 5.35 2.464a7.658 7.658 0 0 0-3.805 1.19 8.027 8.027 0 0 0-2.741 2.9 7.935 7.935 0 0 0-.997 3.906c0-2.129-.731-3.973-2.193-5.515-1.462-1.559-3.24-2.38-5.333-2.481zm5.516 18.054c1.578-.067 2.924-.687 4.021-1.844s1.645-2.531 1.645-4.14c0 1.609.548 2.984 1.645 4.14s2.426 1.777 4.004 1.844c-1.578.067-2.908.687-4.004 1.844s-1.645 2.531-1.645 4.14c0-1.609-.548-2.984-1.645-4.14a5.797 5.797 0 0 0-4.021-1.844zm11.315-7.946c1.578-.067 2.908-.687 4.004-1.844s1.628-2.531 1.628-4.157c0 1.609.548 2.984 1.645 4.14s2.442 1.777 4.021 1.844c-1.578.067-2.924.687-4.021 1.844s-1.645 2.531-1.645 4.14c0-1.609-.548-2.984-1.628-4.14-1.097-1.14-2.426-1.76-4.004-1.827z"/></symbol><symbol id="icon-telega" viewBox="0 0 32 32"><path d="M32 16a15.997 15.997 0 0 1-16 16A16.003 16.003 0 0 1 0 16 16.003 16.003 0 0 1 16 0a16.003 16.003 0 0 1 16 16zm-15.426-4.188c-1.556.648-4.668 1.988-9.332 4.02-.756.3-1.154.596-1.19.884-.06.486.55.678 1.38.94l.35.11c.816.266 1.916.576 2.486.588.52.012 1.098-.2 1.736-.64 4.358-2.942 6.608-4.428 6.748-4.46.1-.024.24-.052.332.032.094.082.084.24.074.282-.06.258-2.454 2.482-3.692 3.634-.386.36-.66.614-.716.672-.123.126-.249.25-.376.372-.76.732-1.328 1.28.03 2.176.654.432 1.178.786 1.7 1.142.568.388 1.136.774 1.872 1.258.186.12.366.25.54.374.662.472 1.26.896 1.994.828.428-.04.87-.44 1.094-1.64.53-2.834 1.572-8.972 1.812-11.502.015-.21.006-.422-.026-.63a.674.674 0 0 0-.228-.434 1.047 1.047 0 0 0-.62-.186c-.6.01-1.526.332-5.968 2.18z"/></symbol></defs></svg>