<svg xmlns="http://www.w3.org/2000/svg" width="2000" height="2000"><defs><clipPath id="clip-path-dot-color"><path d="M100 748h72v72h-72zM100 820h72v72h-72zM100 892h72v72h-72zM100 964h72v72h-72zM100 1252h72v72h-72zM172 676h72v72h-72zM172 748h72v72h-72zM172 820h72v72h-72zM172 1036h72v72h-72zM172 1180h72v72h-72zM244 748h72v72h-72zM244 892h72v72h-72zM244 1108h72v72h-72zM244 1252h72v72h-72zM316 676h72v72h-72zM316 748h72v72h-72zM316 820h72v72h-72zM316 964h72v72h-72zM316 1036h72v72h-72zM316 1108h72v72h-72zM388 892h72v72h-72zM388 1036h72v72h-72zM460 676h72v72h-72zM460 748h72v72h-72zM460 1036h72v72h-72zM460 1108h72v72h-72zM460 1180h72v72h-72zM460 1252h72v72h-72zM532 676h72v72h-72zM532 820h72v72h-72zM532 964h72v72h-72zM532 1108h72v72h-72zM532 1252h72v72h-72zM604 748h72v72h-72zM604 820h72v72h-72zM604 892h72v72h-72zM604 1108h72v72h-72zM604 1180h72v72h-72zM676 100h72v72h-72zM676 172h72v72h-72zM676 244h72v72h-72zM676 316h72v72h-72zM676 388h72v72h-72zM676 532h72v72h-72zM676 604h72v72h-72zM676 676h72v72h-72zM676 748h72v72h-72zM676 964h72v72h-72zM676 1036h72v72h-72zM676 1108h72v72h-72zM676 1252h72v72h-72zM676 1324h72v72h-72zM676 1468h72v72h-72zM676 1612h72v72h-72zM676 1756h72v72h-72zM748 100h72v72h-72zM748 316h72v72h-72zM748 460h72v72h-72zM748 892h72v72h-72zM748 1036h72v72h-72zM748 1252h72v72h-72zM748 1324h72v72h-72zM748 1468h72v72h-72zM748 1756h72v72h-72zM820 316h72v72h-72zM820 388h72v72h-72zM820 460h72v72h-72zM820 532h72v72h-72zM820 820h72v72h-72zM820 964h72v72h-72zM820 1108h72v72h-72zM820 1180h72v72h-72zM820 1324h72v72h-72zM820 1396h72v72h-72zM820 1468h72v72h-72zM820 1540h72v72h-72zM820 1612h72v72h-72zM820 1756h72v72h-72zM820 1828h72v72h-72zM892 100h72v72h-72zM892 460h72v72h-72zM892 676h72v72h-72zM892 892h72v72h-72zM892 964h72v72h-72zM892 1108h72v72h-72zM892 1252h72v72h-72zM892 1324h72v72h-72zM892 1468h72v72h-72zM892 1828h72v72h-72zM964 100h72v72h-72zM964 244h72v72h-72zM964 316h72v72h-72zM964 532h72v72h-72zM964 604h72v72h-72zM964 748h72v72h-72zM964 820h72v72h-72zM964 1036h72v72h-72zM964 1180h72v72h-72zM964 1324h72v72h-72zM964 1396h72v72h-72zM964 1468h72v72h-72zM964 1540h72v72h-72zM964 1684h72v72h-72zM964 1756h72v72h-72zM964 1828h72v72h-72zM1036 100h72v72h-72zM1036 244h72v72h-72zM1036 316h72v72h-72zM1036 388h72v72h-72zM1036 748h72v72h-72zM1036 892h72v72h-72zM1036 1036h72v72h-72zM1036 1252h72v72h-72zM1036 1324h72v72h-72zM1036 1468h72v72h-72zM1036 1612h72v72h-72zM1036 1756h72v72h-72zM1108 100h72v72h-72zM1108 388h72v72h-72zM1108 532h72v72h-72zM1108 676h72v72h-72zM1108 748h72v72h-72zM1108 820h72v72h-72zM1108 964h72v72h-72zM1108 1036h72v72h-72zM1108 1108h72v72h-72zM1108 1180h72v72h-72zM1108 1324h72v72h-72zM1108 1396h72v72h-72zM1108 1468h72v72h-72zM1108 1540h72v72h-72zM1108 1612h72v72h-72zM1108 1756h72v72h-72zM1108 1828h72v72h-72zM1180 100h72v72h-72zM1180 244h72v72h-72zM1180 316h72v72h-72zM1180 388h72v72h-72zM1180 820h72v72h-72zM1180 892h72v72h-72zM1180 964h72v72h-72zM1180 1108h72v72h-72zM1180 1324h72v72h-72zM1180 1468h72v72h-72zM1180 1540h72v72h-72zM1180 1828h72v72h-72zM1252 100h72v72h-72zM1252 244h72v72h-72zM1252 460h72v72h-72zM1252 532h72v72h-72zM1252 604h72v72h-72zM1252 676h72v72h-72zM1252 892h72v72h-72zM1252 1036h72v72h-72zM1252 1108h72v72h-72zM1252 1180h72v72h-72zM1252 1252h72v72h-72zM1252 1324h72v72h-72zM1252 1396h72v72h-72zM1252 1468h72v72h-72zM1252 1540h72v72h-72zM1252 1684h72v72h-72zM1324 676h72v72h-72zM1324 1036h72v72h-72zM1324 1252h72v72h-72zM1324 1540h72v72h-72zM1324 1612h72v72h-72zM1396 676h72v72h-72zM1396 820h72v72h-72zM1396 964h72v72h-72zM1396 1252h72v72h-72zM1396 1396h72v72h-72zM1396 1540h72v72h-72zM1396 1684h72v72h-72zM1396 1756h72v72h-72zM1396 1828h72v72h-72zM1468 820h72v72h-72zM1468 892h72v72h-72zM1468 964h72v72h-72zM1468 1252h72v72h-72zM1468 1540h72v72h-72zM1468 1612h72v72h-72zM1468 1756h72v72h-72zM1540 676h72v72h-72zM1540 748h72v72h-72zM1540 820h72v72h-72zM1540 1108h72v72h-72zM1540 1180h72v72h-72zM1540 1252h72v72h-72zM1540 1324h72v72h-72zM1540 1396h72v72h-72zM1540 1468h72v72h-72zM1540 1540h72v72h-72zM1540 1684h72v72h-72zM1540 1756h72v72h-72zM1612 676h72v72h-72zM1612 892h72v72h-72zM1612 964h72v72h-72zM1612 1108h72v72h-72zM1612 1396h72v72h-72zM1612 1540h72v72h-72zM1612 1612h72v72h-72zM1612 1684h72v72h-72zM1612 1756h72v72h-72zM1612 1828h72v72h-72zM1684 676h72v72h-72zM1684 748h72v72h-72zM1684 1180h72v72h-72zM1684 1612h72v72h-72zM1684 1684h72v72h-72zM1684 1828h72v72h-72zM1756 676h72v72h-72zM1756 748h72v72h-72zM1756 820h72v72h-72zM1756 964h72v72h-72zM1756 1108h72v72h-72zM1756 1252h72v72h-72zM1756 1324h72v72h-72zM1756 1468h72v72h-72zM1756 1540h72v72h-72zM1756 1612h72v72h-72zM1756 1828h72v72h-72zM1828 676h72v72h-72zM1828 964h72v72h-72zM1828 1108h72v72h-72zM1828 1468h72v72h-72zM1828 1540h72v72h-72zM1828 1612h72v72h-72zM1828 1684h72v72h-72zM1828 1756h72v72h-72zM1828 1828h72v72h-72z"/></clipPath><clipPath id="clip-path-corners-square-color-0-0"><path d="M100 100h72v72h-72zM100 172h72v72h-72zM100 244h72v72h-72zM100 316h72v72h-72zM100 388h72v72h-72zM100 460h72v72h-72zM100 532h72v72h-72zM172 100h72v72h-72zM172 532h72v72h-72zM244 100h72v72h-72zM244 532h72v72h-72zM316 100h72v72h-72zM316 532h72v72h-72zM388 100h72v72h-72zM388 532h72v72h-72zM460 100h72v72h-72zM460 532h72v72h-72zM532 100h72v72h-72zM532 172h72v72h-72zM532 244h72v72h-72zM532 316h72v72h-72zM532 388h72v72h-72zM532 460h72v72h-72zM532 532h72v72h-72z"/></clipPath><clipPath id="clip-path-corners-dot-color-0-0"><path d="M244 244h72v72h-72zM244 316h72v72h-72zM244 388h72v72h-72zM316 244h72v72h-72zM316 316h72v72h-72zM316 388h72v72h-72zM388 244h72v72h-72zM388 316h72v72h-72zM388 388h72v72h-72z"/></clipPath><clipPath id="clip-path-corners-square-color-1-0"><path d="M1396 100h72v72h-72zM1396 172h72v72h-72zM1396 244h72v72h-72zM1396 316h72v72h-72zM1396 388h72v72h-72zM1396 460h72v72h-72zM1396 532h72v72h-72zM1468 100h72v72h-72zM1468 532h72v72h-72zM1540 100h72v72h-72zM1540 532h72v72h-72zM1612 100h72v72h-72zM1612 532h72v72h-72zM1684 100h72v72h-72zM1684 532h72v72h-72zM1756 100h72v72h-72zM1756 532h72v72h-72zM1828 100h72v72h-72zM1828 172h72v72h-72zM1828 244h72v72h-72zM1828 316h72v72h-72zM1828 388h72v72h-72zM1828 460h72v72h-72zM1828 532h72v72h-72z"/></clipPath><clipPath id="clip-path-corners-dot-color-1-0"><path d="M1540 244h72v72h-72zM1540 316h72v72h-72zM1540 388h72v72h-72zM1612 244h72v72h-72zM1612 316h72v72h-72zM1612 388h72v72h-72zM1684 244h72v72h-72zM1684 316h72v72h-72zM1684 388h72v72h-72z"/></clipPath><clipPath id="clip-path-corners-square-color-0-1"><path d="M100 1396h72v72h-72zM100 1468h72v72h-72zM100 1540h72v72h-72zM100 1612h72v72h-72zM100 1684h72v72h-72zM100 1756h72v72h-72zM100 1828h72v72h-72zM172 1396h72v72h-72zM172 1828h72v72h-72zM244 1396h72v72h-72zM244 1828h72v72h-72zM316 1396h72v72h-72zM316 1828h72v72h-72zM388 1396h72v72h-72zM388 1828h72v72h-72zM460 1396h72v72h-72zM460 1828h72v72h-72zM532 1396h72v72h-72zM532 1468h72v72h-72zM532 1540h72v72h-72zM532 1612h72v72h-72zM532 1684h72v72h-72zM532 1756h72v72h-72zM532 1828h72v72h-72z"/></clipPath><clipPath id="clip-path-corners-dot-color-0-1"><path d="M244 1540h72v72h-72zM244 1612h72v72h-72zM244 1684h72v72h-72zM316 1540h72v72h-72zM316 1612h72v72h-72zM316 1684h72v72h-72zM388 1540h72v72h-72zM388 1612h72v72h-72zM388 1684h72v72h-72z"/></clipPath></defs><path clip-path="url('#clip-path-background-color')" fill="#fff" d="M0 0h2000v2000H0z"/><path clip-path="url('#clip-path-dot-color')" d="M100 100h1800v1800H100z"/><path clip-path="url('#clip-path-corners-square-color-0-0')" d="M100 100h504v504H100z"/><path clip-path="url('#clip-path-corners-dot-color-0-0')" d="M244 244h216v216H244z"/><path clip-path="url('#clip-path-corners-square-color-1-0')" d="M1396 100h504v504h-504z"/><path clip-path="url('#clip-path-corners-dot-color-1-0')" d="M1540 244h216v216h-216z"/><path clip-path="url('#clip-path-corners-square-color-0-1')" d="M100 1396h504v504H100z"/><path clip-path="url('#clip-path-corners-dot-color-0-1')" d="M244 1540h216v216H244z"/></svg>