<svg aria-hidden="true" style="position: absolute; width: 0; height: 0; overflow: hidden;" version="1.1" xmlns="http://www.w3.org/2000/svg" xmlns:xlink="http://www.w3.org/1999/xlink">
<defs>
<symbol id="icon-5starts" viewBox="0 0 160 32">
<path fill="#ffd700" style="fill: var(--color1, #ffd700)" d="M16 23.027l8.24 4.973-2.187-9.373 7.28-6.307-9.587-0.813-3.747-8.84-3.747 8.84-9.587 0.813 7.28 6.307-2.187 9.373 8.24-4.973z"></path>
<path fill="#ffd700" style="fill: var(--color1, #ffd700)" d="M48 23.027l8.24 4.973-2.187-9.373 7.28-6.307-9.587-0.813-3.747-8.84-3.747 8.84-9.587 0.813 7.28 6.307-2.187 9.373 8.24-4.973z"></path>
<path fill="#ffd700" style="fill: var(--color1, #ffd700)" d="M80 23.027l8.24 4.973-2.187-9.373 7.28-6.307-9.587-0.813-3.747-8.84-3.747 8.84-9.587 0.813 7.28 6.307-2.187 9.373 8.24-4.973z"></path>
<path fill="#ffd700" style="fill: var(--color1, #ffd700)" d="M112 23.027l8.24 4.973-2.187-9.373 7.28-6.307-9.587-0.813-3.747-8.84-3.747 8.84-9.587 0.813 7.28 6.307-2.187 9.373 8.24-4.973z"></path>
<path fill="#ffd700" style="fill: var(--color1, #ffd700)" d="M144 23.027l8.24 4.973-2.187-9.373 7.28-6.307-9.587-0.813-3.747-8.84-3.747 8.84-9.587 0.813 7.28 6.307-2.187 9.373 8.24-4.973z"></path>
</symbol>
<symbol id="icon-crown" viewBox="0 0 32 32">
<path d="M5.2 26.8h21.6v2.7h-21.6v-2.7zM28.15 6.55c-0.358 0-0.701 0.142-0.955 0.395s-0.395 0.597-0.395 0.955c0 0.154 0.029 0.306 0.086 0.448 0.056 0.138 0.132 0.267 0.225 0.382l-5.72 4.57-4.733-8.296c0.203-0.115 0.374-0.279 0.498-0.477 0.127-0.203 0.194-0.438 0.193-0.678 0-0.358-0.142-0.701-0.395-0.955s-0.597-0.395-0.955-0.395-0.701 0.142-0.955 0.395c-0.253 0.253-0.395 0.597-0.395 0.955-0.001 0.24 0.066 0.474 0.193 0.678 0.124 0.198 0.295 0.361 0.498 0.477l-4.739 8.296-5.715-4.57c0.094-0.115 0.17-0.244 0.225-0.382 0.057-0.143 0.086-0.295 0.086-0.448 0-0.267-0.079-0.528-0.228-0.75s-0.359-0.395-0.606-0.497c-0.247-0.102-0.518-0.129-0.78-0.077s-0.502 0.181-0.691 0.369c-0.189 0.189-0.317 0.429-0.369 0.691s-0.025 0.533 0.077 0.78c0.102 0.247 0.275 0.458 0.497 0.606s0.483 0.227 0.75 0.227c0.019-0.001 0.037-0.004 0.055-0.009s0.037-0.011 0.055-0.014l0.62 7.437 0.62 7.436h21.6l0.62-7.436 0.62-7.437c0.018 0.003 0.037 0.007 0.054 0.014s0.037 0.009 0.057 0.009c0.358 0 0.701-0.142 0.955-0.395s0.395-0.597 0.395-0.955-0.142-0.701-0.395-0.955c-0.253-0.253-0.597-0.395-0.955-0.395z"></path>
</symbol>
<symbol id="icon-instagram" viewBox="0 0 32 32">
<path  d="M15.996 10.664c-2.938 0-5.335 2.398-5.335 5.336s2.398 5.336 5.335 5.336c2.938 0 5.335-2.398 5.335-5.336s-2.398-5.336-5.335-5.336zM31.998 16c0-2.21 0.020-4.399-0.104-6.604-0.124-2.562-0.708-4.835-2.582-6.709-1.877-1.877-4.147-2.458-6.709-2.582-2.209-0.124-4.399-0.104-6.604-0.104-2.21 0-4.399-0.020-6.604 0.104-2.562 0.124-4.835 0.708-6.708 2.582-1.877 1.877-2.458 4.147-2.582 6.709-0.124 2.209-0.104 4.399-0.104 6.604s-0.020 4.399 0.104 6.605c0.124 2.562 0.708 4.835 2.582 6.709 1.877 1.877 4.147 2.458 6.708 2.582 2.209 0.124 4.399 0.104 6.604 0.104 2.209 0 4.399 0.020 6.604-0.104 2.562-0.124 4.835-0.708 6.709-2.582 1.877-1.877 2.458-4.147 2.582-6.709 0.128-2.206 0.104-4.395 0.104-6.605zM15.996 24.209c-4.543 0-8.209-3.666-8.209-8.21s3.666-8.21 8.209-8.21c4.543 0 8.209 3.666 8.209 8.21s-3.666 8.21-8.209 8.21zM24.541 9.372c-1.061 0-1.917-0.857-1.917-1.917s0.857-1.917 1.917-1.917c1.061 0 1.917 0.857 1.917 1.917 0 0.252-0.049 0.501-0.145 0.734s-0.238 0.444-0.416 0.622-0.39 0.319-0.622 0.416c-0.233 0.096-0.482 0.146-0.734 0.145z"></path>
</symbol>
<symbol id="icon-Arrow-Down" viewBox="0 0 32 32">
<path d="M15.292 22.708l-10-10c-0.093-0.093-0.167-0.203-0.217-0.325s-0.076-0.252-0.076-0.383 0.026-0.261 0.076-0.383c0.050-0.121 0.124-0.232 0.217-0.325s0.203-0.167 0.325-0.217c0.121-0.050 0.252-0.076 0.383-0.076s0.261 0.026 0.383 0.076c0.121 0.050 0.232 0.124 0.325 0.217l9.292 9.294 9.293-9.294c0.188-0.188 0.442-0.293 0.707-0.293s0.52 0.105 0.707 0.293c0.188 0.188 0.293 0.442 0.293 0.707s-0.105 0.52-0.293 0.707l-10 10c-0.093 0.093-0.203 0.167-0.325 0.217s-0.252 0.076-0.383 0.076c-0.131 0-0.261-0.026-0.383-0.076s-0.232-0.124-0.325-0.217z"></path>
</symbol>
<symbol id="icon-Arrow-Fill" viewBox="0 0 32 32">
<path fill="#151206" style="fill: var(--color3, #151206)" d="M16 32c-8.837 0-16-7.163-16-16s7.163-16 16-16c8.837 0 16 7.163 16 16s-7.163 16-16 16z"></path>
<path fill="#ffd700" style="fill: var(--color1, #ffd700)" d="M9.292 15.292l10-10c0.093-0.093 0.203-0.167 0.325-0.217s0.252-0.076 0.383-0.076 0.262 0.026 0.383 0.076c0.121 0.050 0.232 0.124 0.325 0.217s0.167 0.203 0.217 0.325c0.050 0.121 0.076 0.252 0.076 0.383s-0.026 0.261-0.076 0.383c-0.050 0.121-0.124 0.232-0.217 0.325l-9.294 9.292 9.294 9.293c0.188 0.188 0.293 0.442 0.293 0.707s-0.105 0.52-0.293 0.707c-0.188 0.188-0.442 0.293-0.707 0.293s-0.52-0.105-0.707-0.293l-10-10c-0.093-0.093-0.167-0.203-0.217-0.325s-0.076-0.252-0.076-0.383c0-0.131 0.026-0.261 0.076-0.383s0.124-0.232 0.217-0.325z"></path>
</symbol>
<symbol id="icon-Arrow-Left" viewBox="0 0 32 32">
<path d="M9.292 15.292l10-10c0.093-0.093 0.203-0.167 0.325-0.217s0.252-0.076 0.383-0.076 0.262 0.026 0.383 0.076c0.121 0.050 0.232 0.124 0.325 0.217s0.167 0.203 0.217 0.325c0.050 0.121 0.076 0.252 0.076 0.383s-0.026 0.261-0.076 0.383c-0.050 0.121-0.124 0.232-0.217 0.325l-9.294 9.292 9.294 9.293c0.188 0.188 0.293 0.442 0.293 0.707s-0.105 0.52-0.293 0.707c-0.188 0.188-0.442 0.293-0.707 0.293s-0.52-0.105-0.707-0.293l-10-10c-0.093-0.093-0.167-0.203-0.217-0.325s-0.076-0.252-0.076-0.383c0-0.131 0.026-0.261 0.076-0.383s0.124-0.232 0.217-0.325z"></path>
</symbol>
<symbol id="icon-Arrow-Right" viewBox="0 0 32 32">
<path  d="M22.708 16.708l-10 10c-0.093 0.093-0.203 0.167-0.325 0.217s-0.252 0.076-0.383 0.076-0.261-0.026-0.383-0.076c-0.121-0.050-0.232-0.124-0.325-0.217s-0.167-0.203-0.217-0.325c-0.050-0.121-0.076-0.252-0.076-0.383s0.026-0.262 0.076-0.383c0.050-0.121 0.124-0.232 0.217-0.325l9.294-9.293-9.294-9.293c-0.188-0.188-0.293-0.442-0.293-0.707s0.105-0.52 0.293-0.707c0.188-0.188 0.442-0.293 0.707-0.293s0.52 0.105 0.707 0.293l10 10c0.093 0.093 0.167 0.203 0.217 0.325s0.076 0.252 0.076 0.383c0 0.131-0.026 0.262-0.076 0.383s-0.124 0.232-0.217 0.325z"></path>
</symbol>
<symbol id="icon-Arrow-Up" viewBox="0 0 32 32">
<path  d="M16.708 9.292l10 10c0.093 0.093 0.167 0.203 0.217 0.325s0.076 0.252 0.076 0.383-0.026 0.262-0.076 0.383c-0.050 0.121-0.124 0.232-0.217 0.325s-0.203 0.167-0.325 0.217c-0.121 0.050-0.252 0.076-0.383 0.076s-0.262-0.026-0.383-0.076c-0.121-0.050-0.232-0.124-0.325-0.217l-9.293-9.294-9.293 9.294c-0.188 0.188-0.442 0.293-0.707 0.293s-0.52-0.105-0.707-0.293c-0.188-0.188-0.293-0.442-0.293-0.707s0.105-0.52 0.293-0.707l10-10c0.093-0.093 0.203-0.167 0.325-0.217s0.252-0.076 0.383-0.076c0.131 0 0.262 0.026 0.383 0.076s0.232 0.124 0.325 0.217z"></path>
</symbol>
<symbol id="icon-burger" viewBox="0 0 32 32">
<path fill="#fff" style="fill: var(--color2, #fff)" d="M4 5.334h24v2.667h-24v-2.667zM12 14.667h16v2.667h-16v-2.667zM4 24.001h24v2.667h-24v-2.667z"></path>
</symbol>
<symbol id="icon-Call-Fill" viewBox="0 0 32 32">
<path fill="#fff" style="fill: var(--color2, #fff)" d="M16 0c8.837 0 16 7.163 16 16s-7.163 16-16 16c-8.837 0-16-7.163-16-16s7.163-16 16-16z"></path>
<path fill="#000" style="fill: var(--color4, #000)" d="M21.999 18.947v2.357c0 0.169-0.064 0.331-0.179 0.455s-0.273 0.199-0.441 0.21c-0.291 0.020-0.529 0.031-0.713 0.031-5.891 0-10.666-4.775-10.666-10.667 0-0.184 0.010-0.422 0.031-0.713 0.012-0.168 0.087-0.326 0.21-0.441s0.286-0.179 0.455-0.179h2.357c0.083-0 0.162 0.031 0.224 0.086s0.1 0.132 0.108 0.214c0.015 0.153 0.029 0.275 0.043 0.368 0.133 0.925 0.404 1.824 0.805 2.667 0.063 0.133 0.022 0.293-0.098 0.378l-1.439 1.028c0.88 2.050 2.513 3.683 4.562 4.563l1.027-1.436c0.042-0.059 0.103-0.101 0.173-0.119s0.144-0.011 0.209 0.020c0.843 0.401 1.742 0.671 2.666 0.803 0.093 0.013 0.215 0.027 0.367 0.043 0.082 0.008 0.158 0.047 0.213 0.108s0.085 0.141 0.085 0.224z"></path>
</symbol>
<symbol id="icon-Call" viewBox="0 0 32 32">
<path d="M28 21.893v4.715c0 0.338-0.128 0.663-0.358 0.91s-0.545 0.397-0.882 0.421c-0.583 0.040-1.059 0.061-1.427 0.061-11.783 0-21.333-9.551-21.333-21.333 0-0.368 0.020-0.844 0.061-1.427 0.024-0.337 0.174-0.652 0.421-0.882s0.572-0.358 0.91-0.358h4.715c0.165-0 0.325 0.061 0.448 0.172s0.2 0.263 0.216 0.428c0.031 0.307 0.059 0.551 0.085 0.736 0.265 1.849 0.808 3.648 1.611 5.335 0.127 0.267 0.044 0.585-0.196 0.756l-2.877 2.056c1.759 4.099 5.026 7.366 9.125 9.125l2.053-2.872c0.084-0.117 0.206-0.201 0.346-0.238s0.288-0.023 0.418 0.039c1.687 0.801 3.485 1.343 5.333 1.607 0.185 0.027 0.429 0.055 0.733 0.085 0.164 0.017 0.317 0.094 0.427 0.217s0.17 0.282 0.17 0.447z"></path>
</symbol>
<symbol id="icon-Clean" viewBox="0 0 32 32">
<path  d="M25.333 0l-1.926 6.836-3.852 2.012 3.852 2.011 1.926 6.032 1.926-6.033 3.852-2.011-3.852-2.010-1.926-6.837zM12.444 5.334l-0.889 3.556-2.667 0.889 2.667 0.889 0.889 3.556 0.889-3.556 2.667-0.889-2.667-0.889-0.889-3.556zM0 21.336c0-0.236 0.094-0.462 0.26-0.629s0.393-0.26 0.629-0.26h2.667c0.236 0 0.462 0.094 0.629 0.26s0.26 0.393 0.26 0.629v9.775c0 0.236-0.094 0.462-0.26 0.629s-0.393 0.26-0.629 0.26h-2.667c-0.236 0-0.462-0.094-0.629-0.26s-0.26-0.393-0.26-0.629v-9.775zM10.404 20.615c0.829-0.378 2.853 0 2.853 0l5.89 1.321c0 0 1.473 0.472 2.853 0.472s0.555 1.89-0.369 2.55c-0.923 0.66-1.595 0.624-1.595 0.624l-4.756-0.058c0 0 4.142 0.756 5.707 0.85 0.792 0.048 2.151-0.51 3.671-1.134 1.48-0.608 3.111-1.277 4.519-1.51 2.853-0.471 3.314 2.078 2.393 3.022s-8.283 4.531-9.571 5.003c-1.010 0.37-2.23 0.247-3.607 0.108-0.381-0.038-0.775-0.078-1.179-0.108-1.609-0.122-2.837-0.513-4.053-0.9-1.305-0.414-2.595-0.824-4.322-0.894-0.58-0.023-1.936 0.049-2.618 0.089v-7.878c1.179-0.42 3.565-1.276 4.182-1.557z"></path>
</symbol>
<symbol id="icon-Close" viewBox="0 0 32 32">
<path fill="#fff" style="fill: var(--color2, #fff)" d="M25.708 24.293c0.093 0.093 0.167 0.203 0.217 0.325s0.076 0.252 0.076 0.383-0.026 0.262-0.076 0.383c-0.050 0.121-0.124 0.232-0.217 0.325s-0.203 0.167-0.325 0.217c-0.121 0.050-0.252 0.076-0.383 0.076s-0.262-0.026-0.383-0.076c-0.121-0.050-0.232-0.124-0.325-0.217l-8.293-8.294-8.293 8.294c-0.188 0.188-0.442 0.293-0.707 0.293s-0.52-0.105-0.707-0.293c-0.188-0.188-0.293-0.442-0.293-0.707s0.105-0.52 0.293-0.707l8.294-8.293-8.294-8.293c-0.188-0.188-0.293-0.442-0.293-0.707s0.105-0.52 0.293-0.707c0.188-0.188 0.442-0.293 0.707-0.293s0.52 0.105 0.707 0.293l8.293 8.294 8.293-8.294c0.188-0.188 0.442-0.293 0.707-0.293s0.52 0.105 0.707 0.293c0.188 0.188 0.293 0.442 0.293 0.707s-0.105 0.52-0.293 0.707l-8.294 8.293 8.294 8.293z"></path>
</symbol>
<symbol id="icon-copy" viewBox="0 0 32 32">
<path fill="#fff" style="fill: var(--color2, #fff)" d="M20.32 2.666h-5.192c-2.352 0-4.216 0-5.673 0.197-1.501 0.203-2.716 0.629-3.673 1.591-0.959 0.961-1.384 2.181-1.585 3.688-0.196 1.464-0.196 3.335-0.196 5.696v7.784c0 2.011 1.227 3.733 2.969 4.456-0.089-1.213-0.089-2.913-0.089-4.329v-6.68c0-1.708 0-3.181 0.157-4.36 0.169-1.264 0.551-2.475 1.529-3.457s2.185-1.365 3.444-1.536c1.173-0.157 2.64-0.157 4.343-0.157h4.093c1.701 0 3.165 0 4.34 0.157-0.352-0.898-0.966-1.669-1.763-2.213s-1.739-0.835-2.703-0.836z"></path>
<path fill="#fff" style="fill: var(--color2, #fff)" d="M8.801 15.195c0-3.635 0-5.452 1.125-6.581 1.124-1.129 2.933-1.129 6.555-1.129h3.84c3.62 0 5.431 0 6.556 1.129 1.124 1.129 1.124 2.947 1.124 6.581v6.427c0 3.635 0 5.452-1.124 6.581-1.125 1.129-2.936 1.129-6.556 1.129h-3.84c-3.62 0-5.431 0-6.555-1.129-1.125-1.129-1.125-2.947-1.125-6.581v-6.427z"></path>
</symbol>
<symbol id="icon-Default" viewBox="0 0 32 32">
<path d="M28 16c0 0.265-0.105 0.52-0.293 0.707s-0.442 0.293-0.707 0.293h-10v10c0 0.265-0.105 0.52-0.293 0.707s-0.442 0.293-0.707 0.293c-0.265 0-0.52-0.105-0.707-0.293s-0.293-0.442-0.293-0.707v-10h-10c-0.265 0-0.52-0.105-0.707-0.293s-0.293-0.442-0.293-0.707c0-0.265 0.105-0.52 0.293-0.707s0.442-0.293 0.707-0.293h10v-10c0-0.265 0.105-0.52 0.293-0.707s0.442-0.293 0.707-0.293c0.265 0 0.52 0.105 0.707 0.293s0.293 0.442 0.293 0.707v10h10c0.265 0 0.52 0.105 0.707 0.293s0.293 0.442 0.293 0.707z"></path>
</symbol>
<symbol id="icon-crown" viewBox="0 0 32 32">
<path d="M5.2 26.8h21.6v2.7h-21.6v-2.7zM28.15 6.55c-0.358 0-0.701 0.142-0.955 0.395s-0.395 0.597-0.395 0.955c0 0.154 0.029 0.306 0.086 0.448 0.056 0.138 0.132 0.267 0.225 0.382l-5.72 4.57-4.733-8.296c0.203-0.115 0.374-0.279 0.498-0.477 0.127-0.203 0.194-0.438 0.193-0.678 0-0.358-0.142-0.701-0.395-0.955s-0.597-0.395-0.955-0.395-0.701 0.142-0.955 0.395c-0.253 0.253-0.395 0.597-0.395 0.955-0.001 0.24 0.066 0.474 0.193 0.678 0.124 0.198 0.295 0.361 0.498 0.477l-4.739 8.296-5.715-4.57c0.094-0.115 0.17-0.244 0.225-0.382 0.057-0.143 0.086-0.295 0.086-0.448 0-0.267-0.079-0.528-0.228-0.75s-0.359-0.395-0.606-0.497c-0.247-0.102-0.518-0.129-0.78-0.077s-0.502 0.181-0.691 0.369c-0.189 0.189-0.317 0.429-0.369 0.691s-0.025 0.533 0.077 0.78c0.102 0.247 0.275 0.458 0.497 0.606s0.483 0.227 0.75 0.227c0.019-0.001 0.037-0.004 0.055-0.009s0.037-0.011 0.055-0.014l0.62 7.437 0.62 7.436h21.6l0.62-7.436 0.62-7.437c0.018 0.003 0.037 0.007 0.054 0.014s0.037 0.009 0.057 0.009c0.358 0 0.701-0.142 0.955-0.395s0.395-0.597 0.395-0.955-0.142-0.701-0.395-0.955c-0.253-0.253-0.597-0.395-0.955-0.395z"></path>
</symbol>
<symbol id="icon-facebook" viewBox="0 0 32 32">
<path  d="M31.999 16.097c0-8.892-7.164-16.1-16-16.1-8.84 0.002-16.004 7.208-16.004 16.102 0 8.034 5.852 14.694 13.5 15.902v-11.25h-4.060v-4.652h4.064v-3.55c0-4.034 2.39-6.262 6.044-6.262 1.752 0 3.582 0.314 3.582 0.314v3.96h-2.018c-1.986 0-2.606 1.242-2.606 2.516v3.020h4.436l-0.708 4.652h-3.73v11.25c7.648-1.208 13.5-7.868 13.5-15.902z"></path>
</symbol>
<symbol id="icon-Gamepad" viewBox="0 0 32 32">
<path  d="M14.224 8.178l-0.669-0.473c-0.955-0.676-2.096-1.039-3.267-1.039h-0.816c-0.54 0-1.084 0.033-1.592 0.213-3.177 1.128-5.363 5.247-5.204 14.591 0.032 1.883 0.472 3.963 2.171 4.775 0.579 0.279 1.214 0.423 1.857 0.421 0.723 0.012 1.433-0.191 2.040-0.583 0.547-0.357 1.027-0.821 1.507-1.285 0.592-0.573 1.184-1.147 1.899-1.517 0.779-0.404 1.643-0.615 2.52-0.615h2.665c0.877 0 1.741 0.211 2.52 0.613 0.715 0.372 1.307 0.945 1.9 1.519 0.48 0.464 0.96 0.928 1.504 1.285 0.52 0.341 1.193 0.583 2.041 0.583 0.643 0.001 1.278-0.143 1.857-0.421 1.699-0.812 2.139-2.893 2.171-4.775 0.159-9.344-2.027-13.463-5.204-14.589-0.509-0.181-1.056-0.215-1.593-0.215h-0.816c-1.17 0-2.312 0.364-3.267 1.040l-0.669 0.472c-0.52 0.368-1.141 0.565-1.777 0.565s-1.258-0.197-1.777-0.565zM22.335 11.999c0.265 0 0.52 0.105 0.707 0.293s0.293 0.442 0.293 0.707c0 0.265-0.105 0.52-0.293 0.707s-0.442 0.293-0.707 0.293c-0.265 0-0.52-0.105-0.707-0.293s-0.293-0.442-0.293-0.707c0-0.265 0.105-0.52 0.293-0.707s0.442-0.293 0.707-0.293zM10.001 12.333c0.265 0 0.52 0.105 0.707 0.293s0.293 0.442 0.293 0.707v1h1c0.265 0 0.52 0.105 0.707 0.293s0.293 0.442 0.293 0.707-0.105 0.52-0.293 0.707c-0.188 0.188-0.442 0.293-0.707 0.293h-1v1c0 0.265-0.105 0.52-0.293 0.707s-0.442 0.293-0.707 0.293-0.52-0.105-0.707-0.293c-0.188-0.188-0.293-0.442-0.293-0.707v-1h-1c-0.265 0-0.52-0.105-0.707-0.293s-0.293-0.442-0.293-0.707c0-0.265 0.105-0.52 0.293-0.707s0.442-0.293 0.707-0.293h1v-1c0-0.265 0.105-0.52 0.293-0.707s0.442-0.293 0.707-0.293zM25.335 14.999c0 0.265-0.105 0.52-0.293 0.707s-0.442 0.293-0.707 0.293c-0.265 0-0.52-0.105-0.707-0.293s-0.293-0.442-0.293-0.707c0-0.265 0.105-0.52 0.293-0.707s0.442-0.293 0.707-0.293c0.265 0 0.52 0.105 0.707 0.293s0.293 0.442 0.293 0.707zM20.335 15.999c0.265 0 0.52-0.105 0.707-0.293s0.293-0.442 0.293-0.707c0-0.265-0.105-0.52-0.293-0.707s-0.442-0.293-0.707-0.293c-0.265 0-0.52 0.105-0.707 0.293s-0.293 0.442-0.293 0.707c0 0.265 0.105 0.52 0.293 0.707s0.442 0.293 0.707 0.293zM23.335 16.999c0-0.265-0.105-0.52-0.293-0.707s-0.442-0.293-0.707-0.293c-0.265 0-0.52 0.105-0.707 0.293s-0.293 0.442-0.293 0.707c0 0.265 0.105 0.52 0.293 0.707s0.442 0.293 0.707 0.293c0.265 0 0.52-0.105 0.707-0.293s0.293-0.442 0.293-0.707z"></path>
</symbol>
<symbol id="icon-Hot" viewBox="0 0 32 32">
<path  d="M22 10.668c0 2-0.667 4.667-3.867 5.733 0.933-2.267 1.067-4.533 0.4-6.667-0.933-2.8-4-4.933-6.133-6.133-0.533-0.4-1.467 0.133-1.333 0.933 0 1.467-0.4 3.6-2.667 5.867-2.933 2.933-4.4 6-4.4 8.933 0 3.867 2.667 8.667 8 8.667-5.333-5.333-1.333-10-1.333-10 1.067 7.867 6.667 10 9.333 10 2.267 0 6.667-1.6 6.667-8.533 0-4.133-1.733-7.333-3.2-9.2-0.4-0.667-1.333-0.267-1.467 0.4z"></path>
</symbol>
<symbol id="icon-Arrow-fill-left" viewBox="0 0 32 32">
<path fill="#151206" style="fill: var(--color3, #151206)" d="M16 0c8.837 0 16 7.163 16 16s-7.163 16-16 16c-8.837 0-16-7.163-16-16s7.163-16 16-16z"></path>
<path fill="#ffd700" style="fill: var(--color1, #ffd700)" d="M22.708 16.708l-10 10c-0.093 0.093-0.203 0.167-0.325 0.217s-0.252 0.076-0.383 0.076-0.261-0.026-0.383-0.076c-0.121-0.050-0.232-0.124-0.325-0.217s-0.167-0.203-0.217-0.325c-0.050-0.121-0.076-0.252-0.076-0.383s0.026-0.262 0.076-0.383c0.050-0.121 0.124-0.232 0.217-0.325l9.294-9.293-9.294-9.293c-0.188-0.188-0.293-0.442-0.293-0.707s0.105-0.52 0.293-0.707c0.188-0.188 0.442-0.293 0.707-0.293s0.52 0.105 0.707 0.293l10 10c0.093 0.093 0.167 0.203 0.217 0.325s0.076 0.252 0.076 0.383c0 0.131-0.026 0.262-0.076 0.383s-0.124 0.232-0.217 0.325z"></path>
</symbol>
<symbol id="icon-car" viewBox="0 0 32 32">
<path fill="#fc3" style="fill: var(--color5, #fc3)" d="M30 14h-3.586l-5.414-5.414c-0.185-0.187-0.405-0.334-0.648-0.435s-0.503-0.152-0.766-0.151h-14.051c-0.329 0.001-0.652 0.082-0.941 0.237s-0.536 0.379-0.719 0.653l-3.708 5.555c-0.109 0.165-0.167 0.358-0.168 0.555v6c0 0.53 0.211 1.039 0.586 1.414s0.884 0.586 1.414 0.586h2.125c0.22 0.86 0.721 1.623 1.422 2.168s1.565 0.84 2.453 0.84c0.888 0 1.751-0.296 2.453-0.84s1.202-1.307 1.422-2.168h8.25c0.22 0.86 0.721 1.623 1.422 2.168s1.565 0.84 2.453 0.84c0.888 0 1.751-0.296 2.453-0.84s1.202-1.307 1.422-2.168h2.125c0.53 0 1.039-0.211 1.414-0.586s0.586-0.884 0.586-1.414v-5c0-0.53-0.211-1.039-0.586-1.414s-0.884-0.586-1.414-0.586zM5.535 10h14.051l4 4h-20.711l2.66-4zM8 24c-0.396 0-0.782-0.117-1.111-0.337s-0.585-0.532-0.737-0.898c-0.151-0.365-0.191-0.768-0.114-1.156s0.268-0.744 0.547-1.024c0.28-0.28 0.636-0.47 1.024-0.547s0.79-0.038 1.156 0.114c0.365 0.151 0.678 0.408 0.898 0.737s0.337 0.716 0.337 1.111c0 0.53-0.211 1.039-0.586 1.414s-0.884 0.586-1.414 0.586zM24 24c-0.396 0-0.782-0.117-1.111-0.337s-0.585-0.532-0.737-0.898c-0.151-0.365-0.191-0.768-0.114-1.156s0.268-0.744 0.547-1.024c0.28-0.28 0.636-0.47 1.024-0.547s0.79-0.038 1.156 0.114c0.365 0.151 0.678 0.408 0.898 0.737s0.337 0.716 0.337 1.111c0 0.53-0.211 1.039-0.586 1.414s-0.884 0.586-1.414 0.586z"></path>
</symbol>
<symbol id="icon-share" viewBox="0 0 32 32">
<path fill="#fff" style="fill: var(--color2, #fff)" d="M23.5 10.999h-6.5v9.062c0 0.265-0.105 0.52-0.293 0.707s-0.442 0.293-0.707 0.293-0.52-0.105-0.707-0.293c-0.188-0.188-0.293-0.442-0.293-0.707v-9.063h-6.5c-0.928 0.001-1.818 0.37-2.474 1.026s-1.025 1.546-1.026 2.474v12c0.001 0.928 0.37 1.818 1.026 2.474s1.546 1.025 2.474 1.026h15c0.928-0.001 1.818-0.37 2.474-1.026s1.025-1.546 1.026-2.474v-12c-0.001-0.928-0.37-1.818-1.026-2.474s-1.546-1.025-2.474-1.026zM17 5.414l3.293 3.293c0.189 0.18 0.441 0.278 0.702 0.275s0.51-0.108 0.694-0.293c0.184-0.184 0.29-0.434 0.293-0.694s-0.095-0.513-0.275-0.702l-5-5c-0.188-0.187-0.442-0.293-0.707-0.293s-0.519 0.105-0.707 0.293l-5 5c-0.18 0.189-0.278 0.441-0.275 0.702s0.108 0.51 0.293 0.694 0.434 0.289 0.694 0.293c0.261 0.003 0.512-0.095 0.702-0.275l3.293-3.293v5.586h2v-5.586z"></path>
</symbol>
<symbol id="icon-Spray" viewBox="0 0 32 32">
<path d="M5.813 1.938v5.813h7.75v-5.813c0-1.072-0.866-1.938-1.938-1.938h-3.875c-1.072 0-1.938 0.866-1.938 1.938zM5.813 9.688c-3.209 0-5.813 2.604-5.813 5.813v12.594c0 1.604 1.302 2.906 2.906 2.906h13.563c1.604 0 2.906-1.302 2.906-2.906v-12.594c0-3.209-2.604-5.813-5.813-5.813h-7.75zM9.688 15.5c1.285 0 2.517 0.51 3.425 1.419s1.419 2.14 1.419 3.425c0 1.285-0.51 2.517-1.419 3.425s-2.14 1.419-3.425 1.419c-1.285 0-2.517-0.51-3.425-1.419s-1.419-2.14-1.419-3.425c0-1.285 0.51-2.517 1.419-3.425s2.14-1.419 3.425-1.419zM23.25 2.906c0-0.085-0.061-0.182-0.133-0.218l-1.804-0.751-0.751-1.804c-0.036-0.073-0.133-0.133-0.218-0.133s-0.182 0.061-0.218 0.133l-0.751 1.804-1.804 0.751c-0.073 0.036-0.133 0.133-0.133 0.218s0.061 0.182 0.133 0.218l1.804 0.751 0.751 1.804c0.036 0.073 0.133 0.133 0.218 0.133s0.182-0.061 0.218-0.133l0.751-1.804 1.804-0.751c0.073-0.036 0.133-0.133 0.133-0.218zM27.876 5.679c0.036 0.073 0.133 0.133 0.218 0.133s0.182-0.061 0.218-0.133l0.751-1.804 1.804-0.751c0.073-0.036 0.133-0.133 0.133-0.218s-0.061-0.182-0.133-0.218l-1.804-0.751-0.751-1.804c-0.036-0.073-0.133-0.133-0.218-0.133s-0.182 0.061-0.218 0.133l-0.751 1.804-1.804 0.751c-0.073 0.036-0.133 0.133-0.133 0.218s0.061 0.182 0.133 0.218l1.804 0.751 0.751 1.804zM28.312 11.758c-0.036-0.073-0.133-0.133-0.218-0.133s-0.182 0.060-0.218 0.133l-0.751 1.804-1.804 0.751c-0.073 0.036-0.133 0.133-0.133 0.218s0.061 0.182 0.133 0.218l1.804 0.751 0.751 1.804c0.036 0.073 0.133 0.133 0.218 0.133s0.182-0.061 0.218-0.133l0.751-1.804 1.804-0.751c0.073-0.036 0.133-0.133 0.133-0.218s-0.061-0.182-0.133-0.218l-1.804-0.751-0.751-1.804zM27.125 8.719c0-0.085-0.061-0.182-0.133-0.218l-1.804-0.751-0.751-1.804c-0.036-0.073-0.133-0.133-0.218-0.133s-0.182 0.061-0.218 0.133l-0.751 1.804-1.804 0.751c-0.073 0.036-0.133 0.133-0.133 0.218s0.061 0.182 0.133 0.218l1.804 0.751 0.751 1.804c0.036 0.073 0.133 0.133 0.218 0.133s0.182-0.060 0.218-0.133l0.751-1.804 1.804-0.751c0.073-0.036 0.133-0.133 0.133-0.218z"></path>
</symbol>
<symbol id="icon-Star" viewBox="0 0 32 32">
<path fill="#ffd700" style="fill: var(--color1, #ffd700)" d="M16 23.027l8.24 4.973-2.187-9.373 7.28-6.307-9.587-0.813-3.747-8.84-3.747 8.84-9.587 0.813 7.28 6.307-2.187 9.373 8.24-4.973z"></path>
</symbol>
<symbol id="icon-stars" viewBox="0 0 32 32">
<path  d="M0 20.031c1.080-0.050 1.994-0.469 2.741-1.257s1.13-1.727 1.13-2.816c0 1.090 0.366 2.028 1.113 2.816s1.661 1.207 2.741 1.257c-1.080 0.050-1.994 0.469-2.741 1.257-0.361 0.371-0.646 0.812-0.837 1.295s-0.285 1-0.276 1.521c0-1.090-0.366-2.028-1.13-2.816-0.748-0.788-1.661-1.207-2.741-1.257zM3.871 7.962c2.093-0.101 3.871-0.922 5.333-2.464s2.193-3.369 2.193-5.498c0 2.129 0.731 3.956 2.193 5.498s3.24 2.347 5.35 2.464c-1.379 0.067-2.642 0.453-3.805 1.19-1.146 0.721-2.060 1.693-2.741 2.9-0.665 1.207-0.997 2.498-0.997 3.906 0-2.129-0.731-3.973-2.193-5.515-1.462-1.559-3.24-2.38-5.333-2.481zM9.387 26.016c1.578-0.067 2.924-0.687 4.021-1.844s1.645-2.531 1.645-4.14c0 1.609 0.548 2.984 1.645 4.14s2.426 1.777 4.004 1.844c-1.578 0.067-2.908 0.687-4.004 1.844s-1.645 2.531-1.645 4.14c0-1.609-0.548-2.984-1.645-4.14-1.048-1.124-2.492-1.786-4.021-1.844zM20.702 18.070c1.578-0.067 2.908-0.687 4.004-1.844s1.628-2.531 1.628-4.157c0 1.609 0.548 2.984 1.645 4.14s2.442 1.777 4.021 1.844c-1.578 0.067-2.924 0.687-4.021 1.844s-1.645 2.531-1.645 4.14c0-1.609-0.548-2.984-1.628-4.14-1.097-1.14-2.426-1.76-4.004-1.827z"></path>
</symbol>
<symbol id="icon-telega" viewBox="0 0 32 32">
<path  d="M32 16c0 4.243-1.686 8.313-4.686 11.314s-7.070 4.686-11.314 4.686-8.313-1.686-11.314-4.686c-3.001-3.001-4.686-7.070-4.686-11.314s1.686-8.313 4.686-11.314c3.001-3.001 7.070-4.686 11.314-4.686s8.313 1.686 11.314 4.686c3.001 3.001 4.686 7.070 4.686 11.314zM16.574 11.812c-1.556 0.648-4.668 1.988-9.332 4.020-0.756 0.3-1.154 0.596-1.19 0.884-0.060 0.486 0.55 0.678 1.38 0.94l0.35 0.11c0.816 0.266 1.916 0.576 2.486 0.588 0.52 0.012 1.098-0.2 1.736-0.64 4.358-2.942 6.608-4.428 6.748-4.46 0.1-0.024 0.24-0.052 0.332 0.032 0.094 0.082 0.084 0.24 0.074 0.282-0.060 0.258-2.454 2.482-3.692 3.634-0.386 0.36-0.66 0.614-0.716 0.672-0.123 0.126-0.249 0.25-0.376 0.372-0.76 0.732-1.328 1.28 0.030 2.176 0.654 0.432 1.178 0.786 1.7 1.142 0.568 0.388 1.136 0.774 1.872 1.258 0.186 0.12 0.366 0.25 0.54 0.374 0.662 0.472 1.26 0.896 1.994 0.828 0.428-0.040 0.87-0.44 1.094-1.64 0.53-2.834 1.572-8.972 1.812-11.502 0.015-0.21 0.006-0.422-0.026-0.63-0.019-0.168-0.1-0.323-0.228-0.434-0.182-0.126-0.399-0.191-0.62-0.186-0.6 0.010-1.526 0.332-5.968 2.18z"></path>
</symbol>
</defs>
</svg>
