<svg aria-hidden="true" style="position: absolute; width: 0; height: 0; overflow: hidden;" version="1.1" xmlns="http://www.w3.org/2000/svg" xmlns:xlink="http://www.w3.org/1999/xlink">
<defs>
<symbol id="icon-5starts" viewBox="0 0 160 32">
<path fill="#ffd700" style="fill: var(--color1, #ffd700)" d="M16 23.027l8.24 4.973-2.187-9.373 7.28-6.307-9.587-0.813-3.747-8.84-3.747 8.84-9.587 0.813 7.28 6.307-2.187 9.373 8.24-4.973z"></path>
<path fill="#ffd700" style="fill: var(--color1, #ffd700)" d="M48 23.027l8.24 4.973-2.187-9.373 7.28-6.307-9.587-0.813-3.747-8.84-3.747 8.84-9.587 0.813 7.28 6.307-2.187 9.373 8.24-4.973z"></path>
<path fill="#ffd700" style="fill: var(--color1, #ffd700)" d="M80 23.027l8.24 4.973-2.187-9.373 7.28-6.307-9.587-0.813-3.747-8.84-3.747 8.84-9.587 0.813 7.28 6.307-2.187 9.373 8.24-4.973z"></path>
<path fill="#ffd700" style="fill: var(--color1, #ffd700)" d="M112 23.027l8.24 4.973-2.187-9.373 7.28-6.307-9.587-0.813-3.747-8.84-3.747 8.84-9.587 0.813 7.28 6.307-2.187 9.373 8.24-4.973z"></path>
<path fill="#ffd700" style="fill: var(--color1, #ffd700)" d="M144 23.027l8.24 4.973-2.187-9.373 7.28-6.307-9.587-0.813-3.747-8.84-3.747 8.84-9.587 0.813 7.28 6.307-2.187 9.373 8.24-4.973z"></path>
</symbol>
<symbol id="icon-Arrow-Down-Corner" viewBox="0 0 32 32">
<path fill="#fc3" style="fill: var(--color1, #fc3)" d="M7.057 7.057c0.521-0.521 1.365-0.521 1.886 0l15.057 15.057v-13.421c0-0.736 0.597-1.333 1.333-1.333s1.333 0.597 1.333 1.333v16.64c0 0.736-0.597 1.333-1.333 1.333h-16.64c-0.736 0-1.333-0.597-1.333-1.333s0.597-1.333 1.333-1.333h13.421l-15.057-15.057c-0.521-0.521-0.521-1.365 0-1.886z"></path>
</symbol>
<symbol id="icon-car-jeep" viewBox="0 0 32 32">
<path fill="#fc3" style="fill: var(--color1, #fc3)" d="M0 17.156c0.189-0.543 0.354-1.102 0.579-1.632 0.201-0.47 0.579-0.752 1.090-0.897 1.299-0.366 2.633-0.474 3.968-0.591 0.177-0.016 0.354-0.060 0.527-0.044 0.74 0.068 1.335-0.253 1.938-0.623 1.363-0.836 2.754-1.628 4.125-2.449 0.378-0.225 0.768-0.338 1.21-0.338 5.705 0.008 11.414 0.004 17.12 0.004 0.434 0 0.539 0.113 0.495 0.499-0.036 0.326-0.298 0.257-0.547 0.298 0.623 1.749 1.074 3.51 0.901 5.42 0.575-0.020 0.543 0.358 0.531 0.728-0.008 0.374-0.004 0.748 0 1.122 0.004 0.265-0.125 0.402-0.386 0.434-0.515 0.064-1.029 0.133-1.544 0.197-0.193 0.024-0.35 0.068-0.442 0.273-0.048 0.105-0.185 0.209-0.302 0.237-0.603 0.145-1.214 0.265-1.858 0.402-0.008-0.125-0.016-0.221-0.016-0.322 0-0.748 0.004-1.496 0-2.243-0.008-0.953-0.583-1.54-1.528-1.556-0.708-0.012-1.415-0.012-2.119 0-1.061 0.016-1.725 0.675-1.745 1.737-0.012 0.531-0.004 1.061-0.004 1.592 0 0.113 0 0.225 0 0.35-4.736 0.072-9.44 0.145-14.185 0.217 0-0.157 0-0.277 0-0.398-0.004-0.708 0.012-1.415-0.012-2.119-0.024-0.756-0.599-1.343-1.355-1.363-0.832-0.024-1.665-0.028-2.493 0.004-0.828 0.028-1.488 0.7-1.52 1.528-0.028 0.683-0.012 1.371-0.016 2.059 0 0.125 0 0.245 0 0.438-0.326 0-0.631 0.008-0.937-0.004-0.084-0.004-0.213-0.052-0.245-0.117-0.157-0.322-0.531-0.41-0.708-0.659-0.217-0.31-0.31-0.708-0.454-1.069-0.032-0.101-0.044-0.205-0.068-0.306 0-0.269 0-0.539 0-0.808zM25.696 11.362c-1.134 0-2.264 0-3.397 0-0.478 0-0.547 0.092-0.382 0.531 0.177 0.474 0.358 0.953 0.535 1.427 0.193 0.519 0.426 0.696 0.973 0.692 2.191-0.012 4.386-0.032 6.578-0.044 0.269 0 0.326-0.092 0.245-0.338-0.213-0.627-0.426-1.258-0.611-1.894-0.080-0.277-0.221-0.382-0.511-0.378-1.146 0.012-2.288 0.004-3.43 0.004zM18.161 11.362c-0.591 0-1.186 0.004-1.777 0-0.249-0.004-0.358 0.1-0.354 0.354 0.008 0.728 0.008 1.455 0 2.183-0.004 0.249 0.092 0.362 0.346 0.354 1.082-0.028 2.163-0.044 3.241-0.080 0.527-0.016 0.812-0.338 0.78-0.872-0.032-0.539-0.092-1.078-0.133-1.616-0.016-0.229-0.129-0.33-0.362-0.326-0.579 0.008-1.162 0.004-1.741 0.004zM10.578 14.157c1.411 0 2.782 0.004 4.157-0.012 0.080 0 0.221-0.189 0.225-0.298 0.028-0.716 0.024-1.431 0.036-2.147 0.004-0.237-0.096-0.346-0.334-0.342-0.31 0.004-0.623 0.024-0.933-0.004-0.683-0.064-1.279 0.105-1.837 0.511-0.466 0.338-0.977 0.615-1.488 0.929 0.623 0.298 0.772 0.86 0.173 1.363z"></path>
<path fill="#fc3" style="fill: var(--color1, #fc3)" d="M24.68 21.47c-1.343-0.008-2.461-1.122-2.449-2.44 0.012-1.375 1.138-2.497 2.477-2.477 1.379 0.024 2.453 1.13 2.441 2.509-0.012 1.331-1.126 2.416-2.469 2.408zM26.256 19.227c-0.249 0-0.414-0.012-0.579 0.004-0.068 0.008-0.169 0.048-0.193 0.105-0.024 0.052 0.012 0.153 0.048 0.213 0.1 0.145 0.217 0.277 0.382 0.482 0.137-0.318 0.225-0.527 0.342-0.804zM25.585 20.292c0.008-0.036 0.020-0.072 0.028-0.113-0.193-0.133-0.434-0.41-0.571-0.366-0.285 0.088-0.088 0.422-0.121 0.651 0 0.012 0.024 0.028 0.064 0.072 0.189-0.076 0.394-0.161 0.599-0.245zM24.905 17.461c0 0.265-0.016 0.442 0.004 0.615 0.024 0.181 0.137 0.249 0.298 0.129 0.149-0.109 0.289-0.233 0.503-0.406-0.318-0.137-0.527-0.225-0.804-0.338zM23.14 19.227c0.117 0.273 0.201 0.482 0.289 0.692 0.036 0.016 0.072 0.028 0.109 0.044 0.109-0.137 0.225-0.269 0.322-0.414 0.040-0.056 0.072-0.153 0.052-0.209-0.024-0.056-0.117-0.101-0.185-0.109-0.165-0.012-0.33-0.004-0.587-0.004zM23.711 17.783c0.185 0.165 0.31 0.289 0.446 0.39 0.056 0.040 0.153 0.076 0.205 0.056 0.056-0.024 0.105-0.121 0.109-0.185 0.016-0.169 0.004-0.342 0.004-0.583-0.269 0.117-0.478 0.205-0.764 0.322zM23.144 18.8c0.249 0 0.434 0.020 0.611-0.004 0.181-0.024 0.249-0.133 0.117-0.298-0.113-0.145-0.233-0.281-0.402-0.49-0.129 0.314-0.213 0.523-0.326 0.792zM25.93 18.036c-0.173 0.193-0.29 0.322-0.406 0.454-0.129 0.153-0.097 0.277 0.1 0.306 0.185 0.028 0.374 0.004 0.627 0.004-0.117-0.277-0.201-0.482-0.322-0.764zM24.479 20.569c0-0.245 0.016-0.426-0.004-0.607-0.020-0.193-0.133-0.249-0.294-0.125-0.145 0.113-0.281 0.237-0.478 0.406 0.298 0.125 0.507 0.213 0.776 0.326z"></path>
<path fill="#fc3" style="fill: var(--color1, #fc3)" d="M5.11 21.47c-1.343 0-2.449-1.094-2.457-2.424-0.004-1.371 1.102-2.493 2.461-2.489 1.363 0.004 2.461 1.118 2.457 2.493-0.004 1.327-1.118 2.42-2.461 2.42zM5.323 17.466c0 0.245-0.012 0.422 0.004 0.591 0.008 0.064 0.068 0.149 0.125 0.181 0.040 0.024 0.137-0.012 0.181-0.048 0.141-0.113 0.269-0.241 0.454-0.414-0.289-0.117-0.499-0.201-0.764-0.31zM4.125 17.779c0.205 0.181 0.334 0.298 0.466 0.414 0.165 0.149 0.273 0.060 0.302-0.109 0.028-0.177 0.008-0.362 0.008-0.619-0.269 0.109-0.478 0.193-0.776 0.314zM3.554 19.227c0.117 0.273 0.205 0.482 0.342 0.804 0.173-0.213 0.293-0.354 0.406-0.503 0.121-0.165 0.056-0.273-0.129-0.298-0.173-0.020-0.35-0.004-0.619-0.004zM4.177 20.187c0.016 0.036 0.032 0.072 0.044 0.109 0.213 0.084 0.422 0.165 0.675 0.265 0-0.229 0.008-0.394-0.004-0.559-0.008-0.072-0.052-0.185-0.096-0.193-0.072-0.016-0.169 0.024-0.237 0.068-0.133 0.092-0.253 0.205-0.382 0.31zM6.67 19.227c-0.257 0-0.43-0.012-0.603 0.004-0.064 0.008-0.149 0.068-0.177 0.125-0.020 0.044 0.016 0.133 0.056 0.185 0.105 0.145 0.225 0.281 0.338 0.422 0.036-0.020 0.068-0.040 0.105-0.056 0.084-0.201 0.169-0.406 0.281-0.679zM6.002 20.292c0.012-0.040 0.024-0.076 0.036-0.117-0.205-0.125-0.41-0.253-0.615-0.378-0.028 0.225-0.060 0.446-0.088 0.671 0 0.012 0.024 0.028 0.064 0.072 0.193-0.080 0.398-0.165 0.603-0.249zM3.558 18.8c0.257 0 0.434 0.012 0.603-0.004 0.185-0.020 0.265-0.125 0.133-0.289-0.117-0.149-0.249-0.281-0.422-0.474-0.117 0.294-0.201 0.499-0.314 0.768zM6.666 18.8c-0.117-0.269-0.205-0.482-0.318-0.744-0.165 0.173-0.281 0.285-0.386 0.414-0.044 0.056-0.088 0.153-0.072 0.205 0.020 0.056 0.117 0.113 0.185 0.117 0.173 0.020 0.346 0.008 0.591 0.008z"></path>
</symbol>
<symbol id="icon-car-universal" viewBox="0 0 32 32">
<path fill="#fc3" style="fill: var(--color1, #fc3)" d="M0 17.218c0.311-1.159 1.163-1.737 2.25-1.995 1.535-0.363 3.082-0.662 4.625-1.006 0.279-0.061 0.557-0.157 0.804-0.295 1.595-0.917 3.211-1.781 4.936-2.444 1.486-0.569 3.029-0.876 4.612-0.994 3.477-0.263 6.935-0.008 10.384 0.444 0.832 0.109 1.515 0.501 2.003 1.191 0.481 0.679 0.941 1.369 1.401 2.060 0.258 0.384 0.368 0.808 0.363 1.268-0.004 0.469 0.004 0.937-0.004 1.401-0.004 0.158 0.020 0.267 0.182 0.347 0.303 0.153 0.392 0.424 0.376 0.755-0.036 0.658-0.311 1.058-0.994 1.232-0.994 0.25-1.967 0.59-2.997 0.905 0.323-1.216 0.097-2.266-0.864-3.086-0.646-0.553-1.41-0.735-2.242-0.598-1.365 0.226-2.718 1.644-2.145 3.659-4.81 0-9.617 0-14.427 0 0.485-2.169-1.175-3.558-2.613-3.558-0.921 0-1.672 0.347-2.25 1.066-0.469 0.582-0.561 0.99-0.525 2.5-0.687-0.153-1.373-0.271-2.028-0.473-0.424-0.129-0.634-0.513-0.719-0.945-0.048-0.186-0.089-0.376-0.129-0.565 0-0.291 0-0.582 0-0.872zM16.757 11.107c-0.549 0.085-1.050 0.149-1.547 0.246-1.515 0.299-2.965 0.792-4.326 1.527-0.275 0.149-0.287 0.287-0.105 0.525 0.081 0.105 0.137 0.258 0.133 0.392-0.008 0.202-0.081 0.396-0.133 0.626 1.862-0.093 3.736-0.186 5.626-0.283 0.117-1.010 0.23-1.995 0.351-3.033zM21.927 11.091c-1.325 0-2.637 0-3.962 0 0 0.977 0 1.963 0 2.973 1.337-0.065 2.641-0.133 3.962-0.198 0-0.933 0-1.83 0-2.775zM22.945 11.139c0.057 0.121 0.089 0.206 0.129 0.283 0.368 0.695 0.743 1.389 1.103 2.088 0.089 0.174 0.19 0.234 0.384 0.222 0.985-0.057 1.971-0.069 2.952-0.158 0.376-0.036 0.743-0.222 1.095-0.384 0.194-0.089 0.254-0.295 0.17-0.509-0.25-0.63-0.626-1.131-1.361-1.204-0.876-0.089-1.753-0.178-2.633-0.246-0.598-0.044-1.195-0.061-1.838-0.093zM23.446 13.785c-0.238-0.452-0.456-0.86-0.675-1.272-0.016 0.004-0.032 0.012-0.048 0.016 0 0.424 0 0.848 0 1.296 0.234-0.012 0.456-0.024 0.723-0.040z"></path>
<path fill="#fc3" style="fill: var(--color1, #fc3)" d="M3.3 19.265c0.020-1.268 1.042-2.278 2.29-2.262 1.272 0.016 2.278 1.050 2.266 2.326-0.012 1.216-1.078 2.254-2.298 2.238-1.252-0.020-2.278-1.062-2.258-2.302zM4.391 20.106c0.040 0.012 0.081 0.020 0.117 0.032 0.117-0.19 0.23-0.376 0.347-0.565-0.21-0.028-0.424-0.053-0.634-0.081-0.008 0-0.016 0.012-0.057 0.048 0.073 0.182 0.149 0.372 0.226 0.565zM7.020 19.475c-0.226 0-0.38-0.012-0.533 0.004-0.069 0.008-0.153 0.061-0.186 0.117-0.024 0.040 0.020 0.129 0.053 0.182 0.093 0.133 0.198 0.263 0.347 0.46 0.133-0.311 0.214-0.509 0.319-0.763zM4.75 18.098c-0.008 0.040-0.020 0.077-0.028 0.117 0.186 0.113 0.376 0.23 0.561 0.343 0.028-0.202 0.052-0.408 0.077-0.61 0-0.012-0.024-0.028-0.061-0.073-0.174 0.069-0.363 0.145-0.549 0.222zM5.78 17.848c0 0.234-0.012 0.388 0.004 0.541 0.020 0.19 0.117 0.271 0.283 0.125 0.129-0.109 0.238-0.242 0.388-0.396-0.238-0.097-0.424-0.174-0.674-0.271zM4.512 18.433c-0.040 0.008-0.085 0.020-0.125 0.028-0.073 0.198-0.149 0.396-0.254 0.679 0.303-0.061 0.513-0.101 0.723-0.141-0.117-0.19-0.23-0.38-0.343-0.565zM6.709 18.341c-0.158 0.194-0.263 0.319-0.359 0.452-0.109 0.153-0.105 0.275 0.121 0.291 0.162 0.008 0.327 0 0.545 0-0.097-0.234-0.182-0.436-0.307-0.743zM5.372 20.719c0-0.226 0.008-0.38-0.004-0.533-0.004-0.061-0.040-0.145-0.089-0.17-0.044-0.024-0.133 0.004-0.186 0.036-0.141 0.097-0.275 0.206-0.412 0.311 0.024 0.036 0.044 0.069 0.069 0.105 0.19 0.073 0.38 0.149 0.622 0.25zM6.41 20.461c0.020-0.032 0.040-0.069 0.057-0.101-0.133-0.101-0.263-0.202-0.4-0.295-0.053-0.036-0.133-0.073-0.182-0.057s-0.101 0.101-0.105 0.158c-0.016 0.162-0.004 0.323-0.004 0.549 0.246-0.101 0.44-0.178 0.634-0.254z"></path>
<path fill="#fc3" style="fill: var(--color1, #fc3)" d="M25.326 21.41c-1.24 0.008-2.282-1.002-2.298-2.229-0.016-1.256 1.010-2.314 2.27-2.33 1.252-0.016 2.278 1.014 2.29 2.302 0.012 1.224-1.014 2.246-2.262 2.258zM24.482 17.953c-0.008 0.036-0.020 0.073-0.028 0.109 0.186 0.117 0.372 0.234 0.557 0.351 0.028-0.21 0.061-0.42 0.089-0.63 0-0.008-0.012-0.016-0.044-0.057-0.186 0.073-0.38 0.149-0.574 0.226zM23.876 18.946c0.222 0 0.384 0.016 0.545-0.004 0.19-0.020 0.254-0.125 0.121-0.291-0.105-0.133-0.214-0.267-0.372-0.464-0.121 0.319-0.198 0.513-0.295 0.759zM26.183 18.062c-0.016-0.036-0.028-0.073-0.044-0.113-0.198-0.081-0.392-0.158-0.626-0.254 0 0.214-0.008 0.376 0.004 0.541 0.004 0.061 0.048 0.153 0.089 0.162 0.065 0.016 0.153-0.012 0.21-0.053 0.129-0.081 0.246-0.186 0.368-0.283zM24.159 20.037c0.17-0.182 0.291-0.295 0.392-0.424 0.113-0.141 0.077-0.254-0.113-0.271-0.17-0.016-0.343-0.004-0.569-0.004 0.101 0.238 0.182 0.436 0.291 0.699zM25.048 20.55c0.032-0.020 0.069-0.040 0.101-0.061-0.040-0.21-0.085-0.42-0.125-0.626-0.17 0.125-0.343 0.246-0.513 0.372-0.012 0.008-0.004 0.036-0.008 0.093 0.178 0.073 0.363 0.145 0.545 0.222zM26.502 18.32c-0.040-0.008-0.081-0.020-0.121-0.028-0.113 0.186-0.226 0.376-0.343 0.561 0.202 0.028 0.404 0.052 0.61 0.077 0.012 0 0.024-0.024 0.069-0.073-0.065-0.166-0.141-0.351-0.214-0.537zM26.764 19.29c-0.299 0.052-0.513 0.093-0.723 0.129 0.121 0.174 0.242 0.347 0.368 0.521 0.008 0.012 0.036 0.008 0.093 0.016 0.073-0.186 0.149-0.384 0.263-0.666zM26.13 20.32c0.008-0.036 0.016-0.069 0.024-0.105-0.178-0.121-0.351-0.246-0.529-0.368-0.036 0.21-0.069 0.416-0.105 0.626 0 0.012 0.024 0.028 0.061 0.073 0.178-0.073 0.363-0.149 0.549-0.226z"></path>
</symbol>
<symbol id="icon-car-coupe" viewBox="0 0 32 32">
<path fill="#fc3" style="fill: var(--color1, #fc3)" d="M0 17.344c0.125-0.372 0.271-0.74 0.376-1.116 0.093-0.34 0.287-0.586 0.61-0.699 0.966-0.34 1.928-0.707 2.918-0.97 1.051-0.283 2.13-0.461 3.193-0.687 0.129-0.028 0.263-0.065 0.384-0.121 1.706-0.76 3.411-1.524 5.117-2.288 2.086-0.934 4.284-1.176 6.544-1.083 2.789 0.117 5.424 0.845 7.971 1.936 1.095 0.469 2.239 0.748 3.419 0.913 0.744 0.105 0.845 0.234 0.845 0.99 0 0.206 0 0.416 0 0.622-0.004 0.432 0.024 0.812 0.303 1.217 0.542 0.772 0.218 2.146-0.542 2.696-0.073 0.053-0.162 0.101-0.251 0.117-0.784 0.15-1.568 0.295-2.397 0.449-0.073-1.099-0.521-1.964-1.475-2.522-0.618-0.36-1.285-0.465-1.985-0.327-0.756 0.15-1.362 0.55-1.807 1.176s-0.578 1.342-0.505 2.13c-4.794 0.097-9.559 0.194-14.329 0.287 0.437-2.381-1.366-3.682-2.829-3.654-1.71 0.032-3.084 1.463-2.841 3.424-0.76-0.089-1.516-0.15-2.191-0.513-0.17-0.093-0.251-0.388-0.331-0.606-0.089-0.243-0.133-0.501-0.194-0.752-0.004-0.206-0.004-0.412-0.004-0.618zM17.813 11.123c-2.332 0.19-4.543 0.505-6.33 1.916 0.141 0.4 0.251 0.719 0.376 1.075 1.673-0.048 3.395-0.097 5.117-0.154 0.061 0 0.158-0.077 0.17-0.129 0.222-0.877 0.437-1.754 0.667-2.708zM18.261 13.856c0.145 0 0.259 0.004 0.368 0 1.265-0.040 2.53-0.085 3.795-0.125 0.74-0.024 0.744-0.016 0.909-0.732 0.024-0.105 0-0.243-0.053-0.34-0.15-0.271-0.307-0.542-0.493-0.792-0.089-0.121-0.234-0.238-0.376-0.279-1.144-0.34-2.32-0.449-3.504-0.437-0.081 0-0.21 0.113-0.234 0.198-0.065 0.218-0.081 0.449-0.117 0.675-0.101 0.598-0.194 1.2-0.295 1.831zM25.864 13.694c0.061-0.412-0.057-0.651-0.416-0.837-0.384-0.198-0.78-0.384-1.176-0.562-0.327-0.15-0.659-0.283-0.99-0.42 0.368 0.594 0.76 1.14 1.16 1.677 0.048 0.065 0.145 0.133 0.222 0.137 0.4 0.012 0.804 0.004 1.2 0.004z"></path>
<path fill="#fc3" style="fill: var(--color1, #fc3)" d="M25.576 16.899c1.338-0.008 2.433 1.099 2.425 2.445-0.008 1.281-1.116 2.365-2.417 2.365-1.306 0-2.385-1.071-2.397-2.373-0.016-1.338 1.051-2.429 2.389-2.437zM24.619 18.096c0.198 0.174 0.327 0.299 0.461 0.408 0.158 0.125 0.275 0.069 0.295-0.117 0.020-0.178 0.004-0.36 0.004-0.602-0.263 0.109-0.465 0.19-0.76 0.311zM25.382 20.824c0-0.251 0.016-0.433-0.004-0.614-0.020-0.178-0.137-0.218-0.279-0.113-0.15 0.109-0.283 0.238-0.481 0.408 0.295 0.125 0.505 0.214 0.764 0.319zM26.785 18.31c-0.158 0.202-0.275 0.331-0.372 0.477-0.040 0.057-0.069 0.15-0.053 0.21 0.012 0.044 0.105 0.089 0.166 0.093 0.174 0.012 0.348 0.004 0.578 0.004-0.105-0.251-0.19-0.465-0.319-0.784zM27.108 19.522c-0.23 0-0.392-0.008-0.558 0.004-0.073 0.004-0.17 0.044-0.198 0.097-0.024 0.053 0.016 0.15 0.057 0.21 0.097 0.145 0.214 0.279 0.368 0.477 0.133-0.319 0.218-0.521 0.331-0.788zM24.457 18.383c-0.044 0.020-0.089 0.040-0.133 0.061-0.077 0.202-0.154 0.408-0.247 0.651 0.222 0 0.388 0.012 0.55-0.004 0.069-0.008 0.154-0.053 0.19-0.105 0.024-0.040-0.012-0.133-0.044-0.186-0.097-0.145-0.21-0.279-0.315-0.416zM24.352 20.23c0.178-0.17 0.331-0.291 0.445-0.441 0.105-0.141 0.049-0.259-0.141-0.267-0.174-0.008-0.348 0-0.578 0 0.093 0.243 0.174 0.449 0.275 0.707zM25.799 17.788c0 0.238-0.012 0.412 0.004 0.586 0.020 0.186 0.117 0.263 0.291 0.129 0.141-0.109 0.279-0.23 0.42-0.344-0.016-0.036-0.036-0.069-0.053-0.105-0.206-0.081-0.408-0.162-0.663-0.267zM26.454 20.557c0.012-0.036 0.024-0.073 0.036-0.109-0.125-0.105-0.247-0.218-0.38-0.311-0.057-0.040-0.146-0.073-0.206-0.057-0.044 0.012-0.093 0.101-0.097 0.162-0.012 0.17-0.004 0.344-0.004 0.582 0.251-0.105 0.449-0.186 0.651-0.267z"></path>
<path fill="#fc3" style="fill: var(--color1, #fc3)" d="M3.172 19.276c0.028-1.35 1.124-2.409 2.453-2.373 1.334 0.032 2.389 1.144 2.356 2.478-0.032 1.289-1.148 2.352-2.445 2.328-1.318-0.024-2.389-1.124-2.365-2.433zM4.611 18.108c0.19 0.166 0.319 0.307 0.473 0.4 0.057 0.032 0.255-0.036 0.263-0.081 0.028-0.19 0.012-0.392 0.012-0.651-0.271 0.121-0.473 0.21-0.748 0.331zM4.053 19.094c0.259 0 0.437 0.012 0.61-0.004 0.182-0.020 0.226-0.137 0.117-0.279-0.113-0.146-0.243-0.271-0.416-0.457-0.117 0.279-0.202 0.477-0.311 0.74zM4.365 20.262c0.178-0.198 0.307-0.319 0.416-0.461s0.073-0.259-0.113-0.279c-0.182-0.020-0.364-0.004-0.61-0.004 0.105 0.259 0.19 0.465 0.307 0.744zM5.787 17.781c0 0.247-0.012 0.412 0.004 0.574 0.008 0.069 0.057 0.162 0.109 0.182s0.15-0.024 0.206-0.065c0.133-0.097 0.259-0.206 0.445-0.36-0.291-0.125-0.493-0.214-0.764-0.331zM6.786 18.342c-0.17 0.194-0.291 0.319-0.404 0.457-0.129 0.158-0.073 0.271 0.113 0.291 0.178 0.020 0.36 0.004 0.598 0.004-0.105-0.259-0.19-0.461-0.307-0.752zM7.093 19.523c-0.234 0-0.408-0.012-0.578 0.004-0.065 0.008-0.15 0.057-0.182 0.113-0.020 0.040 0.016 0.133 0.053 0.182 0.105 0.137 0.226 0.267 0.388 0.457 0.121-0.287 0.21-0.497 0.319-0.756zM4.619 20.517c0.283 0.117 0.493 0.202 0.744 0.303 0-0.243 0.012-0.416-0.004-0.59-0.016-0.194-0.129-0.251-0.287-0.125-0.133 0.109-0.255 0.234-0.453 0.412zM6.543 20.513c-0.194-0.17-0.315-0.287-0.445-0.384-0.057-0.040-0.146-0.069-0.21-0.053-0.044 0.012-0.089 0.105-0.093 0.162-0.012 0.174-0.004 0.348-0.004 0.582 0.251-0.101 0.453-0.186 0.752-0.307z"></path>
</symbol>
<symbol id="icon-car-mini" viewBox="0 0 32 32">
<path fill="#fc3" style="fill: var(--color1, #fc3)" d="M32.001 18.961c-0.085 0.284-0.175 0.568-0.28 0.921-0.645-2.078-1.965-3.109-4.096-2.756-1.591 0.264-2.432 1.445-2.699 3.528-5.257 0.085-10.522 0.166-15.791 0.252 0.244-2.216-1.453-3.82-3.268-3.877-1.839-0.057-3.775 1.587-3.442 3.97-0.714 0-1.425 0-2.164 0-0.252-0.93-0.28-1.875 0.012-2.825 0.483-1.551 1.514-2.578 3.040-3.093 1.433-0.483 2.781-1.137 4.12-1.831 2.054-1.064 4.132-2.087 6.215-3.089 1.303-0.629 2.724-0.869 4.149-1.047 2.249-0.284 4.502-0.227 6.755-0.053 1.068 0.081 2.123 0.239 3.093 0.755 1.060 0.564 1.786 1.441 2.391 2.44 0.252 0.418 0.455 0.861 0.674 1.299 0.252 0.503 0.284 1.039 0.199 1.583-0.077 0.471 0.008 0.889 0.231 1.315 0.321 0.613 0.576 1.258 0.861 1.888 0 0.207 0 0.414 0 0.621zM20.858 9.986c-1.445-0.028-2.854 0.020-4.246 0.28-1.729 0.321-3.28 1.088-4.814 1.904-0.17 0.093-0.459 0.735-0.365 0.901 0.231 0.43 0.248 0.865 0.073 1.38 2.996-0.223 5.943-0.438 8.902-0.658 0.154-1.287 0.3-2.533 0.451-3.808zM22.745 13.574c0.926-0.138 1.831-0.252 2.724-0.41 0.832-0.146 1.344-0.702 1.672-1.441 0.292-0.654 0.13-1.007-0.548-1.246-0.873-0.313-1.786-0.378-2.695-0.426-0.516-0.028-1.031-0.004-1.567-0.004 0.134 1.141 0.268 2.306 0.414 3.528z"></path>
<path fill="#fc3" style="fill: var(--color1, #fc3)" d="M25.622 20.35c0.073-1.534 1.303-2.712 2.777-2.651 1.563 0.065 2.744 1.336 2.663 2.862-0.077 1.457-1.36 2.639-2.797 2.578-1.51-0.061-2.712-1.327-2.643-2.789zM28.102 18.698c-0.296 0.122-0.536 0.219-0.869 0.353 0.223 0.191 0.382 0.337 0.548 0.471 0.158 0.126 0.288 0.053 0.313-0.118 0.028-0.207 0.008-0.422 0.008-0.706zM28.573 18.689c0 0.268-0.012 0.455 0.004 0.641 0.008 0.077 0.057 0.183 0.114 0.211 0.061 0.028 0.175-0.004 0.235-0.049 0.158-0.114 0.304-0.248 0.52-0.43-0.337-0.146-0.576-0.248-0.873-0.373zM26.62 20.187c0.264 0 0.459 0.012 0.649-0.008 0.073-0.008 0.17-0.069 0.203-0.134 0.024-0.045-0.020-0.15-0.061-0.207-0.122-0.162-0.256-0.317-0.382-0.475-0.037 0.016-0.069 0.032-0.106 0.049-0.093 0.239-0.187 0.479-0.304 0.775zM26.981 21.527c0.183-0.219 0.317-0.378 0.451-0.536 0.126-0.15 0.089-0.296-0.081-0.329-0.219-0.041-0.455-0.008-0.743-0.008 0.13 0.309 0.231 0.54 0.373 0.873zM29.709 19.323c-0.195 0.223-0.333 0.365-0.451 0.52-0.041 0.057-0.073 0.158-0.053 0.215s0.114 0.118 0.183 0.122c0.199 0.016 0.402 0.004 0.674 0.004-0.126-0.296-0.219-0.532-0.353-0.861zM30.058 20.654c-0.272 0-0.475-0.008-0.674 0.004-0.065 0.004-0.154 0.065-0.179 0.122s0.004 0.158 0.045 0.211c0.126 0.158 0.272 0.3 0.463 0.511 0.13-0.325 0.227-0.56 0.345-0.848zM28.573 22.14c0.296-0.122 0.528-0.219 0.84-0.349-0.207-0.191-0.349-0.337-0.507-0.463-0.053-0.041-0.158-0.065-0.215-0.041s-0.106 0.118-0.11 0.187c-0.020 0.195-0.008 0.39-0.008 0.666zM28.098 22.132c0-0.276 0.020-0.491-0.004-0.702-0.024-0.195-0.162-0.227-0.313-0.118-0.17 0.126-0.329 0.268-0.495 0.402 0.020 0.037 0.041 0.073 0.061 0.11 0.231 0.097 0.459 0.191 0.751 0.309z"></path>
<path fill="#fc3" style="fill: var(--color1, #fc3)" d="M5.818 17.695c1.547 0.049 2.716 1.279 2.679 2.817-0.037 1.461-1.319 2.675-2.777 2.63-1.506-0.045-2.704-1.299-2.663-2.777 0.041-1.514 1.287-2.716 2.76-2.671zM6.004 18.693c0 0.28-0.008 0.475 0.004 0.67 0.004 0.065 0.061 0.158 0.118 0.183s0.158 0.004 0.211-0.037c0.166-0.13 0.317-0.28 0.524-0.467-0.321-0.134-0.552-0.227-0.857-0.349zM4.673 19.055c0.215 0.187 0.365 0.329 0.532 0.455 0.053 0.041 0.154 0.065 0.211 0.041s0.118-0.114 0.122-0.179c0.016-0.203 0.004-0.406 0.004-0.674-0.3 0.122-0.544 0.219-0.869 0.357zM7.198 19.436c-0.037-0.024-0.073-0.049-0.11-0.069-0.138 0.166-0.284 0.329-0.418 0.499-0.118 0.158-0.057 0.288 0.122 0.313 0.207 0.028 0.422 0.008 0.702 0.008-0.118-0.3-0.207-0.528-0.296-0.751zM4.056 20.183c0.284 0 0.479 0.012 0.674-0.004 0.191-0.012 0.26-0.175 0.146-0.321-0.13-0.17-0.272-0.337-0.406-0.507-0.037 0.020-0.069 0.041-0.106 0.061-0.093 0.235-0.191 0.471-0.309 0.771zM7.072 21.474c0.037-0.016 0.073-0.032 0.11-0.049 0.093-0.244 0.187-0.487 0.296-0.775-0.268 0-0.455-0.012-0.637 0.004-0.073 0.008-0.171 0.065-0.207 0.126-0.028 0.049 0.008 0.154 0.049 0.211 0.126 0.171 0.26 0.325 0.39 0.483zM4.405 21.511c0.191-0.215 0.333-0.361 0.455-0.524 0.041-0.053 0.069-0.154 0.045-0.215-0.024-0.057-0.114-0.114-0.179-0.118-0.199-0.016-0.402-0.004-0.678-0.004 0.122 0.296 0.223 0.532 0.357 0.861zM4.75 21.718c0.012 0.041 0.024 0.077 0.037 0.118 0.231 0.093 0.467 0.187 0.755 0.3 0-0.268 0.012-0.471-0.004-0.674-0.012-0.191-0.17-0.26-0.321-0.142-0.162 0.126-0.313 0.264-0.467 0.398zM6.759 21.831c0.012-0.041 0.024-0.077 0.041-0.118-0.154-0.134-0.309-0.272-0.467-0.398-0.15-0.118-0.309-0.053-0.321 0.142-0.012 0.203-0.004 0.406-0.004 0.674 0.288-0.114 0.52-0.207 0.751-0.3z"></path>
</symbol>
<symbol id="icon-crown" viewBox="0 0 32 32">
<path d="M5.2 26.8h21.6v2.7h-21.6v-2.7zM28.15 6.55c-0.358 0-0.701 0.142-0.955 0.395s-0.395 0.597-0.395 0.955c0 0.154 0.029 0.306 0.086 0.448 0.056 0.138 0.132 0.267 0.225 0.382l-5.72 4.57-4.733-8.296c0.203-0.115 0.374-0.279 0.498-0.477 0.127-0.203 0.194-0.438 0.193-0.678 0-0.358-0.142-0.701-0.395-0.955s-0.597-0.395-0.955-0.395-0.701 0.142-0.955 0.395c-0.253 0.253-0.395 0.597-0.395 0.955-0.001 0.24 0.066 0.474 0.193 0.678 0.124 0.198 0.295 0.361 0.498 0.477l-4.739 8.296-5.715-4.57c0.094-0.115 0.17-0.244 0.225-0.382 0.057-0.143 0.086-0.295 0.086-0.448 0-0.267-0.079-0.528-0.228-0.75s-0.359-0.395-0.606-0.497c-0.247-0.102-0.518-0.129-0.78-0.077s-0.502 0.181-0.691 0.369c-0.189 0.189-0.317 0.429-0.369 0.691s-0.025 0.533 0.077 0.78c0.102 0.247 0.275 0.458 0.497 0.606s0.483 0.227 0.75 0.227c0.019-0.001 0.037-0.004 0.055-0.009s0.037-0.011 0.055-0.014l0.62 7.437 0.62 7.436h21.6l0.62-7.436 0.62-7.437c0.018 0.003 0.037 0.007 0.054 0.014s0.037 0.009 0.057 0.009c0.358 0 0.701-0.142 0.955-0.395s0.395-0.597 0.395-0.955-0.142-0.701-0.395-0.955c-0.253-0.253-0.597-0.395-0.955-0.395z"></path>
</symbol>
<symbol id="icon-instagram" viewBox="0 0 32 32">
<path  d="M15.996 10.664c-2.938 0-5.335 2.398-5.335 5.336s2.398 5.336 5.335 5.336c2.938 0 5.335-2.398 5.335-5.336s-2.398-5.336-5.335-5.336zM31.998 16c0-2.21 0.020-4.399-0.104-6.604-0.124-2.562-0.708-4.835-2.582-6.709-1.877-1.877-4.147-2.458-6.709-2.582-2.209-0.124-4.399-0.104-6.604-0.104-2.21 0-4.399-0.020-6.604 0.104-2.562 0.124-4.835 0.708-6.708 2.582-1.877 1.877-2.458 4.147-2.582 6.709-0.124 2.209-0.104 4.399-0.104 6.604s-0.020 4.399 0.104 6.605c0.124 2.562 0.708 4.835 2.582 6.709 1.877 1.877 4.147 2.458 6.708 2.582 2.209 0.124 4.399 0.104 6.604 0.104 2.209 0 4.399 0.020 6.604-0.104 2.562-0.124 4.835-0.708 6.709-2.582 1.877-1.877 2.458-4.147 2.582-6.709 0.128-2.206 0.104-4.395 0.104-6.605zM15.996 24.209c-4.543 0-8.209-3.666-8.209-8.21s3.666-8.21 8.209-8.21c4.543 0 8.209 3.666 8.209 8.21s-3.666 8.21-8.209 8.21zM24.541 9.372c-1.061 0-1.917-0.857-1.917-1.917s0.857-1.917 1.917-1.917c1.061 0 1.917 0.857 1.917 1.917 0 0.252-0.049 0.501-0.145 0.734s-0.238 0.444-0.416 0.622-0.39 0.319-0.622 0.416c-0.233 0.096-0.482 0.146-0.734 0.145z"></path>
</symbol>
<symbol id="icon-Arrow-Down" viewBox="0 0 32 32">
<path d="M15.292 22.708l-10-10c-0.093-0.093-0.167-0.203-0.217-0.325s-0.076-0.252-0.076-0.383 0.026-0.261 0.076-0.383c0.050-0.121 0.124-0.232 0.217-0.325s0.203-0.167 0.325-0.217c0.121-0.050 0.252-0.076 0.383-0.076s0.261 0.026 0.383 0.076c0.121 0.050 0.232 0.124 0.325 0.217l9.292 9.294 9.293-9.294c0.188-0.188 0.442-0.293 0.707-0.293s0.52 0.105 0.707 0.293c0.188 0.188 0.293 0.442 0.293 0.707s-0.105 0.52-0.293 0.707l-10 10c-0.093 0.093-0.203 0.167-0.325 0.217s-0.252 0.076-0.383 0.076c-0.131 0-0.261-0.026-0.383-0.076s-0.232-0.124-0.325-0.217z"></path>
</symbol>
<symbol id="icon-Arrow-Fill" viewBox="0 0 32 32">
<path fill="#151206" style="fill: var(--color3, #151206)" d="M16 32c-8.837 0-16-7.163-16-16s7.163-16 16-16c8.837 0 16 7.163 16 16s-7.163 16-16 16z"></path>
<path fill="#ffd700" style="fill: var(--color1, #ffd700)" d="M9.292 15.292l10-10c0.093-0.093 0.203-0.167 0.325-0.217s0.252-0.076 0.383-0.076 0.262 0.026 0.383 0.076c0.121 0.050 0.232 0.124 0.325 0.217s0.167 0.203 0.217 0.325c0.050 0.121 0.076 0.252 0.076 0.383s-0.026 0.261-0.076 0.383c-0.050 0.121-0.124 0.232-0.217 0.325l-9.294 9.292 9.294 9.293c0.188 0.188 0.293 0.442 0.293 0.707s-0.105 0.52-0.293 0.707c-0.188 0.188-0.442 0.293-0.707 0.293s-0.52-0.105-0.707-0.293l-10-10c-0.093-0.093-0.167-0.203-0.217-0.325s-0.076-0.252-0.076-0.383c0-0.131 0.026-0.261 0.076-0.383s0.124-0.232 0.217-0.325z"></path>
</symbol>
<symbol id="icon-Arrow-Left" viewBox="0 0 32 32">
<path d="M9.292 15.292l10-10c0.093-0.093 0.203-0.167 0.325-0.217s0.252-0.076 0.383-0.076 0.262 0.026 0.383 0.076c0.121 0.050 0.232 0.124 0.325 0.217s0.167 0.203 0.217 0.325c0.050 0.121 0.076 0.252 0.076 0.383s-0.026 0.261-0.076 0.383c-0.050 0.121-0.124 0.232-0.217 0.325l-9.294 9.292 9.294 9.293c0.188 0.188 0.293 0.442 0.293 0.707s-0.105 0.52-0.293 0.707c-0.188 0.188-0.442 0.293-0.707 0.293s-0.52-0.105-0.707-0.293l-10-10c-0.093-0.093-0.167-0.203-0.217-0.325s-0.076-0.252-0.076-0.383c0-0.131 0.026-0.261 0.076-0.383s0.124-0.232 0.217-0.325z"></path>
</symbol>
<symbol id="icon-Arrow-Right" viewBox="0 0 32 32">
<path  d="M22.708 16.708l-10 10c-0.093 0.093-0.203 0.167-0.325 0.217s-0.252 0.076-0.383 0.076-0.261-0.026-0.383-0.076c-0.121-0.050-0.232-0.124-0.325-0.217s-0.167-0.203-0.217-0.325c-0.050-0.121-0.076-0.252-0.076-0.383s0.026-0.262 0.076-0.383c0.050-0.121 0.124-0.232 0.217-0.325l9.294-9.293-9.294-9.293c-0.188-0.188-0.293-0.442-0.293-0.707s0.105-0.52 0.293-0.707c0.188-0.188 0.442-0.293 0.707-0.293s0.52 0.105 0.707 0.293l10 10c0.093 0.093 0.167 0.203 0.217 0.325s0.076 0.252 0.076 0.383c0 0.131-0.026 0.262-0.076 0.383s-0.124 0.232-0.217 0.325z"></path>
</symbol>
<symbol id="icon-Arrow-Up" viewBox="0 0 32 32">
<path  d="M16.708 9.292l10 10c0.093 0.093 0.167 0.203 0.217 0.325s0.076 0.252 0.076 0.383-0.026 0.262-0.076 0.383c-0.050 0.121-0.124 0.232-0.217 0.325s-0.203 0.167-0.325 0.217c-0.121 0.050-0.252 0.076-0.383 0.076s-0.262-0.026-0.383-0.076c-0.121-0.050-0.232-0.124-0.325-0.217l-9.293-9.294-9.293 9.294c-0.188 0.188-0.442 0.293-0.707 0.293s-0.52-0.105-0.707-0.293c-0.188-0.188-0.293-0.442-0.293-0.707s0.105-0.52 0.293-0.707l10-10c0.093-0.093 0.203-0.167 0.325-0.217s0.252-0.076 0.383-0.076c0.131 0 0.262 0.026 0.383 0.076s0.232 0.124 0.325 0.217z"></path>
</symbol>
<symbol id="icon-burger" viewBox="0 0 32 32">
<path fill="#fff" style="fill: var(--color2, #fff)" d="M4 5.334h24v2.667h-24v-2.667zM12 14.667h16v2.667h-16v-2.667zM4 24.001h24v2.667h-24v-2.667z"></path>
</symbol>
<symbol id="icon-Call-Fill" viewBox="0 0 32 32">
<path fill="#fff" style="fill: var(--color2, #fff)" d="M16 0c8.837 0 16 7.163 16 16s-7.163 16-16 16c-8.837 0-16-7.163-16-16s7.163-16 16-16z"></path>
<path fill="#000" style="fill: var(--color4, #000)" d="M21.999 18.947v2.357c0 0.169-0.064 0.331-0.179 0.455s-0.273 0.199-0.441 0.21c-0.291 0.020-0.529 0.031-0.713 0.031-5.891 0-10.666-4.775-10.666-10.667 0-0.184 0.010-0.422 0.031-0.713 0.012-0.168 0.087-0.326 0.21-0.441s0.286-0.179 0.455-0.179h2.357c0.083-0 0.162 0.031 0.224 0.086s0.1 0.132 0.108 0.214c0.015 0.153 0.029 0.275 0.043 0.368 0.133 0.925 0.404 1.824 0.805 2.667 0.063 0.133 0.022 0.293-0.098 0.378l-1.439 1.028c0.88 2.050 2.513 3.683 4.562 4.563l1.027-1.436c0.042-0.059 0.103-0.101 0.173-0.119s0.144-0.011 0.209 0.020c0.843 0.401 1.742 0.671 2.666 0.803 0.093 0.013 0.215 0.027 0.367 0.043 0.082 0.008 0.158 0.047 0.213 0.108s0.085 0.141 0.085 0.224z"></path>
</symbol>
<symbol id="icon-Call" viewBox="0 0 32 32">
<path d="M28 21.893v4.715c0 0.338-0.128 0.663-0.358 0.91s-0.545 0.397-0.882 0.421c-0.583 0.040-1.059 0.061-1.427 0.061-11.783 0-21.333-9.551-21.333-21.333 0-0.368 0.020-0.844 0.061-1.427 0.024-0.337 0.174-0.652 0.421-0.882s0.572-0.358 0.91-0.358h4.715c0.165-0 0.325 0.061 0.448 0.172s0.2 0.263 0.216 0.428c0.031 0.307 0.059 0.551 0.085 0.736 0.265 1.849 0.808 3.648 1.611 5.335 0.127 0.267 0.044 0.585-0.196 0.756l-2.877 2.056c1.759 4.099 5.026 7.366 9.125 9.125l2.053-2.872c0.084-0.117 0.206-0.201 0.346-0.238s0.288-0.023 0.418 0.039c1.687 0.801 3.485 1.343 5.333 1.607 0.185 0.027 0.429 0.055 0.733 0.085 0.164 0.017 0.317 0.094 0.427 0.217s0.17 0.282 0.17 0.447z"></path>
</symbol>
<symbol id="icon-Clean" viewBox="0 0 32 32">
<path  d="M25.333 0l-1.926 6.836-3.852 2.012 3.852 2.011 1.926 6.032 1.926-6.033 3.852-2.011-3.852-2.010-1.926-6.837zM12.444 5.334l-0.889 3.556-2.667 0.889 2.667 0.889 0.889 3.556 0.889-3.556 2.667-0.889-2.667-0.889-0.889-3.556zM0 21.336c0-0.236 0.094-0.462 0.26-0.629s0.393-0.26 0.629-0.26h2.667c0.236 0 0.462 0.094 0.629 0.26s0.26 0.393 0.26 0.629v9.775c0 0.236-0.094 0.462-0.26 0.629s-0.393 0.26-0.629 0.26h-2.667c-0.236 0-0.462-0.094-0.629-0.26s-0.26-0.393-0.26-0.629v-9.775zM10.404 20.615c0.829-0.378 2.853 0 2.853 0l5.89 1.321c0 0 1.473 0.472 2.853 0.472s0.555 1.89-0.369 2.55c-0.923 0.66-1.595 0.624-1.595 0.624l-4.756-0.058c0 0 4.142 0.756 5.707 0.85 0.792 0.048 2.151-0.51 3.671-1.134 1.48-0.608 3.111-1.277 4.519-1.51 2.853-0.471 3.314 2.078 2.393 3.022s-8.283 4.531-9.571 5.003c-1.010 0.37-2.23 0.247-3.607 0.108-0.381-0.038-0.775-0.078-1.179-0.108-1.609-0.122-2.837-0.513-4.053-0.9-1.305-0.414-2.595-0.824-4.322-0.894-0.58-0.023-1.936 0.049-2.618 0.089v-7.878c1.179-0.42 3.565-1.276 4.182-1.557z"></path>
</symbol>
<symbol id="icon-Close" viewBox="0 0 32 32">
<path fill="#fff" style="fill: var(--color2, #fff)" d="M25.708 24.293c0.093 0.093 0.167 0.203 0.217 0.325s0.076 0.252 0.076 0.383-0.026 0.262-0.076 0.383c-0.050 0.121-0.124 0.232-0.217 0.325s-0.203 0.167-0.325 0.217c-0.121 0.050-0.252 0.076-0.383 0.076s-0.262-0.026-0.383-0.076c-0.121-0.050-0.232-0.124-0.325-0.217l-8.293-8.294-8.293 8.294c-0.188 0.188-0.442 0.293-0.707 0.293s-0.52-0.105-0.707-0.293c-0.188-0.188-0.293-0.442-0.293-0.707s0.105-0.52 0.293-0.707l8.294-8.293-8.294-8.293c-0.188-0.188-0.293-0.442-0.293-0.707s0.105-0.52 0.293-0.707c0.188-0.188 0.442-0.293 0.707-0.293s0.52 0.105 0.707 0.293l8.293 8.294 8.293-8.294c0.188-0.188 0.442-0.293 0.707-0.293s0.52 0.105 0.707 0.293c0.188 0.188 0.293 0.442 0.293 0.707s-0.105 0.52-0.293 0.707l-8.294 8.293 8.294 8.293z"></path>
</symbol>
<symbol id="icon-copy" viewBox="0 0 32 32">
<path fill="#fff" style="fill: var(--color2, #fff)" d="M20.32 2.666h-5.192c-2.352 0-4.216 0-5.673 0.197-1.501 0.203-2.716 0.629-3.673 1.591-0.959 0.961-1.384 2.181-1.585 3.688-0.196 1.464-0.196 3.335-0.196 5.696v7.784c0 2.011 1.227 3.733 2.969 4.456-0.089-1.213-0.089-2.913-0.089-4.329v-6.68c0-1.708 0-3.181 0.157-4.36 0.169-1.264 0.551-2.475 1.529-3.457s2.185-1.365 3.444-1.536c1.173-0.157 2.64-0.157 4.343-0.157h4.093c1.701 0 3.165 0 4.34 0.157-0.352-0.898-0.966-1.669-1.763-2.213s-1.739-0.835-2.703-0.836z"></path>
<path fill="#fff" style="fill: var(--color2, #fff)" d="M8.801 15.195c0-3.635 0-5.452 1.125-6.581 1.124-1.129 2.933-1.129 6.555-1.129h3.84c3.62 0 5.431 0 6.556 1.129 1.124 1.129 1.124 2.947 1.124 6.581v6.427c0 3.635 0 5.452-1.124 6.581-1.125 1.129-2.936 1.129-6.556 1.129h-3.84c-3.62 0-5.431 0-6.555-1.129-1.125-1.129-1.125-2.947-1.125-6.581v-6.427z"></path>
</symbol>
<symbol id="icon-Default" viewBox="0 0 32 32">
<path d="M28 16c0 0.265-0.105 0.52-0.293 0.707s-0.442 0.293-0.707 0.293h-10v10c0 0.265-0.105 0.52-0.293 0.707s-0.442 0.293-0.707 0.293c-0.265 0-0.52-0.105-0.707-0.293s-0.293-0.442-0.293-0.707v-10h-10c-0.265 0-0.52-0.105-0.707-0.293s-0.293-0.442-0.293-0.707c0-0.265 0.105-0.52 0.293-0.707s0.442-0.293 0.707-0.293h10v-10c0-0.265 0.105-0.52 0.293-0.707s0.442-0.293 0.707-0.293c0.265 0 0.52 0.105 0.707 0.293s0.293 0.442 0.293 0.707v10h10c0.265 0 0.52 0.105 0.707 0.293s0.293 0.442 0.293 0.707z"></path>
</symbol>
<symbol id="icon-crown" viewBox="0 0 32 32">
<path d="M5.2 26.8h21.6v2.7h-21.6v-2.7zM28.15 6.55c-0.358 0-0.701 0.142-0.955 0.395s-0.395 0.597-0.395 0.955c0 0.154 0.029 0.306 0.086 0.448 0.056 0.138 0.132 0.267 0.225 0.382l-5.72 4.57-4.733-8.296c0.203-0.115 0.374-0.279 0.498-0.477 0.127-0.203 0.194-0.438 0.193-0.678 0-0.358-0.142-0.701-0.395-0.955s-0.597-0.395-0.955-0.395-0.701 0.142-0.955 0.395c-0.253 0.253-0.395 0.597-0.395 0.955-0.001 0.24 0.066 0.474 0.193 0.678 0.124 0.198 0.295 0.361 0.498 0.477l-4.739 8.296-5.715-4.57c0.094-0.115 0.17-0.244 0.225-0.382 0.057-0.143 0.086-0.295 0.086-0.448 0-0.267-0.079-0.528-0.228-0.75s-0.359-0.395-0.606-0.497c-0.247-0.102-0.518-0.129-0.78-0.077s-0.502 0.181-0.691 0.369c-0.189 0.189-0.317 0.429-0.369 0.691s-0.025 0.533 0.077 0.78c0.102 0.247 0.275 0.458 0.497 0.606s0.483 0.227 0.75 0.227c0.019-0.001 0.037-0.004 0.055-0.009s0.037-0.011 0.055-0.014l0.62 7.437 0.62 7.436h21.6l0.62-7.436 0.62-7.437c0.018 0.003 0.037 0.007 0.054 0.014s0.037 0.009 0.057 0.009c0.358 0 0.701-0.142 0.955-0.395s0.395-0.597 0.395-0.955-0.142-0.701-0.395-0.955c-0.253-0.253-0.597-0.395-0.955-0.395z"></path>
</symbol>
<symbol id="icon-facebook" viewBox="0 0 32 32">
<path  d="M31.999 16.097c0-8.892-7.164-16.1-16-16.1-8.84 0.002-16.004 7.208-16.004 16.102 0 8.034 5.852 14.694 13.5 15.902v-11.25h-4.060v-4.652h4.064v-3.55c0-4.034 2.39-6.262 6.044-6.262 1.752 0 3.582 0.314 3.582 0.314v3.96h-2.018c-1.986 0-2.606 1.242-2.606 2.516v3.020h4.436l-0.708 4.652h-3.73v11.25c7.648-1.208 13.5-7.868 13.5-15.902z"></path>
</symbol>
<symbol id="icon-Gamepad" viewBox="0 0 32 32">
<path  d="M14.224 8.178l-0.669-0.473c-0.955-0.676-2.096-1.039-3.267-1.039h-0.816c-0.54 0-1.084 0.033-1.592 0.213-3.177 1.128-5.363 5.247-5.204 14.591 0.032 1.883 0.472 3.963 2.171 4.775 0.579 0.279 1.214 0.423 1.857 0.421 0.723 0.012 1.433-0.191 2.040-0.583 0.547-0.357 1.027-0.821 1.507-1.285 0.592-0.573 1.184-1.147 1.899-1.517 0.779-0.404 1.643-0.615 2.52-0.615h2.665c0.877 0 1.741 0.211 2.52 0.613 0.715 0.372 1.307 0.945 1.9 1.519 0.48 0.464 0.96 0.928 1.504 1.285 0.52 0.341 1.193 0.583 2.041 0.583 0.643 0.001 1.278-0.143 1.857-0.421 1.699-0.812 2.139-2.893 2.171-4.775 0.159-9.344-2.027-13.463-5.204-14.589-0.509-0.181-1.056-0.215-1.593-0.215h-0.816c-1.17 0-2.312 0.364-3.267 1.040l-0.669 0.472c-0.52 0.368-1.141 0.565-1.777 0.565s-1.258-0.197-1.777-0.565zM22.335 11.999c0.265 0 0.52 0.105 0.707 0.293s0.293 0.442 0.293 0.707c0 0.265-0.105 0.52-0.293 0.707s-0.442 0.293-0.707 0.293c-0.265 0-0.52-0.105-0.707-0.293s-0.293-0.442-0.293-0.707c0-0.265 0.105-0.52 0.293-0.707s0.442-0.293 0.707-0.293zM10.001 12.333c0.265 0 0.52 0.105 0.707 0.293s0.293 0.442 0.293 0.707v1h1c0.265 0 0.52 0.105 0.707 0.293s0.293 0.442 0.293 0.707-0.105 0.52-0.293 0.707c-0.188 0.188-0.442 0.293-0.707 0.293h-1v1c0 0.265-0.105 0.52-0.293 0.707s-0.442 0.293-0.707 0.293-0.52-0.105-0.707-0.293c-0.188-0.188-0.293-0.442-0.293-0.707v-1h-1c-0.265 0-0.52-0.105-0.707-0.293s-0.293-0.442-0.293-0.707c0-0.265 0.105-0.52 0.293-0.707s0.442-0.293 0.707-0.293h1v-1c0-0.265 0.105-0.52 0.293-0.707s0.442-0.293 0.707-0.293zM25.335 14.999c0 0.265-0.105 0.52-0.293 0.707s-0.442 0.293-0.707 0.293c-0.265 0-0.52-0.105-0.707-0.293s-0.293-0.442-0.293-0.707c0-0.265 0.105-0.52 0.293-0.707s0.442-0.293 0.707-0.293c0.265 0 0.52 0.105 0.707 0.293s0.293 0.442 0.293 0.707zM20.335 15.999c0.265 0 0.52-0.105 0.707-0.293s0.293-0.442 0.293-0.707c0-0.265-0.105-0.52-0.293-0.707s-0.442-0.293-0.707-0.293c-0.265 0-0.52 0.105-0.707 0.293s-0.293 0.442-0.293 0.707c0 0.265 0.105 0.52 0.293 0.707s0.442 0.293 0.707 0.293zM23.335 16.999c0-0.265-0.105-0.52-0.293-0.707s-0.442-0.293-0.707-0.293c-0.265 0-0.52 0.105-0.707 0.293s-0.293 0.442-0.293 0.707c0 0.265 0.105 0.52 0.293 0.707s0.442 0.293 0.707 0.293c0.265 0 0.52-0.105 0.707-0.293s0.293-0.442 0.293-0.707z"></path>
</symbol>
<symbol id="icon-Hot" viewBox="0 0 32 32">
<path  d="M22 10.668c0 2-0.667 4.667-3.867 5.733 0.933-2.267 1.067-4.533 0.4-6.667-0.933-2.8-4-4.933-6.133-6.133-0.533-0.4-1.467 0.133-1.333 0.933 0 1.467-0.4 3.6-2.667 5.867-2.933 2.933-4.4 6-4.4 8.933 0 3.867 2.667 8.667 8 8.667-5.333-5.333-1.333-10-1.333-10 1.067 7.867 6.667 10 9.333 10 2.267 0 6.667-1.6 6.667-8.533 0-4.133-1.733-7.333-3.2-9.2-0.4-0.667-1.333-0.267-1.467 0.4z"></path>
</symbol>
<symbol id="icon-Arrow-fill-left" viewBox="0 0 32 32">
<path fill="#151206" style="fill: var(--color3, #151206)" d="M16 0c8.837 0 16 7.163 16 16s-7.163 16-16 16c-8.837 0-16-7.163-16-16s7.163-16 16-16z"></path>
<path fill="#ffd700" style="fill: var(--color1, #ffd700)" d="M22.708 16.708l-10 10c-0.093 0.093-0.203 0.167-0.325 0.217s-0.252 0.076-0.383 0.076-0.261-0.026-0.383-0.076c-0.121-0.050-0.232-0.124-0.325-0.217s-0.167-0.203-0.217-0.325c-0.050-0.121-0.076-0.252-0.076-0.383s0.026-0.262 0.076-0.383c0.050-0.121 0.124-0.232 0.217-0.325l9.294-9.293-9.294-9.293c-0.188-0.188-0.293-0.442-0.293-0.707s0.105-0.52 0.293-0.707c0.188-0.188 0.442-0.293 0.707-0.293s0.52 0.105 0.707 0.293l10 10c0.093 0.093 0.167 0.203 0.217 0.325s0.076 0.252 0.076 0.383c0 0.131-0.026 0.262-0.076 0.383s-0.124 0.232-0.217 0.325z"></path>
</symbol>
<symbol id="icon-car" viewBox="0 0 32 32">
<path  d="M30 14h-3.586l-5.414-5.414c-0.185-0.187-0.405-0.334-0.648-0.435s-0.503-0.152-0.766-0.151h-14.051c-0.329 0.001-0.652 0.082-0.941 0.237s-0.536 0.379-0.719 0.653l-3.708 5.555c-0.109 0.165-0.167 0.358-0.168 0.555v6c0 0.53 0.211 1.039 0.586 1.414s0.884 0.586 1.414 0.586h2.125c0.22 0.86 0.721 1.623 1.422 2.168s1.565 0.84 2.453 0.84c0.888 0 1.751-0.296 2.453-0.84s1.202-1.307 1.422-2.168h8.25c0.22 0.86 0.721 1.623 1.422 2.168s1.565 0.84 2.453 0.84c0.888 0 1.751-0.296 2.453-0.84s1.202-1.307 1.422-2.168h2.125c0.53 0 1.039-0.211 1.414-0.586s0.586-0.884 0.586-1.414v-5c0-0.53-0.211-1.039-0.586-1.414s-0.884-0.586-1.414-0.586zM5.535 10h14.051l4 4h-20.711l2.66-4zM8 24c-0.396 0-0.782-0.117-1.111-0.337s-0.585-0.532-0.737-0.898c-0.151-0.365-0.191-0.768-0.114-1.156s0.268-0.744 0.547-1.024c0.28-0.28 0.636-0.47 1.024-0.547s0.79-0.038 1.156 0.114c0.365 0.151 0.678 0.408 0.898 0.737s0.337 0.716 0.337 1.111c0 0.53-0.211 1.039-0.586 1.414s-0.884 0.586-1.414 0.586zM24 24c-0.396 0-0.782-0.117-1.111-0.337s-0.585-0.532-0.737-0.898c-0.151-0.365-0.191-0.768-0.114-1.156s0.268-0.744 0.547-1.024c0.28-0.28 0.636-0.47 1.024-0.547s0.79-0.038 1.156 0.114c0.365 0.151 0.678 0.408 0.898 0.737s0.337 0.716 0.337 1.111c0 0.53-0.211 1.039-0.586 1.414s-0.884 0.586-1.414 0.586z"></path>
</symbol>
<symbol id="icon-share" viewBox="0 0 32 32">
<path fill="#fff" style="fill: var(--color2, #fff)" d="M23.5 10.999h-6.5v9.062c0 0.265-0.105 0.52-0.293 0.707s-0.442 0.293-0.707 0.293-0.52-0.105-0.707-0.293c-0.188-0.188-0.293-0.442-0.293-0.707v-9.063h-6.5c-0.928 0.001-1.818 0.37-2.474 1.026s-1.025 1.546-1.026 2.474v12c0.001 0.928 0.37 1.818 1.026 2.474s1.546 1.025 2.474 1.026h15c0.928-0.001 1.818-0.37 2.474-1.026s1.025-1.546 1.026-2.474v-12c-0.001-0.928-0.37-1.818-1.026-2.474s-1.546-1.025-2.474-1.026zM17 5.414l3.293 3.293c0.189 0.18 0.441 0.278 0.702 0.275s0.51-0.108 0.694-0.293c0.184-0.184 0.29-0.434 0.293-0.694s-0.095-0.513-0.275-0.702l-5-5c-0.188-0.187-0.442-0.293-0.707-0.293s-0.519 0.105-0.707 0.293l-5 5c-0.18 0.189-0.278 0.441-0.275 0.702s0.108 0.51 0.293 0.694 0.434 0.289 0.694 0.293c0.261 0.003 0.512-0.095 0.702-0.275l3.293-3.293v5.586h2v-5.586z"></path>
</symbol>
<symbol id="icon-Spray" viewBox="0 0 32 32">
<path d="M5.813 1.938v5.813h7.75v-5.813c0-1.072-0.866-1.938-1.938-1.938h-3.875c-1.072 0-1.938 0.866-1.938 1.938zM5.813 9.688c-3.209 0-5.813 2.604-5.813 5.813v12.594c0 1.604 1.302 2.906 2.906 2.906h13.563c1.604 0 2.906-1.302 2.906-2.906v-12.594c0-3.209-2.604-5.813-5.813-5.813h-7.75zM9.688 15.5c1.285 0 2.517 0.51 3.425 1.419s1.419 2.14 1.419 3.425c0 1.285-0.51 2.517-1.419 3.425s-2.14 1.419-3.425 1.419c-1.285 0-2.517-0.51-3.425-1.419s-1.419-2.14-1.419-3.425c0-1.285 0.51-2.517 1.419-3.425s2.14-1.419 3.425-1.419zM23.25 2.906c0-0.085-0.061-0.182-0.133-0.218l-1.804-0.751-0.751-1.804c-0.036-0.073-0.133-0.133-0.218-0.133s-0.182 0.061-0.218 0.133l-0.751 1.804-1.804 0.751c-0.073 0.036-0.133 0.133-0.133 0.218s0.061 0.182 0.133 0.218l1.804 0.751 0.751 1.804c0.036 0.073 0.133 0.133 0.218 0.133s0.182-0.061 0.218-0.133l0.751-1.804 1.804-0.751c0.073-0.036 0.133-0.133 0.133-0.218zM27.876 5.679c0.036 0.073 0.133 0.133 0.218 0.133s0.182-0.061 0.218-0.133l0.751-1.804 1.804-0.751c0.073-0.036 0.133-0.133 0.133-0.218s-0.061-0.182-0.133-0.218l-1.804-0.751-0.751-1.804c-0.036-0.073-0.133-0.133-0.218-0.133s-0.182 0.061-0.218 0.133l-0.751 1.804-1.804 0.751c-0.073 0.036-0.133 0.133-0.133 0.218s0.061 0.182 0.133 0.218l1.804 0.751 0.751 1.804zM28.312 11.758c-0.036-0.073-0.133-0.133-0.218-0.133s-0.182 0.060-0.218 0.133l-0.751 1.804-1.804 0.751c-0.073 0.036-0.133 0.133-0.133 0.218s0.061 0.182 0.133 0.218l1.804 0.751 0.751 1.804c0.036 0.073 0.133 0.133 0.218 0.133s0.182-0.061 0.218-0.133l0.751-1.804 1.804-0.751c0.073-0.036 0.133-0.133 0.133-0.218s-0.061-0.182-0.133-0.218l-1.804-0.751-0.751-1.804zM27.125 8.719c0-0.085-0.061-0.182-0.133-0.218l-1.804-0.751-0.751-1.804c-0.036-0.073-0.133-0.133-0.218-0.133s-0.182 0.061-0.218 0.133l-0.751 1.804-1.804 0.751c-0.073 0.036-0.133 0.133-0.133 0.218s0.061 0.182 0.133 0.218l1.804 0.751 0.751 1.804c0.036 0.073 0.133 0.133 0.218 0.133s0.182-0.060 0.218-0.133l0.751-1.804 1.804-0.751c0.073-0.036 0.133-0.133 0.133-0.218z"></path>
</symbol>
<symbol id="icon-Star" viewBox="0 0 32 32">
<path fill="#ffd700" style="fill: var(--color1, #ffd700)" d="M16 23.027l8.24 4.973-2.187-9.373 7.28-6.307-9.587-0.813-3.747-8.84-3.747 8.84-9.587 0.813 7.28 6.307-2.187 9.373 8.24-4.973z"></path>
</symbol>
<symbol id="icon-stars" viewBox="0 0 32 32">
<path  d="M0 20.031c1.080-0.050 1.994-0.469 2.741-1.257s1.13-1.727 1.13-2.816c0 1.090 0.366 2.028 1.113 2.816s1.661 1.207 2.741 1.257c-1.080 0.050-1.994 0.469-2.741 1.257-0.361 0.371-0.646 0.812-0.837 1.295s-0.285 1-0.276 1.521c0-1.090-0.366-2.028-1.13-2.816-0.748-0.788-1.661-1.207-2.741-1.257zM3.871 7.962c2.093-0.101 3.871-0.922 5.333-2.464s2.193-3.369 2.193-5.498c0 2.129 0.731 3.956 2.193 5.498s3.24 2.347 5.35 2.464c-1.379 0.067-2.642 0.453-3.805 1.19-1.146 0.721-2.060 1.693-2.741 2.9-0.665 1.207-0.997 2.498-0.997 3.906 0-2.129-0.731-3.973-2.193-5.515-1.462-1.559-3.24-2.38-5.333-2.481zM9.387 26.016c1.578-0.067 2.924-0.687 4.021-1.844s1.645-2.531 1.645-4.14c0 1.609 0.548 2.984 1.645 4.14s2.426 1.777 4.004 1.844c-1.578 0.067-2.908 0.687-4.004 1.844s-1.645 2.531-1.645 4.14c0-1.609-0.548-2.984-1.645-4.14-1.048-1.124-2.492-1.786-4.021-1.844zM20.702 18.070c1.578-0.067 2.908-0.687 4.004-1.844s1.628-2.531 1.628-4.157c0 1.609 0.548 2.984 1.645 4.14s2.442 1.777 4.021 1.844c-1.578 0.067-2.924 0.687-4.021 1.844s-1.645 2.531-1.645 4.14c0-1.609-0.548-2.984-1.628-4.14-1.097-1.14-2.426-1.76-4.004-1.827z"></path>
</symbol>
<symbol id="icon-telega" viewBox="0 0 32 32">
<path  d="M32 16c0 4.243-1.686 8.313-4.686 11.314s-7.070 4.686-11.314 4.686-8.313-1.686-11.314-4.686c-3.001-3.001-4.686-7.070-4.686-11.314s1.686-8.313 4.686-11.314c3.001-3.001 7.070-4.686 11.314-4.686s8.313 1.686 11.314 4.686c3.001 3.001 4.686 7.070 4.686 11.314zM16.574 11.812c-1.556 0.648-4.668 1.988-9.332 4.020-0.756 0.3-1.154 0.596-1.19 0.884-0.060 0.486 0.55 0.678 1.38 0.94l0.35 0.11c0.816 0.266 1.916 0.576 2.486 0.588 0.52 0.012 1.098-0.2 1.736-0.64 4.358-2.942 6.608-4.428 6.748-4.46 0.1-0.024 0.24-0.052 0.332 0.032 0.094 0.082 0.084 0.24 0.074 0.282-0.060 0.258-2.454 2.482-3.692 3.634-0.386 0.36-0.66 0.614-0.716 0.672-0.123 0.126-0.249 0.25-0.376 0.372-0.76 0.732-1.328 1.28 0.030 2.176 0.654 0.432 1.178 0.786 1.7 1.142 0.568 0.388 1.136 0.774 1.872 1.258 0.186 0.12 0.366 0.25 0.54 0.374 0.662 0.472 1.26 0.896 1.994 0.828 0.428-0.040 0.87-0.44 1.094-1.64 0.53-2.834 1.572-8.972 1.812-11.502 0.015-0.21 0.006-0.422-0.026-0.63-0.019-0.168-0.1-0.323-0.228-0.434-0.182-0.126-0.399-0.191-0.62-0.186-0.6 0.010-1.526 0.332-5.968 2.18z"></path>
</symbol>
</defs>
</svg>
