<svg width="32" height="32" viewBox="0 0 32 32" fill="none" xmlns="http://www.w3.org/2000/svg">
<path d="M15.2919 22.7081L5.29194 12.7081C5.19903 12.6151 5.12533 12.5048 5.07505 12.3835C5.02477 12.2621 4.99889 12.132 4.99889 12.0006C4.99889 11.8692 5.02477 11.7391 5.07505 11.6177C5.12533 11.4963 5.19903 11.386 5.29194 11.2931C5.38485 11.2001 5.49515 11.1264 5.61655 11.0762C5.73794 11.0259 5.86805 11 5.99944 11C6.13084 11 6.26095 11.0259 6.38234 11.0762C6.50373 11.1264 6.61403 11.2001 6.70694 11.2931L15.9994 20.5868L25.2919 11.2931C25.4796 11.1054 25.7341 11 25.9994 11C26.2648 11 26.5193 11.1054 26.7069 11.2931C26.8946 11.4807 27 11.7352 27 12.0006C27 12.2659 26.8946 12.5204 26.7069 12.7081L16.7069 22.7081C16.6141 22.801 16.5038 22.8748 16.3824 22.9251C16.261 22.9754 16.1309 23.0013 15.9994 23.0013C15.868 23.0013 15.7379 22.9754 15.6165 22.9251C15.4951 22.8748 15.3848 22.801 15.2919 22.7081Z" fill="white"/>
</svg>
