<svg width="32" height="32" viewBox="0 0 32 32" fill="none" xmlns="http://www.w3.org/2000/svg">
<path d="M16.7081 9.29194L26.7081 19.2919C26.801 19.3849 26.8747 19.4952 26.9249 19.6165C26.9752 19.7379 27.0011 19.868 27.0011 19.9994C27.0011 20.1308 26.9752 20.2609 26.9249 20.3823C26.8747 20.5037 26.801 20.614 26.7081 20.7069C26.6151 20.7999 26.5048 20.8736 26.3835 20.9238C26.2621 20.9741 26.132 21 26.0006 21C25.8692 21 25.7391 20.9741 25.6177 20.9238C25.4963 20.8736 25.386 20.7999 25.2931 20.7069L16.0006 11.4132L6.70806 20.7069C6.52042 20.8946 6.26592 21 6.00056 21C5.73519 21 5.4807 20.8946 5.29306 20.7069C5.10542 20.5193 5 20.2648 5 19.9994C5 19.7341 5.10542 19.4796 5.29306 19.2919L15.2931 9.29194C15.3859 9.19897 15.4962 9.12521 15.6176 9.07488C15.739 9.02456 15.8691 8.99866 16.0006 8.99866C16.132 8.99866 16.2621 9.02456 16.3835 9.07488C16.5049 9.12521 16.6152 9.19897 16.7081 9.29194Z" fill="white"/>
</svg>
