<svg width="32" height="32" viewBox="0 0 32 32" fill="none" xmlns="http://www.w3.org/2000/svg">
<path d="M9.29194 15.2919L19.2919 5.29194C19.3849 5.19903 19.4952 5.12533 19.6165 5.07505C19.7379 5.02477 19.868 4.99889 19.9994 4.99889C20.1308 4.99889 20.2609 5.02477 20.3823 5.07505C20.5037 5.12533 20.614 5.19903 20.7069 5.29194C20.7999 5.38485 20.8736 5.49515 20.9238 5.61655C20.9741 5.73794 21 5.86805 21 5.99944C21 6.13084 20.9741 6.26095 20.9238 6.38234C20.8736 6.50373 20.7999 6.61403 20.7069 6.70694L11.4132 15.9994L20.7069 25.2919C20.8946 25.4796 21 25.7341 21 25.9994C21 26.2648 20.8946 26.5193 20.7069 26.7069C20.5193 26.8946 20.2648 27 19.9994 27C19.7341 27 19.4796 26.8946 19.2919 26.7069L9.29194 16.7069C9.19897 16.6141 9.12521 16.5038 9.07488 16.3824C9.02456 16.261 8.99866 16.1309 8.99866 15.9994C8.99866 15.868 9.02456 15.7379 9.07488 15.6165C9.12521 15.4951 9.19897 15.3848 9.29194 15.2919Z" fill="white"/>
</svg>
