<svg width="32" height="32" viewBox="0 0 32 32" fill="none" xmlns="http://www.w3.org/2000/svg">
<rect width="32" height="32" rx="16" fill="white"/>
<path d="M21.9993 18.9467V21.304C21.9994 21.4728 21.9355 21.6353 21.8204 21.7588C21.7053 21.8823 21.5477 21.9575 21.3794 21.9693C21.0881 21.9893 20.8501 22 20.6661 22C14.7751 22 10 17.2247 10 11.3333C10 11.1493 10.01 10.9113 10.0307 10.62C10.0425 10.4516 10.1177 10.294 10.2412 10.1789C10.3647 10.0639 10.5272 9.99992 10.696 10H13.0532C13.1359 9.99992 13.2156 10.0306 13.277 10.086C13.3383 10.1415 13.3769 10.2177 13.3851 10.3C13.4005 10.4533 13.4145 10.5753 13.4278 10.668C13.5603 11.5926 13.8318 12.4919 14.2331 13.3353C14.2964 13.4687 14.2551 13.628 14.1351 13.7133L12.6965 14.7413C13.5761 16.791 15.2094 18.4244 17.2589 19.304L18.2855 17.868C18.3275 17.8093 18.3887 17.7673 18.4585 17.7491C18.5283 17.7309 18.6023 17.7379 18.6675 17.7687C19.5108 18.1693 20.4098 18.4401 21.334 18.572C21.4267 18.5853 21.5487 18.5993 21.7007 18.6147C21.7828 18.6231 21.8589 18.6617 21.9142 18.7231C21.9695 18.7844 21.9994 18.8641 21.9993 18.9467Z" fill="black"/>
</svg>
