<svg width="32" height="32" viewBox="0 0 32 32" fill="none" xmlns="http://www.w3.org/2000/svg">
<g clip-path="url(#clip0_120_2109)">
<path d="M25.3333 0L23.407 6.83632L19.5555 8.84809L23.407 10.859L25.3333 16.8908L27.2595 10.8581L31.111 8.84721L27.2595 6.8372L25.3333 0ZM12.4444 5.33393L11.5555 8.88988L8.88887 9.77886L11.5555 10.6679L12.4444 14.2238L13.3333 10.6679L16 9.77886L13.3333 8.88988L12.4444 5.33393ZM0 21.3357C0 21.0999 0.0936504 20.8738 0.260349 20.7071C0.427048 20.5404 0.653139 20.4467 0.888887 20.4467H3.55555C3.79129 20.4467 4.01739 20.5404 4.18408 20.7071C4.35078 20.8738 4.44443 21.0999 4.44443 21.3357V31.111C4.44443 31.3468 4.35078 31.5729 4.18408 31.7396C4.01739 31.9063 3.79129 32 3.55555 32H0.888887C0.653139 32 0.427048 31.9063 0.260349 31.7396C0.0936504 31.5729 0 31.3468 0 31.111V21.3357ZM10.4044 20.6147C11.2329 20.2369 13.2577 20.6147 13.2577 20.6147L19.1475 21.9358C19.1475 21.9358 20.6204 22.4078 22.0008 22.4078C23.3813 22.4078 22.5555 24.2978 21.6319 24.9574C20.7093 25.6171 20.0373 25.5815 20.0373 25.5815L15.2817 25.5237C15.2817 25.5237 19.4239 26.2794 20.9884 26.3736C21.7804 26.4216 23.1395 25.8633 24.6595 25.2401C26.1395 24.6321 27.7706 23.9627 29.1786 23.7297C32.0319 23.2586 32.4924 25.8073 31.5715 26.7514C30.6515 27.6955 23.2888 31.2826 22.0008 31.7546C20.9911 32.1245 19.7706 32.0018 18.3937 31.8631C18.0124 31.8249 17.6186 31.7849 17.2151 31.7546C15.6062 31.6329 14.3777 31.2417 13.1617 30.855C11.8569 30.4407 10.5671 30.0309 8.83998 29.9607C8.26042 29.9375 6.90398 30.0096 6.22221 30.0496V22.1714C7.40087 21.7518 9.78753 20.8957 10.4044 20.6147Z" fill="white"/>
</g>
<defs>
<clipPath id="clip0_120_2109">
<rect width="32" height="32" fill="white"/>
</clipPath>
</defs>
</svg>
