<svg width="32" height="32" viewBox="0 0 32 32" fill="none" xmlns="http://www.w3.org/2000/svg">
<path d="M20.32 2.66602H15.128C12.776 2.66602 10.912 2.66602 9.45467 2.86335C7.95333 3.06602 6.73867 3.49268 5.78133 4.45402C4.82267 5.41535 4.39733 6.63535 4.196 8.14202C4 9.60602 4 11.4767 4 13.838V21.622C4 23.6327 5.22667 25.3554 6.96933 26.078C6.88 24.8647 6.88 23.1647 6.88 21.7487V15.0687C6.88 13.3607 6.88 11.8873 7.03733 10.7087C7.20667 9.44468 7.588 8.23402 8.56667 7.25135C9.54533 6.26868 10.752 5.88602 12.0107 5.71535C13.184 5.55802 14.6507 5.55802 16.3533 5.55802H20.4467C22.148 5.55802 23.612 5.55802 24.7867 5.71535C24.4347 4.81718 23.8202 4.04587 23.0235 3.50196C22.2268 2.95804 21.2847 2.66674 20.32 2.66602Z" fill="white"/>
<path d="M8.80078 15.195C8.80078 11.5604 8.80078 9.74304 9.92611 8.61371C11.0501 7.48438 12.8594 7.48438 16.4808 7.48438H20.3208C23.9408 7.48438 25.7514 7.48438 26.8768 8.61371C28.0008 9.74304 28.0008 11.5604 28.0008 15.195V21.6217C28.0008 25.2564 28.0008 27.0737 26.8768 28.203C25.7514 29.3324 23.9408 29.3324 20.3208 29.3324H16.4808C12.8608 29.3324 11.0501 29.3324 9.92611 28.203C8.80078 27.0737 8.80078 25.2564 8.80078 21.6217V15.195Z" fill="white"/>
</svg>
