<svg width="32" height="32" viewBox="0 0 32 32" fill="none" xmlns="http://www.w3.org/2000/svg">
<path fill-rule="evenodd" clip-rule="evenodd" d="M14.2241 8.17802L13.5547 7.70468C12.5995 7.02881 11.4582 6.66591 10.2881 6.66602H9.47208C8.93208 6.66602 8.38808 6.69935 7.88008 6.87935C4.70274 8.00735 2.51741 12.126 2.67608 21.47C2.70808 23.3527 3.14808 25.4327 4.84674 26.2447C5.4262 26.5233 6.06113 26.6673 6.70408 26.666C7.42674 26.6779 8.13668 26.4751 8.74408 26.0833C9.29074 25.726 9.77074 25.262 10.2507 24.798C10.8427 24.2247 11.4347 23.6513 12.1494 23.2807C12.928 22.8769 13.7923 22.6661 14.6694 22.666H17.3347C18.2121 22.666 19.0761 22.8767 19.8547 23.2793C20.5694 23.6513 21.1614 24.2247 21.7547 24.798C22.2347 25.262 22.7147 25.726 23.2587 26.0833C23.7787 26.4247 24.4521 26.666 25.3001 26.666C25.943 26.6673 26.578 26.5233 27.1574 26.2447C28.8561 25.4327 29.2961 23.3513 29.3281 21.47C29.4867 12.126 27.3014 8.00735 24.1241 6.88068C23.6147 6.69935 23.0681 6.66602 22.5307 6.66602H21.7147C20.5445 6.66621 19.4031 7.02959 18.4481 7.70602L17.7787 8.17802C17.259 8.54571 16.6381 8.74317 16.0014 8.74317C15.3648 8.74317 14.7438 8.54571 14.2241 8.17802ZM22.3347 11.9993C22.6 11.9993 22.8543 12.1047 23.0419 12.2922C23.2294 12.4798 23.3347 12.7341 23.3347 12.9993C23.3347 13.2646 23.2294 13.5189 23.0419 13.7065C22.8543 13.894 22.6 13.9993 22.3347 13.9993C22.0695 13.9993 21.8152 13.894 21.6276 13.7065C21.4401 13.5189 21.3347 13.2646 21.3347 12.9993C21.3347 12.7341 21.4401 12.4798 21.6276 12.2922C21.8152 12.1047 22.0695 11.9993 22.3347 11.9993ZM10.0014 12.3327C10.2666 12.3327 10.521 12.438 10.7085 12.6256C10.8961 12.8131 11.0014 13.0675 11.0014 13.3327V14.3327H12.0014C12.2666 14.3327 12.521 14.438 12.7085 14.6256C12.8961 14.8131 13.0014 15.0675 13.0014 15.3327C13.0014 15.5979 12.8961 15.8523 12.7085 16.0398C12.521 16.2273 12.2666 16.3327 12.0014 16.3327H11.0014V17.3327C11.0014 17.5979 10.8961 17.8523 10.7085 18.0398C10.521 18.2273 10.2666 18.3327 10.0014 18.3327C9.73619 18.3327 9.48184 18.2273 9.2943 18.0398C9.10677 17.8523 9.00141 17.5979 9.00141 17.3327V16.3327H8.00141C7.73619 16.3327 7.48184 16.2273 7.2943 16.0398C7.10677 15.8523 7.00141 15.5979 7.00141 15.3327C7.00141 15.0675 7.10677 14.8131 7.2943 14.6256C7.48184 14.438 7.73619 14.3327 8.00141 14.3327H9.00141V13.3327C9.00141 13.0675 9.10677 12.8131 9.2943 12.6256C9.48184 12.438 9.73619 12.3327 10.0014 12.3327ZM25.3347 14.9993C25.3347 15.2646 25.2294 15.5189 25.0419 15.7065C24.8543 15.894 24.6 15.9993 24.3347 15.9993C24.0695 15.9993 23.8152 15.894 23.6276 15.7065C23.4401 15.5189 23.3347 15.2646 23.3347 14.9993C23.3347 14.7341 23.4401 14.4798 23.6276 14.2922C23.8152 14.1047 24.0695 13.9993 24.3347 13.9993C24.6 13.9993 24.8543 14.1047 25.0419 14.2922C25.2294 14.4798 25.3347 14.7341 25.3347 14.9993ZM20.3347 15.9993C20.6 15.9993 20.8543 15.894 21.0419 15.7065C21.2294 15.5189 21.3347 15.2646 21.3347 14.9993C21.3347 14.7341 21.2294 14.4798 21.0419 14.2922C20.8543 14.1047 20.6 13.9993 20.3347 13.9993C20.0695 13.9993 19.8152 14.1047 19.6276 14.2922C19.4401 14.4798 19.3347 14.7341 19.3347 14.9993C19.3347 15.2646 19.4401 15.5189 19.6276 15.7065C19.8152 15.894 20.0695 15.9993 20.3347 15.9993ZM23.3347 16.9993C23.3347 16.7341 23.2294 16.4798 23.0419 16.2922C22.8543 16.1047 22.6 15.9993 22.3347 15.9993C22.0695 15.9993 21.8152 16.1047 21.6276 16.2922C21.4401 16.4798 21.3347 16.7341 21.3347 16.9993C21.3347 17.2646 21.4401 17.5189 21.6276 17.7065C21.8152 17.894 22.0695 17.9993 22.3347 17.9993C22.6 17.9993 22.8543 17.894 23.0419 17.7065C23.2294 17.5189 23.3347 17.2646 23.3347 16.9993Z" fill="#FFCC33"/>
</svg>
