<svg width="32" height="32" viewBox="0 0 32 32" fill="none" xmlns="http://www.w3.org/2000/svg">
<path d="M22 10.6675C22 12.6675 21.3333 15.3342 18.1333 16.4009C19.0667 14.1342 19.2 11.8675 18.5333 9.7342C17.6 6.9342 14.5333 4.80087 12.4 3.60087C11.8667 3.20087 10.9333 3.7342 11.0667 4.5342C11.0667 6.00087 10.6667 8.1342 8.4 10.4009C5.46667 13.3342 4 16.4009 4 19.3342C4 23.2009 6.66667 28.0009 12 28.0009C6.66667 22.6675 10.6667 18.0009 10.6667 18.0009C11.7333 25.8675 17.3333 28.0009 20 28.0009C22.2667 28.0009 26.6667 26.4009 26.6667 19.4675C26.6667 15.3342 24.9333 12.1342 23.4667 10.2675C23.0667 9.60087 22.1333 10.0009 22 10.6675Z" fill="#FF290A"/>
</svg>
