<svg width="32" height="32" viewBox="0 0 32 32" fill="none" xmlns="http://www.w3.org/2000/svg">
<rect width="32" height="32" rx="16" fill="#151206"/>
<path d="M22.7081 16.7081L12.7081 26.7081C12.6151 26.801 12.5048 26.8747 12.3835 26.9249C12.2621 26.9752 12.132 27.0011 12.0006 27.0011C11.8692 27.0011 11.7391 26.9752 11.6177 26.9249C11.4963 26.8747 11.386 26.801 11.2931 26.7081C11.2001 26.6151 11.1264 26.5048 11.0762 26.3835C11.0259 26.2621 11 26.132 11 26.0006C11 25.8692 11.0259 25.7391 11.0762 25.6177C11.1264 25.4963 11.2001 25.386 11.2931 25.2931L20.5868 16.0006L11.2931 6.70806C11.1054 6.52042 11 6.26592 11 6.00056C11 5.73519 11.1054 5.4807 11.2931 5.29306C11.4807 5.10542 11.7352 5 12.0006 5C12.2659 5 12.5204 5.10542 12.7081 5.29306L22.7081 15.2931C22.801 15.3859 22.8748 15.4962 22.9251 15.6176C22.9754 15.739 23.0013 15.8691 23.0013 16.0006C23.0013 16.132 22.9754 16.2621 22.9251 16.3835C22.8748 16.5049 22.801 16.6152 22.7081 16.7081Z" fill="#FFD700"/>
</svg>
