<svg width="32" height="32" viewBox="0 0 32 32" fill="none" xmlns="http://www.w3.org/2000/svg">
<path d="M15.9968 11.9983C13.7933 11.9983 11.9951 13.7965 11.9951 16C11.9951 18.2035 13.7933 20.0017 15.9968 20.0017C18.2002 20.0017 19.9984 18.2035 19.9984 16C19.9984 13.7965 18.2002 11.9983 15.9968 11.9983ZM27.9987 16C27.9987 14.3429 28.0137 12.7008 27.9206 11.0467C27.8275 9.12536 27.3893 7.4202 25.9843 6.01525C24.5764 4.6073 22.8743 4.17201 20.953 4.07895C19.2959 3.98588 17.6539 4.00089 15.9998 4.00089C14.3427 4.00089 12.7006 3.98588 11.0465 4.07895C9.12526 4.17201 7.42014 4.6103 6.01522 6.01525C4.60729 7.42321 4.17201 9.12536 4.07894 11.0467C3.98588 12.7038 4.00089 14.3459 4.00089 16C4.00089 17.6541 3.98588 19.2992 4.07894 20.9533C4.17201 22.8746 4.61029 24.5798 6.01522 25.9847C7.42314 27.3927 9.12526 27.828 11.0465 27.9211C12.7036 28.0141 14.3457 27.9991 15.9998 27.9991C17.6569 27.9991 19.2989 28.0141 20.953 27.9211C22.8743 27.828 24.5794 27.3897 25.9843 25.9847C27.3923 24.5768 27.8275 22.8746 27.9206 20.9533C28.0167 19.2992 27.9987 17.6571 27.9987 16ZM15.9968 22.1572C12.5895 22.1572 9.83973 19.4073 9.83973 16C9.83973 12.5927 12.5895 9.84284 15.9968 9.84284C19.404 9.84284 22.1538 12.5927 22.1538 16C22.1538 19.4073 19.404 22.1572 15.9968 22.1572ZM22.406 11.0286C21.6105 11.0286 20.968 10.3862 20.968 9.59067C20.968 8.79513 21.6105 8.1527 22.406 8.1527C23.2015 8.1527 23.8439 8.79513 23.8439 9.59067C23.8442 9.77957 23.8071 9.96667 23.735 10.1412C23.6628 10.3158 23.5569 10.4744 23.4233 10.608C23.2897 10.7416 23.1311 10.8475 22.9565 10.9197C22.782 10.9918 22.5949 11.0289 22.406 11.0286Z" fill="white"/>
</svg>
