<svg width="32" height="32" viewBox="0 0 32 32" fill="none" xmlns="http://www.w3.org/2000/svg">
<path d="M23.5 10.9995H17V20.062C17 20.3273 16.8946 20.5816 16.7071 20.7691C16.5196 20.9567 16.2652 21.062 16 21.062C15.7348 21.062 15.4804 20.9567 15.2929 20.7691C15.1054 20.5816 15 20.3273 15 20.062V10.9995H8.5C7.57205 11.0005 6.68238 11.3696 6.02622 12.0258C5.37006 12.6819 5.00099 13.5716 5 14.4995V26.4995C5.00099 27.4275 5.37006 28.3172 6.02622 28.9733C6.68238 29.6295 7.57205 29.9985 8.5 29.9995H23.5C24.428 29.9985 25.3176 29.6295 25.9738 28.9733C26.6299 28.3172 26.999 27.4275 27 26.4995V14.4995C26.999 13.5716 26.6299 12.6819 25.9738 12.0258C25.3176 11.3696 24.428 11.0005 23.5 10.9995ZM17 5.41391L20.2931 8.70641C20.4822 8.88603 20.7339 8.98469 20.9947 8.98135C21.2555 8.97801 21.5046 8.87294 21.689 8.68854C21.8734 8.50414 21.9785 8.255 21.9818 7.99424C21.9852 7.73347 21.8865 7.48172 21.7069 7.29266L16.7069 2.29266C16.5194 2.10527 16.2651 2 16 2C15.7349 2 15.4806 2.10527 15.2931 2.29266L10.2931 7.29266C10.1135 7.48172 10.0148 7.73347 10.0182 7.99424C10.0215 8.255 10.1266 8.50414 10.311 8.68854C10.4954 8.87294 10.7445 8.97801 11.0053 8.98135C11.2661 8.98469 11.5178 8.88603 11.7069 8.70641L15 5.41391V10.9995H17V5.41391Z" fill="white"/>
</svg>
