<svg width="32" height="32" viewBox="0 0 32 32" fill="none" xmlns="http://www.w3.org/2000/svg">
<path d="M5.8125 1.9375V7.75H13.5625V1.9375C13.5625 0.86582 12.6967 0 11.625 0H7.75C6.67832 0 5.8125 0.86582 5.8125 1.9375ZM5.8125 9.6875C2.60352 9.6875 0 12.291 0 15.5V28.0938C0 29.6982 1.30176 31 2.90625 31H16.4688C18.0732 31 19.375 29.6982 19.375 28.0938V15.5C19.375 12.291 16.7715 9.6875 13.5625 9.6875H5.8125ZM9.6875 15.5C10.9721 15.5 12.2042 16.0103 13.1125 16.9187C14.0209 17.8271 14.5312 19.0591 14.5312 20.3438C14.5312 21.6284 14.0209 22.8604 13.1125 23.7688C12.2042 24.6772 10.9721 25.1875 9.6875 25.1875C8.40286 25.1875 7.17083 24.6772 6.26245 23.7688C5.35407 22.8604 4.84375 21.6284 4.84375 20.3438C4.84375 19.0591 5.35407 17.8271 6.26245 16.9187C7.17083 16.0103 8.40286 15.5 9.6875 15.5ZM23.25 2.90625C23.25 2.82148 23.1895 2.72461 23.1168 2.68828L21.3125 1.9375L20.5617 0.133203C20.5254 0.0605469 20.4285 0 20.3438 0C20.259 0 20.1621 0.0605469 20.1258 0.133203L19.375 1.9375L17.5707 2.68828C17.498 2.72461 17.4375 2.82148 17.4375 2.90625C17.4375 2.99102 17.498 3.08789 17.5707 3.12422L19.375 3.875L20.1258 5.6793C20.1621 5.75195 20.259 5.8125 20.3438 5.8125C20.4285 5.8125 20.5254 5.75195 20.5617 5.6793L21.3125 3.875L23.1168 3.12422C23.1895 3.08789 23.25 2.99102 23.25 2.90625ZM27.8758 5.6793C27.9121 5.75195 28.009 5.8125 28.0938 5.8125C28.1785 5.8125 28.2754 5.75195 28.3117 5.6793L29.0625 3.875L30.8668 3.12422C30.9395 3.08789 31 2.99102 31 2.90625C31 2.82148 30.9395 2.72461 30.8668 2.68828L29.0625 1.9375L28.3117 0.133203C28.2754 0.0605469 28.1785 0 28.0938 0C28.009 0 27.9121 0.0605469 27.8758 0.133203L27.125 1.9375L25.3207 2.68828C25.248 2.72461 25.1875 2.82148 25.1875 2.90625C25.1875 2.99102 25.248 3.08789 25.3207 3.12422L27.125 3.875L27.8758 5.6793ZM28.3117 11.7582C28.2754 11.6855 28.1785 11.625 28.0938 11.625C28.009 11.625 27.9121 11.6855 27.8758 11.7582L27.125 13.5625L25.3207 14.3133C25.248 14.3496 25.1875 14.4465 25.1875 14.5312C25.1875 14.616 25.248 14.7129 25.3207 14.7492L27.125 15.5L27.8758 17.3043C27.9121 17.377 28.009 17.4375 28.0938 17.4375C28.1785 17.4375 28.2754 17.377 28.3117 17.3043L29.0625 15.5L30.8668 14.7492C30.9395 14.7129 31 14.616 31 14.5312C31 14.4465 30.9395 14.3496 30.8668 14.3133L29.0625 13.5625L28.3117 11.7582ZM27.125 8.71875C27.125 8.63398 27.0645 8.53711 26.9918 8.50078L25.1875 7.75L24.4367 5.9457C24.4004 5.87305 24.3035 5.8125 24.2188 5.8125C24.134 5.8125 24.0371 5.87305 24.0008 5.9457L23.25 7.75L21.4457 8.50078C21.373 8.53711 21.3125 8.63398 21.3125 8.71875C21.3125 8.80352 21.373 8.90039 21.4457 8.93672L23.25 9.6875L24.0008 11.4918C24.0371 11.5645 24.134 11.625 24.2188 11.625C24.3035 11.625 24.4004 11.5645 24.4367 11.4918L25.1875 9.6875L26.9918 8.93672C27.0645 8.90039 27.125 8.80352 27.125 8.71875Z" fill="white"/>
</svg>
