<svg width="24" height="24" viewBox="0 0 24 24" fill="none" xmlns="http://www.w3.org/2000/svg">
<g clip-path="url(#clip0_120_2129)">
<path d="M0 15.0236C0.809969 14.9859 1.49533 14.6716 2.05608 14.0807C2.61682 13.4898 2.90343 12.7858 2.90343 11.9686C2.90343 12.7858 3.17757 13.4898 3.73832 14.0807C4.29907 14.6716 4.98443 14.9859 5.79439 15.0236C4.98443 15.0613 4.29907 15.3756 3.73832 15.9665C3.46721 16.245 3.25377 16.5752 3.11043 16.9379C2.96709 17.3005 2.89673 17.6882 2.90343 18.0786C2.90343 17.2614 2.62928 16.5574 2.05608 15.9665C1.49533 15.3756 0.809969 15.0613 0 15.0236ZM2.90343 5.97171C4.47352 5.89628 5.80685 5.28025 6.90343 4.12363C8 2.967 8.54829 1.59665 8.54829 0C8.54829 1.59665 9.09657 2.967 10.1931 4.12363C11.2897 5.28025 12.6231 5.88371 14.2056 5.97171C13.1713 6.022 12.2243 6.31116 11.352 6.86433C10.4922 7.40492 9.80685 8.1341 9.29595 9.03929C8.79751 9.94447 8.54829 10.9125 8.54829 11.9686C8.54829 10.3719 8 8.989 6.90343 7.83237C5.80685 6.66317 4.47352 6.04714 2.90343 5.97171ZM7.0405 19.5118C8.2243 19.4615 9.23365 18.9963 10.0561 18.1289C10.8785 17.2614 11.2897 16.2305 11.2897 15.0236C11.2897 16.2305 11.7009 17.2614 12.5234 18.1289C13.3458 18.9963 14.3427 19.4615 15.5265 19.5118C14.3427 19.5621 13.3458 20.0272 12.5234 20.8947C11.7009 21.7622 11.2897 22.7931 11.2897 24C11.2897 22.7931 10.8785 21.7622 10.0561 20.8947C9.27002 20.0519 8.18674 19.5551 7.0405 19.5118ZM15.5265 13.5526C16.7103 13.5024 17.7072 13.0372 18.5296 12.1697C19.352 11.3023 19.7508 10.2713 19.7508 9.05186C19.7508 10.2588 20.162 11.2897 20.9844 12.1572C21.8069 13.0246 22.8162 13.4898 24 13.5401C22.8162 13.5904 21.8069 14.0555 20.9844 14.923C20.162 15.7905 19.7508 16.8214 19.7508 18.0283C19.7508 16.8214 19.3396 15.7905 18.5296 14.923C17.7072 14.0681 16.7103 13.6029 15.5265 13.5526Z" fill="white"/>
</g>
<defs>
<clipPath id="clip0_120_2129">
<rect width="24" height="24" fill="white"/>
</clipPath>
</defs>
</svg>
